<?xml version="1.0" standalone="no"?>
<!DOCTYPE svg PUBLIC "-//W3C//DTD SVG 1.1//EN" "http://www.w3.org/Graphics/SVG/1.1/DTD/svg11.dtd">
<svg xmlns="http://www.w3.org/2000/svg">
<defs >
<font id="IBMPlexMono" horiz-adv-x="600" ><font-face
    font-family="IBM Plex Mono"
    units-per-em="1000"
    panose-1="2 11 8 9 5 2 3 0 2 3"
    ascent="1025"
    descent="-275"
    alphabetic="0" />
<glyph unicode=" " glyph-name="space" />
<glyph unicode="!" glyph-name="exclam" d="M269 243L257 495L290 698H451L417 495L321 243H269ZM256 -12Q209 -12 189 6T168 51Q168 57 169 66T174 99Q179 131 204 152T279 174Q326 174 346 156T367 111Q367 105 366 96T361 63Q356 31 331 10T256 -12Z" />
<glyph unicode="&quot;" glyph-name="quotedbl" d="M407 415L461 740H591L537 415H407ZM374 415L428 740H558L504 415H374Z" />
<glyph unicode="#" glyph-name="numbersign" d="M109 195H-1L17 303H146L177 395H70L88 503H214L281 698H396L157 0H42L109 195ZM475 698H590L523 503H633L615 395H486L455 303H562L544 195H418L351 0H236L475 698Z" />
<glyph unicode="$" glyph-name="dollar" d="M210 -7Q144 2 94 29T18 98L108 190Q131 157 166 138T239 111L271 301L251 307Q90 354 90 485Q90 579 153 639T329 708L346 811H458L440 702Q490 691 529 668T591 611L499 521Q482 544 461 559T410 582L381 408L395
404Q470 381 516 340T562 227Q562 178 546 137T499 66T424 16T321 -10L304 -113H192L210 -7ZM232 501Q232 474 247 461T294 436L318 584Q273 576 253 553T232 501ZM419 211Q419 235 404 249T358 275L332 113Q419 132 419 211Z" />
<glyph unicode="%" glyph-name="percent" d="M187 339Q121 339 86 378T50 485Q50 535 63 576T100 647T158 693T235 710Q301 710 336 671T372 564Q372 514 359 473T322 402T264 356T187 339ZM196 425Q227 425 240 444T259 496Q260 503 262 513T266 535T269 556T271
573Q271 624 226 624Q195 624 182 605T163 553Q162 546 160 536T156 514T153 492T151 476Q151 425 196 425ZM561 698H672L471 398H360L561 698ZM162 300H273L72 0H-39L162 300ZM398 -12Q332 -12 297 27T261 134Q261 184 274 225T311 296T369 342T446 359Q512 359
547 320T583 213Q583 163 570 122T533 51T475 5T398 -12ZM407 74Q438 74 451 93T470 145Q471 152 473 162T477 184T480 205T482 222Q482 273 437 273Q406 273 393 254T374 202Q373 195 371 185T367 163T364 141T362 125Q362 74 407 74Z" />
<glyph unicode="&amp;" glyph-name="ampersand" d="M153 -12Q90 -12 50 34T10 171Q10 216 20 256T54 327T113 377T200 399Q189 431 182 465T175 531Q175 568 188 601T228 658T292 696T379 710Q419 710 451 698T507 662T543 607T556 535Q556 452 505 397T360 324L432
123L449 119L517 214L599 155L551 74Q522 25 493 7T424 -12Q404 -12 386 -4T352 21T322 67T298 137H292Q284 73 250 31T153 -12ZM207 115Q216 115 225 116T244 123T261 139T277 169L220 338Q200 332 188 322T169 300T159 272T155 242Q153 218 153 205T152 183Q152
151 167 133T207 115ZM368 606Q334 606 320 584T305 530Q305 498 312 467T334 396L337 387Q378 402 397 424T423 483Q426 501 427 514T428 542Q428 569 412 587T368 606Z" />
<glyph unicode="&apos;" glyph-name="quotesingle" d="M262 415L316 740H446L392 415H262Z" />
<glyph unicode="(" glyph-name="parenleft" d="M170 239Q170 322 193 399T254 544T344 667T453 760H596Q542 722 495 678T410 584T347 480T312 370L296 275Q293 257 292 243T291 213Q291 164 304 115T339 19T389 -67T447 -137H316Q286 -107 259 -67T213 21T182
125T170 239Z" />
<glyph unicode=")" glyph-name="parenright" d="M452 384Q452 301 429 224T368 79T278 -44T169 -137H26Q80 -99 127 -55T212 39T275 143T310 253L326 348Q329 366 330 380T331 410Q331 459 318 508T283 604T233 690T175 760H306Q336 730 363 690T409 602T440 498T452
384Z" />
<glyph unicode="*" glyph-name="asterisk" d="M157 40L61 109L198 259L40 320L95 431L253 370L283 548H409L379 370L557 431L578 317L397 252L485 109L376 40L288 190L157 40Z" />
<glyph unicode="+" glyph-name="plus" d="M205 62L236 247H61L81 363H255L286 548H412L381 363H557L537 247H362L331 62H205Z" />
<glyph unicode="," glyph-name="comma" d="M211 173H398L215 -151H102L211 173Z" />
<glyph unicode="-" glyph-name="hyphen" d="M139 235L162 375H479L456 235H139Z" />
<glyph unicode="." glyph-name="period" d="M255 -12Q205 -12 184 7T163 55Q163 70 169 106Q174 138 201 162T284 186Q334 186 355 167T376 119Q376 104 370 68Q365 36 338 12T255 -12Z" />
<glyph unicode="/" glyph-name="slash" d="M1 -138L465 760H599L135 -138H1Z" />
<glyph unicode="0" glyph-name="zero" d="M278 -12Q153 -12 95 59T36 256Q36 342 53 424T109 569T206 671T350 710Q413 710 458 692T534 639T578 555T592 442Q592 356 575 274T519 129T422 27T278 -12ZM278 103Q312 103 335 115T375 150T402 206T419 282L440 409Q444
432 445 449T447 483Q447 536 424 565T350 595Q316 595 293 583T253 548T226 492T209 416L188 289Q184 266 183 249T181 215Q181 162 204 133T278 103ZM307 290Q276 290 263 302T249 332Q249 342 252 360Q256 383 272 395T321 408Q352 408 365 396T379 366Q379
356 376 338Q372 315 356 303T307 290Z" />
<glyph unicode="1" glyph-name="one" d="M47 0L67 120H254L332 589H323L154 403L66 478L266 698H498L402 120H551L531 0H47Z" />
<glyph unicode="2" glyph-name="two" d="M512 0H12L34 136L287 323Q320 347 343 368T383 408T408 446T420 485Q421 490 421 496T422 511Q422 542 401 562T338 582Q313 582 294 574T259 552T232 520T212 483L84 533Q102 570 126 602T184 659T258 696T350 710Q459
710 519 657T580 515Q580 470 565 434T521 366T451 301T359 232L209 124H533L512 0Z" />
<glyph unicode="3" glyph-name="three" d="M294 422Q355 422 383 443T417 491Q419 500 419 505T420 518Q420 551 395 570T328 589Q286 589 249 571T178 507L96 599Q119 624 145 644T202 679T270 702T354 710Q406 710 447 699T518 665T564 613T580 544Q580 475
537 430T416 367L415 362Q471 352 505 315T539 215Q539 166 521 125T466 53T377 5T255 -12Q202 -12 162 -1T93 28T44 71T12 122L118 199Q137 159 169 134T261 109Q314 109 344 131T381 195Q382 200 382 207T383 221Q383 257 356 277T281 298H206L227 422H294Z"
/>
<glyph unicode="4" glyph-name="four" d="M298 0L320 134H6L28 264L379 698H558L483 249H572L553 134H464L442 0H298ZM151 249H339L386 530H378L151 249Z" />
<glyph unicode="5" glyph-name="five" d="M571 569H248L196 346H204Q219 372 235 392T270 427T315 448T373 456Q414 456 448 443T508 405T548 344T563 262Q563 211 545 162T489 74T397 12T268 -12Q211 -12 170 -1T99 29T50 72T18 124L135 199Q151 161 184 135T271
109Q327 109 358 138T398 212Q401 230 401 252Q401 292 376 314T306 336Q264 336 235 320T188 287L70 303L162 698H593L571 569Z" />
<glyph unicode="6" glyph-name="six" d="M274 -12Q158 -12 97 52T36 224Q36 300 63 370T135 502T237 613T357 698H568Q497 654 440 613T338 530T261 444T209 348L217 345Q230 365 246 384T282 417T329 441T389 450Q429 450 462 436T517 397T552 337T565 258Q565
205 546 156T490 70T399 10T274 -12ZM285 104Q336 104 367 130T407 207Q410 225 410 240Q410 288 385 312T311 336Q260 336 229 310T189 233Q186 215 186 200Q186 152 211 128T285 104Z" />
<glyph unicode="7" glyph-name="seven" d="M110 0L446 577H221L200 450H74L115 698H617L595 569L270 0H110Z" />
<glyph unicode="8" glyph-name="eight" d="M269 -12Q148 -12 86 37T24 166Q24 239 69 291T193 361L194 368Q150 385 125 419T100 506Q100 543 115 579T164 645T247 692T367 710Q477 710 532 664T588 543Q588 480 550 436T443 367L442 360Q495 345 525 308T556
213Q556 172 538 132T484 59T395 8T269 -12ZM275 102Q329 102 359 126T397 192Q399 206 399 212T400 227Q400 262 376 282T303 302Q249 302 219 278T181 212Q179 198 179 192T178 177Q178 142 202 122T275 102ZM329 411Q378 411 406 433T441 496Q444 514 444 527Q444
559 421 577T352 596Q303 596 275 574T240 511Q237 493 237 480Q237 448 260 430T329 411Z" />
<glyph unicode="9" glyph-name="nine" d="M592 474Q592 398 565 328T493 196T390 85T271 0H60Q130 43 188 84T290 168T367 254T419 350L411 353Q398 333 382 314T346 281T299 257T239 248Q198 248 166 262T111 301T76 361T63 440Q63 493 82 542T138 628T229 688T354
710Q412 710 456 694T531 646T576 572T592 474ZM317 362Q368 362 399 388T439 465Q442 483 442 498Q442 546 417 570T343 594Q292 594 261 568T221 491Q218 473 218 458Q218 410 243 386T317 362Z" />
<glyph unicode=":" glyph-name="colon" d="M255 -12Q205 -12 184 7T163 55Q163 70 169 106Q174 138 201 162T284 186Q334 186 355 167T376 119Q376 104 370 68Q365 36 338 12T255 -12ZM310 329Q260 329 239 348T218 396Q218 411 224 447Q229 479 256 503T339 527Q389
527 410 508T431 460Q431 445 425 409Q420 377 393 353T310 329Z" />
<glyph unicode=";" glyph-name="semicolon" d="M211 173H398L215 -151H102L211 173ZM310 329Q260 329 239 348T218 396Q218 411 224 447Q229 479 256 503T339 527Q389 527 410 508T431 460Q431 445 425 409Q420 377 393 353T310 329Z" />
<glyph unicode="&lt;" glyph-name="less" d="M81 237L104 375L572 604L548 461L225 304L224 296L495 138L473 7L81 237Z" />
<glyph unicode="=" glyph-name="equal" d="M80 362L100 478H576L556 362H80ZM42 132L62 248H538L518 132H42Z" />
<glyph unicode="&gt;" glyph-name="greater" d="M69 151L393 308L394 316L122 473L144 604L537 375L514 237L45 6L69 151Z" />
<glyph unicode="?" glyph-name="question" d="M198 234L223 386Q308 390 353 413T407 490Q409 499 409 507T409 518Q409 552 386 569T328 586Q290 586 263 563T220 502L106 555Q119 587 140 615T192 664T261 697T350 710Q451 710 508 660T566 524Q566 478 550
441T505 375T438 329T356 305L344 234H198ZM237 -12Q190 -12 170 6T149 51Q149 57 150 66T155 99Q160 131 185 152T260 174Q307 174 327 156T348 111Q348 105 347 96T342 63Q337 31 312 10T237 -12Z" />
<glyph unicode="@" glyph-name="at" d="M404 -113H285Q151 -113 93 -42T35 170Q35 217 40 268T54 366Q67 438 91 500T153 609T244 683T372 710Q426 710 467 695T535 653T575 588T589 505Q589 494 588 482T585 455L524 91H411L425 173H421Q402 132 378 106T314
80Q257 80 234 120T210 234Q210 293 221 343T254 430T306 487T374 508Q412 508 435 487T463 428H467L473 463Q475 476 476 488T477 509Q477 568 448 592T366 616Q331 616 302 605T248 564T204 485T172 358L151 232Q147 209 146 187T145 147Q145 67 180 25T297 -18H419L404
-113ZM361 172Q377 172 389 180T410 200Q418 211 428 231T443 280L457 365Q461 389 449 406T410 423Q378 423 361 398T336 328L328 280Q327 274 327 266T326 250T325 234T325 223Q325 172 361 172Z" />
<glyph unicode="A" glyph-name="A" d="M400 0L383 169H187L118 0H-37L270 698H476L552 0H400ZM356 553H347L237 289H377L356 553Z" />
<glyph unicode="B" glyph-name="B" d="M152 698H389Q480 698 528 654T576 537Q576 391 431 355L430 350Q485 339 514 306T544 217Q544 168 528 128T480 60T405 16T305 0H35L152 698ZM273 104Q323 104 352 121T388 179L392 203Q394 212 395 222T397 238Q397 273
377 288T312 303H230L197 104H273ZM304 402Q357 402 384 417T419 478L423 502Q424 507 425 516T426 533Q426 567 405 580T343 594H279L247 402H304Z" />
<glyph unicode="C" glyph-name="C" d="M290 -12Q167 -12 109 58T50 254Q50 356 73 440T138 584T239 677T373 710Q431 710 473 695T544 653T586 588T604 505L461 476Q459 501 455 522T440 558T412 581T367 590Q305 590 272 541T225 408L207 299Q204 281 202 263T199
221Q199 168 222 138T300 108Q324 108 344 117T380 143T409 180T432 227L559 189Q518 91 455 40T290 -12Z" />
<glyph unicode="D" glyph-name="D" d="M142 698H347Q465 698 526 632T588 441Q588 338 566 256T502 117T396 30T252 0H25L142 698ZM255 117Q322 117 360 155T412 275L433 401Q436 419 437 437T439 469Q439 581 334 581H269L192 117H255Z" />
<glyph unicode="E" glyph-name="E" d="M38 0L155 698H601L581 576H281L254 414H540L520 292H233L205 122H504L484 0H38Z" />
<glyph unicode="F" glyph-name="F" d="M38 0L155 698H617L597 576H281L254 414H536L516 292H234L185 0H38Z" />
<glyph unicode="G" glyph-name="G" d="M390 101H381Q368 78 354 58T323 22T283 -3T230 -12Q144 -12 95 53T45 245Q45 344 65 429T126 577T227 674T368 710Q422 710 462 695T529 653T571 587T589 504L446 476Q444 498 440 519T425 555T398 580T355 590Q298 590
267 542T221 413L204 311Q201 293 199 269T196 224Q196 171 218 140T289 108Q342 108 372 141T410 219L418 267H295L312 372H566L504 0H373L390 101Z" />
<glyph unicode="H" glyph-name="H" d="M397 293H217L168 0H20L136 698H284L237 414H417L464 698H612L496 0H348L397 293Z" />
<glyph unicode="I" glyph-name="I" d="M32 0L50 110H201L281 588H130L148 698H598L580 588H429L349 110H500L482 0H32Z" />
<glyph unicode="J" glyph-name="J" d="M583 698L500 202Q464 -12 243 -12Q138 -12 85 42T29 185L168 211Q170 167 188 138T254 108Q294 108 319 132T353 206L415 576H181L201 698H583Z" />
<glyph unicode="K" glyph-name="K" d="M289 282L207 191L175 0H27L143 698H291L241 399H249L361 536L493 698H667L407 388L562 0H398L289 282Z" />
<glyph unicode="L" glyph-name="L" d="M51 0L167 698H315L219 122H521L501 0H51Z" />
<glyph unicode="M" glyph-name="M" d="M442 311L482 508H473L282 149L212 508H203L178 311L126 0H-2L115 698H284L332 461H341L467 698H635L518 0H390L442 311Z" />
<glyph unicode="N" glyph-name="N" d="M237 468H227L149 0H20L136 698H314L395 230H405L483 698H612L496 0H318L237 468Z" />
<glyph unicode="O" glyph-name="O" d="M279 -12Q216 -12 170 6T94 58T50 141T36 251Q36 340 53 423T109 569T206 671T349 710Q412 710 458 692T534 640T578 557T592 447Q592 358 575 275T519 129T422 27T279 -12ZM279 108Q342 108 371 155T415 288L435 408Q441
444 441 480Q441 532 419 561T349 590Q286 590 257 543T213 410L193 290Q187 254 187 218Q187 166 209 137T279 108Z" />
<glyph unicode="P" glyph-name="P" d="M37 0L154 698H406Q452 698 487 685T547 646T583 587T596 513Q596 453 579 406T529 325T450 274T347 256H228L185 0H37ZM248 376H326Q377 376 402 395T435 459L440 489Q441 494 441 501T442 516Q442 550 424 564T360 579H282L248
376Z" />
<glyph unicode="Q" glyph-name="Q" d="M406 -205Q368 -205 347 -188T308 -146L215 -6Q122 11 79 78T36 251Q36 340 53 423T109 569T206 671T349 710Q412 710 458 692T534 640T578 557T592 447Q592 369 579 296T537 163T464 59T357 -2L411 -84L427 -88L512 -4L588
-73L540 -126Q518 -150 501 -165T468 -190T438 -202T406 -205ZM279 108Q342 108 371 155T415 288L435 408Q441 444 441 480Q441 532 419 561T349 590Q286 590 257 543T213 410L193 290Q187 254 187 218Q187 166 209 137T279 108Z" />
<glyph unicode="R" glyph-name="R" d="M181 0H35L152 698H404Q450 698 485 685T545 647T581 588T594 512Q594 419 550 358T427 275L522 0H366L289 260H225L181 0ZM324 376Q378 376 402 394T433 456L437 480Q440 498 440 513Q440 548 419 563T361 579H278L244 376H324Z" />
<glyph unicode="S" glyph-name="S" d="M268 -12Q181 -12 113 16T12 95L105 189Q136 149 183 130T277 110Q334 110 363 137T393 213Q393 248 374 264T312 291L243 307Q167 324 133 370T98 482Q98 534 116 576T170 648T255 694T367 710Q442 710 503 684T594 612L497
523Q474 555 440 572T360 590Q305 590 278 565T251 498Q251 468 269 452T335 424L401 407Q547 370 547 230Q547 176 529 132T474 55T386 6T268 -12Z" />
<glyph unicode="T" glyph-name="T" d="M427 576L331 0H183L279 576H77L97 698H649L629 576H427Z" />
<glyph unicode="U" glyph-name="U" d="M275 698L202 260Q197 233 196 215T194 186Q194 148 212 128T277 108Q310 108 331 118T364 148T384 194T397 255L471 698H618L547 272Q535 202 519 149T472 60T393 6T269 -12Q207 -12 165 1T97 39T60 98T49 176Q49 202 52
230T60 291L128 698H275Z" />
<glyph unicode="V" glyph-name="V" d="M152 0L85 698H243L267 347L276 142H285L363 347L499 698H661L363 0H152Z" />
<glyph unicode="W" glyph-name="W" d="M10 0L84 698H211L163 280L146 136H155L282 546H417L411 136H420L447 274L540 698H661L502 0H312L327 386H317L200 0H10Z" />
<glyph unicode="X" glyph-name="X" d="M550 0H385L336 139L302 249H293L227 139L130 0H-33L223 361L94 698H260L299 587L332 475H340L410 587L488 698H650L413 359L550 0Z" />
<glyph unicode="Y" glyph-name="Y" d="M184 0L225 246L78 698H236L285 534L316 397H325L403 534L503 698H668L373 249L332 0H184Z" />
<glyph unicode="Z" glyph-name="Z" d="M507 0H8L30 130L417 576H113L133 698H612L591 568L204 122H527L507 0Z" />
<glyph unicode="[" glyph-name="bracketleft" d="M118 -138L268 760H588L572 662H369L252 -40H455L438 -138H118Z" />
<glyph unicode="\" glyph-name="backslash" d="M330 -138L161 760H280L449 -138H330Z" />
<glyph unicode="]" glyph-name="bracketright" d="M501 760L351 -138H31L47 -40H250L367 662H164L181 760H501Z" />
<glyph unicode="^" glyph-name="asciicircum" d="M459 256L353 562H342L144 252L34 304L289 698H445L578 304L459 256Z" />
<glyph unicode="_" glyph-name="underscore" d="M-12 -191L8 -72H483L463 -191H-12Z" />
<glyph unicode="`" glyph-name="grave" d="M179 747L303 806L380 610L293 571L179 747Z" />
<glyph unicode="a" glyph-name="a" d="M181 -12Q140 -12 113 2T69 43T45 108T38 193Q38 268 54 329T100 435T173 503T271 528Q330 528 358 500T398 420H405L421 516H567L499 107H552L534 0H459Q402 0 374 28T353 110L355 123H350Q335 93 320 69T285 26T240 -2T181
-12ZM247 101Q273 101 294 114T332 149Q343 163 357 189T376 247L390 330Q397 371 381 393T317 415Q262 415 236 384T200 293L190 233Q188 224 187 213T186 187Q186 151 199 126T247 101Z" />
<glyph unicode="b" glyph-name="b" d="M144 740H290L233 393H238Q253 423 269 447T306 490T352 518T411 528Q452 528 480 514T527 474T553 410T562 328Q562 251 545 189T497 82T423 13T325 -12Q264 -12 233 16T190 96H183L167 0H21L144 740ZM278 101Q332 101 361
132T400 223L410 283Q412 292 413 303T414 328Q413 365 399 390T346 415Q319 415 298 402T259 366Q247 352 232 327T212 269L198 186Q191 145 210 123T278 101Z" />
<glyph unicode="c" glyph-name="c" d="M273 -12Q167 -12 112 45T57 206Q57 272 76 330T131 433T220 502T343 528Q432 528 479 492T543 397L424 341Q413 373 394 392T331 411Q288 411 259 383T220 301L210 241Q208 232 207 219T206 194Q206 154 226 130T297 105Q313
105 327 108T357 124T394 157T442 215L533 156Q507 115 481 84T424 32T356 -1T273 -12Z" />
<glyph unicode="d" glyph-name="d" d="M367 123H362Q347 93 331 69T294 26T248 -2T189 -12Q148 -12 120 2T73 42T47 106T38 188Q38 265 55 327T103 434T177 503T275 528Q336 528 367 500T410 420H417L470 740H616L493 0H347L367 123ZM254 101Q281 101 302 114T341
150Q353 164 368 189T388 247L402 330Q409 371 390 393T322 415Q268 415 239 384T200 293L190 233Q188 224 187 213T186 188Q187 151 201 126T254 101Z" />
<glyph unicode="e" glyph-name="e" d="M281 -12Q166 -12 111 46T56 208Q56 280 78 339T139 440T235 505T360 528Q399 528 433 519T494 493T535 449T550 386Q550 355 537 324T487 268T381 225T202 203Q201 197 201 194T201 186Q201 144 224 122T300 100Q321 100
338 104T372 118T405 145T442 188L533 129Q513 100 490 75T436 30T368 -1T281 -12ZM345 425Q297 425 263 397T215 301L212 287Q281 291 320 300T379 321T404 347T409 373Q409 425 345 425Z" />
<glyph unicode="f" glyph-name="f" d="M173 -212Q146 -212 124 -203T83 -178T46 -140T9 -89L-32 -30L68 39L171 -97L183 -92L265 402H102L121 516H284L297 594Q308 659 351 699T475 740H653L634 626H448L430 516H616L597 402H410L334 -53Q320 -137 278 -174T173 -212Z" />
<glyph unicode="g" glyph-name="g" d="M224 -212Q152 -212 102 -197T13 -136L100 -46Q124 -75 154 -87T220 -99Q248 -99 270 -93T309 -70T339 -23T359 54L374 143H368Q354 113 338 89T301 46T255 18T196 8Q154 8 125 23T77 65T50 128T41 208Q41 278 57 337T103
438T177 504T275 528Q338 528 369 500T411 420H419L435 516H581L501 36Q480 -90 410 -151T224 -212ZM260 122Q287 122 307 134T345 168Q357 182 372 206T394 266L405 333Q411 369 393 392T325 415Q269 415 240 381T202 293L195 251Q193 242 192 230T191 202Q191
169 206 146T260 122Z" />
<glyph unicode="h" glyph-name="h" d="M148 740H294L237 393H242Q271 456 309 492T410 528Q448 528 474 516T518 484T543 436T551 379Q551 357 549 334T540 275L494 0H348L397 293Q399 307 401 321T404 355Q404 365 401 376T391 396T373 410T344 416Q318 416 299
404T263 369Q252 354 237 328T216 269L171 0H25L148 740Z" />
<glyph unicode="i" glyph-name="i" d="M339 584Q294 584 276 601T257 645Q257 650 258 658T262 685Q267 717 289 734T356 751Q401 751 419 734T438 690Q438 685 437 677T433 650Q428 618 406 601T339 584ZM298 -12Q236 -12 205 20T174 108Q174 125 176 141T184
188L224 402H68L87 516H391L314 106L331 101L471 244L551 173L490 103Q439 46 395 17T298 -12Z" />
<glyph unicode="j" glyph-name="j" d="M216 -212Q186 -212 163 -203T120 -174T79 -128T36 -65L4 -15L104 54L217 -101L230 -96L313 402H124L143 516H478L386 -37Q370 -131 329 -171T216 -212ZM422 584Q377 584 359 601T340 645Q340 650 341 658T345 685Q350 717
372 734T439 751Q484 751 502 734T521 690Q521 685 520 677T516 650Q511 618 489 601T422 584Z" />
<glyph unicode="k" glyph-name="k" d="M147 740H293L236 393H242Q268 451 311 489T420 528Q484 528 519 493T554 406Q554 334 509 289T377 218L419 108L434 105L516 185L586 116L534 60Q502 25 468 7T394 -12Q346 -12 319 15T275 90L225 227Q315 253 361 283T408
361Q408 387 391 403T341 419Q322 419 303 410T261 371Q246 352 234 329T215 269L170 0H24L147 740Z" />
<glyph unicode="l" glyph-name="l" d="M270 -12Q208 -12 178 20T148 108Q148 125 150 141T158 188L239 626H87L106 740H405L288 106L303 101L443 244L523 173L462 103Q411 46 367 17T270 -12Z" />
<glyph unicode="m" glyph-name="m" d="M-12 0L74 516H192L177 426H183Q200 471 228 499T297 528Q337 528 358 503T375 426H380Q389 448 401 466T428 498T461 520T504 528Q592 528 592 432Q592 415 590 395T585 356L526 0H408L465 341Q467 350 468 361T469 382Q469
400 462 410T440 421Q427 421 416 415T393 389Q384 374 379 357T368 312L316 0H198L255 341Q257 350 258 361T259 383Q259 421 230 421Q219 421 208 415T184 389Q173 372 168 355T160 324L106 0H-12Z" />
<glyph unicode="n" glyph-name="n" d="M25 0L111 516H257L237 393H242Q271 456 309 492T410 528Q448 528 474 516T518 484T543 436T551 379Q551 357 549 334T540 275L494 0H348L397 293Q399 307 401 321T404 355Q404 365 401 376T391 396T373 410T344 416Q318
416 299 404T263 369Q252 354 237 328T216 269L171 0H25Z" />
<glyph unicode="o" glyph-name="o" d="M265 -12Q159 -12 101 47T43 210Q43 284 64 343T124 443T216 506T335 528Q441 528 499 469T557 306Q557 232 536 173T476 73T384 10T265 -12ZM276 97Q324 97 354 126T394 209L407 287Q409 296 410 307T412 328Q412 374 389
396T324 419Q276 419 246 390T206 307L193 229Q191 220 190 209T188 188Q188 142 211 120T276 97Z" />
<glyph unicode="p" glyph-name="p" d="M107 516H253L233 393H238Q253 423 269 447T306 490T352 518T411 528Q452 528 480 514T527 474T553 410T562 328Q562 251 545 189T497 82T423 13T325 -12Q264 -12 233 16T190 96H183L133 -200H-13L107 516ZM278 101Q332 101
361 132T400 223L410 283Q412 292 413 303T414 328Q413 365 399 390T346 415Q319 415 298 402T259 366Q247 352 232 327T212 269L198 186Q191 145 210 123T278 101Z" />
<glyph unicode="q" glyph-name="q" d="M367 123H362Q347 93 331 69T294 26T248 -2T189 -12Q148 -12 120 2T73 42T47 106T38 188Q38 265 55 327T103 434T177 503T275 528Q336 528 367 500T410 420H417L433 516H579L460 -200H314L367 123ZM254 101Q281 101 302 114T341
150Q353 164 368 189T388 247L402 330Q409 371 390 393T322 415Q268 415 239 384T200 293L190 233Q188 224 187 213T186 188Q187 151 201 126T254 101Z" />
<glyph unicode="r" glyph-name="r" d="M146 0L213 402H95L114 516H378L351 360H357Q389 434 438 475T563 516H597L571 370H480Q439 370 415 359T372 325Q362 313 349 288T331 236L292 0H146Z" />
<glyph unicode="s" glyph-name="s" d="M258 -12Q180 -12 124 9T41 72L123 153Q145 122 183 107T268 91Q313 91 339 105T366 148Q366 169 351 178T313 193L239 209Q210 215 185 225T140 251T111 292T100 350Q100 393 117 426T166 482T241 516T334 528Q403 528 458
509T539 455L459 373Q442 395 408 410T330 425Q291 425 268 411T244 369Q244 348 257 340T295 326L372 309Q437 295 474 264T511 170Q511 127 493 94T442 37T363 1T258 -12Z" />
<glyph unicode="t" glyph-name="t" d="M278 -12Q212 -12 182 23T151 116Q151 130 152 144T158 182L195 402H63L82 516H165Q197 516 213 529T235 576L255 698H391L361 516H563L544 402H342L294 114L314 107L470 230L542 148L482 96Q450 69 424 49T375 15T328 -5T278 -12Z" />
<glyph unicode="u" glyph-name="u" d="M362 123H357Q328 60 290 24T189 -12Q151 -12 125 0T81 32T56 80T48 137Q48 159 50 182T59 241L105 516H251L202 224Q200 210 198 195T195 161Q195 151 198 140T208 120T226 106T255 100Q281 100 300 112T336 147Q347 162
362 188T383 247L428 516H574L488 0H342L362 123Z" />
<glyph unicode="v" glyph-name="v" d="M286 516L221 96L233 88Q281 105 314 133T367 195T397 269T406 350Q406 384 397 417T372 480L502 528Q528 496 540 451T553 350Q553 273 524 207T447 93T338 16T211 -12Q147 -12 116 21T84 111Q84 128 85 140T90 172L125
402H36L55 516H286Z" />
<glyph unicode="w" glyph-name="w" d="M108 -12Q58 -12 36 18T13 97Q13 111 15 139T22 192L76 516H194L133 187Q131 179 130 165T129 142Q129 126 136 117T160 107Q175 107 187 117T211 146Q218 157 223 173T231 206L279 516H392L338 182Q336 174 335 160T333
139Q333 125 339 114T363 103Q381 103 399 125T430 183T452 267T461 366Q461 401 457 435T443 494L545 524Q560 496 569 456T579 365Q579 275 556 199T491 72Q459 31 419 10T337 -12Q310 -12 292 -3T262 21T246 56T242 98H235Q199 -12 108 -12Z" />
<glyph unicode="x" glyph-name="x" d="M106 -12Q55 -12 26 24T-4 129Q-4 147 -4 155T-2 173L114 187V176Q114 133 121 114T150 94Q167 94 180 108T203 146T220 199T231 260T237 320T239 373Q239 385 239 395T237 417L225 422L94 331L33 412L104 465Q142 494 176
511T247 528Q301 528 327 492T353 390V375H360Q382 458 415 493T497 528Q546 528 575 490T605 390Q605 375 605 363T604 343L488 329V345Q488 383 480 402T451 422Q425 422 409 394T382 324T368 235T364 149Q364 135 364 123T366 100L378 94L512 187L573 110L522
65Q476 24 436 6T359 -12Q311 -12 282 23T253 139H246Q225 57 191 23T106 -12Z" />
<glyph unicode="y" glyph-name="y" d="M217 -212Q145 -212 95 -197T6 -136L93 -46Q117 -75 147 -87T213 -99Q241 -99 263 -93T302 -69T331 -23T351 54L365 140H360Q331 77 293 41T192 5Q154 5 128 17T84 49T59 97T51 154Q51 176 53 199T62 258L105 516H251L205
241Q203 227 201 212T198 178Q198 168 201 157T211 137T229 123T258 117Q284 117 303 129T339 164Q350 179 365 205T386 264L428 516H574L494 36Q473 -90 403 -151T217 -212Z" />
<glyph unicode="z" glyph-name="z" d="M414 -12Q378 -12 340 -5T260 24L159 76L155 73L143 0H18L38 120L358 374Q329 397 304 406T247 415Q221 415 202 399T183 339H75V348Q75 435 119 481T238 528Q285 528 334 510T436 440L438 438L444 443L456 516H581L561 396L237
138L433 101L444 114L414 202L499 239L514 212Q531 183 537 160T544 114Q544 90 535 67T510 27T469 -1T414 -12Z" />
<glyph unicode="{" glyph-name="braceleft" d="M115 360H204Q261 360 291 376T322 425Q322 450 302 480Q288 501 277 523T265 579Q265 584 266 594T269 616T272 638T275 653Q283 701 316 730T417 760H594L577 662H394Q388 626 386 612T384 589Q384 564 390 550T409
515Q420 497 430 476T440 429Q440 382 408 353T306 315L304 307Q406 295 406 222Q406 204 400 188T385 159T365 132T341 107Q322 87 307 67T285 9L277 -40H460L444 -138H268Q209 -138 184 -115T159 -55Q159 -49 160 -35T169 15Q174 40 182 59T201 93T223 119T245
142Q271 168 279 183T287 213Q287 262 188 262H99L115 360Z" />
<glyph unicode="|" glyph-name="bar" d="M173 -138L323 760H447L297 -138H173Z" />
<glyph unicode="}" glyph-name="braceright" d="M414 262Q357 262 327 246T296 197Q296 172 316 142Q330 121 341 99T353 43Q353 38 352 28T349 6T346 -16T343 -31Q335 -79 302 -108T201 -138H24L41 -40H224Q230 -4 232 10T234 33Q234 58 228 72T209 107Q198 125
188 146T178 193Q178 240 210 269T312 307L314 315Q212 327 212 400Q212 418 218 434T233 463T253 490T277 515Q296 535 311 555T333 613L341 662H158L174 760H350Q409 760 434 737T459 677Q459 671 458 657T449 607Q444 582 436 563T417 529T395 502T373 480Q347
454 339 439T331 409Q331 360 430 360H519L503 262H414Z" />
<glyph unicode="~" glyph-name="asciitilde" d="M394 173Q354 173 323 190T268 245Q247 280 235 296T203 313Q158 313 122 185L19 206Q30 256 47 297T89 370T145 418T213 436Q253 436 284 419T339 364Q360 329 372 313T404 296Q449 296 485 424L588 403Q577 353
560 312T518 239T462 191T394 173Z" />
<glyph unicode="&#xa0;" glyph-name="uni00A0" />
<glyph unicode="&#xa1;" glyph-name="exclamdown" d="M143 -182L177 21L273 274H326L338 21L304 -182H143ZM315 342Q268 342 248 360T227 405Q227 411 228 420T233 453Q238 485 263 506T338 528Q385 528 405 510T426 465Q426 459 425 450T420 417Q415 385 390
364T315 342Z" />
<glyph unicode="&#xa2;" glyph-name="cent" d="M216 -6Q138 11 98 64T57 206Q57 267 73 322T121 420T199 491T305 526L322 630H434L416 521Q473 508 507 476T555 399L444 353Q436 375 424 390T389 414L337 100Q358 107 382 127T443 196L529 144Q488 78 442 40T327
-9L310 -114H198L216 -6ZM197 194Q197 162 208 139T244 105L296 416Q262 405 240 376T211 302L201 240Q199 228 198 217T197 194Z" />
<glyph unicode="&#xa3;" glyph-name="sterling" d="M472 -12Q437 -12 399 -3T317 24L165 82L153 0H28L50 141Q100 161 129 193T158 278Q158 283 158 287T157 296H50L67 397H141Q138 414 136 433T133 473Q133 525 153 569T209 644T292 692T394 710Q471 710 524
677T610 583L496 512Q479 546 454 564T390 583Q340 583 308 554T276 465Q276 447 278 431T285 397H462L445 296H304V288Q304 249 279 227T221 195L217 188L454 114L465 127L448 216L547 242L557 212Q568 177 573 155T578 109Q578 86 571 64T551 25T517 -2T472 -12Z"
/>
<glyph unicode="&#xa4;" glyph-name="currency" d="M286 107Q233 107 193 122L112 16L18 77L105 192Q90 215 82 243T74 306Q74 317 75 329T78 356Q86 409 105 449T153 518L107 625L211 682L255 579Q295 591 345 591Q397 591 438 576L519 682L613 621L526 506Q541
483 549 455T557 392Q557 381 556 369T553 342Q545 289 526 249T478 180L524 73L420 16L376 119Q335 107 286 107ZM293 212Q335 212 364 241T402 321L411 375Q414 391 414 406Q414 444 394 465T338 486Q296 486 267 457T229 377L220 323Q217 306 217 292Q217 254
237 233T293 212Z" />
<glyph unicode="&#xa5;" glyph-name="yen" d="M38 112H207L223 212H55L74 324H201L75 698H225L314 391H322L514 698H673L423 324H551L532 212H363L347 112H516L497 0H19L38 112Z" />
<glyph unicode="&#xa6;" glyph-name="brokenbar" d="M263 400L323 760H447L387 400H263ZM173 -138L233 221H357L297 -138H173Z" />
<glyph unicode="&#xa7;" glyph-name="section" d="M464 14Q464 -28 450 -62T407 -122T336 -162T239 -176Q181 -176 125 -159T31 -104L109 -16Q131 -42 166 -56T240 -71Q279 -71 308 -53T337 -5Q337 17 322 32T259 65L187 90Q119 113 87 146T55 221Q55 281 89 319T197
376L199 389Q163 416 147 450T130 520Q130 562 144 596T187 656T258 696T355 710Q413 710 469 693T563 638L485 550Q463 576 428 590T354 605Q315 605 286 587T257 539Q257 517 272 502T335 469L407 444Q475 421 507 388T539 313Q539 253 505 215T397 158L395 145Q431
118 447 84T464 14ZM410 255Q410 277 395 299T339 334L266 357Q256 360 244 365Q209 342 197 323T184 279Q184 257 199 235T255 200L328 177Q338 174 350 169Q385 192 397 211T410 255Z" />
<glyph unicode="&#xa8;" glyph-name="dieresis" d="M208 592Q167 592 151 607T134 646Q134 651 135 659T139 681Q144 708 162 724T224 741Q265 741 281 726T298 687Q298 682 297 674T293 652Q288 625 270 609T208 592ZM426 592Q385 592 369 607T352 646Q352 651
353 659T357 681Q362 708 380 724T442 741Q483 741 499 726T516 687Q516 682 515 674T511 652Q506 625 488 609T426 592Z" />
<glyph unicode="&#xa9;" glyph-name="copyright" d="M271 18Q214 18 166 37T84 93T30 182T11 300Q11 384 37 454T108 574T217 652T356 680Q413 680 460 661T542 605T596 516T616 398Q616 314 590 244T519 124T410 46T271 18ZM276 72Q328 72 373 89T453 137T512
212T545 309Q552 350 554 368T556 398Q556 442 545 483T509 556T445 607T351 626Q299 626 254 609T174 561T115 486T82 389Q74 348 73 330T71 300Q71 256 82 215T118 142T182 91T276 72ZM296 153Q221 153 176 198T131 319Q131 364 146 404T189 476T254 526T337
545Q404 545 437 516T486 441L396 400Q391 423 377 437T336 452Q307 452 288 434T263 386L252 321Q251 315 251 310T250 299Q250 276 264 261T305 246Q331 246 349 261T382 298L463 255Q451 235 436 217T400 184T354 162T296 153Z" />
<glyph unicode="&#xaa;" glyph-name="ordfeminine" d="M366 341L376 404H368Q336 333 263 333Q215 333 185 357T155 425Q155 488 201 519T337 551H394L397 569Q398 574 398 578T399 588Q399 611 383 623T339 635Q307 635 287 623T248 590L200 645Q221 672 258
691T356 710Q422 710 462 683T502 600Q502 593 502 586T500 569L462 341H366ZM331 495Q299 495 280 484T258 452Q256 444 256 440T256 434Q256 417 269 409T306 400Q333 400 353 413T378 452L385 495H331Z" />
<glyph unicode="&#xab;" glyph-name="guillemotleft" d="M477 43L307 211L329 341L543 501L582 409L430 268L536 130L477 43ZM464 43L294 211L316 341L530 501L569 409L417 268L523 130L464 43Z" />
<glyph unicode="&#xac;" glyph-name="logicalnot" d="M370 55L402 247H61L81 363H541L489 55H370Z" />
<glyph unicode="&#xad;" glyph-name="uni00AD" d="M139 235L162 375H479L456 235H139Z" />
<glyph unicode="&#xae;" glyph-name="registered" d="M310 346Q275 346 245 357T193 390T159 440T146 507Q146 548 161 585T204 649T268 693T350 710Q385 710 415 699T467 666T501 616T514 549Q514 508 499 471T456 406T392 362T310 346ZM311 386Q371 386 411
419T462 511Q464 525 465 534T467 550Q467 602 439 636T349 670Q289 670 249 637T198 545Q196 531 195 522T193 506Q193 454 221 420T311 386ZM293 438H237L268 623H360Q392 623 407 609T422 571Q422 545 410 528T377 503L406 438H345L324 493H302L293 438ZM333
533Q359 533 362 553Q363 559 363 561T363 564Q363 580 341 580H317L309 533H333Z" />
<glyph unicode="&#xaf;" glyph-name="overscore" d="M181 718H486L469 616H164L181 718Z" />
<glyph unicode="&#xb0;" glyph-name="degree" d="M326 335Q288 335 257 348T203 383T168 437T156 505Q156 549 172 586T217 651T284 694T367 710Q405 710 436 697T490 662T525 608T537 540Q537 496 521 459T476 394T409 351T326 335ZM334 428Q357 428 376 437T408
461T428 496T435 539Q435 571 415 594T359 617Q336 617 317 608T285 584T265 549T258 506Q258 474 278 451T334 428Z" />
<glyph unicode="&#xb1;" glyph-name="plusminus" d="M226 183L254 350H78L98 466H273L301 633H427L399 466H574L554 350H380L352 183H226ZM20 0L40 116H516L496 0H20Z" />
<glyph unicode="&#xb2;" glyph-name="twosuperior" d="M453 329H172L186 413L324 505Q332 510 342 517T362 532T379 551T389 573Q390 578 390 581T391 589Q391 606 379 614T350 623Q325 623 311 608T291 576L208 607Q226 647 261 675T357 704Q415 704 454 675T493
593Q493 546 461 514T371 448L303 408H466L453 329Z" />
<glyph unicode="&#xb3;" glyph-name="threesuperior" d="M327 556Q359 556 372 565T388 584Q389 589 389 592T390 598Q390 612 378 620T345 628Q325 628 307 618T269 585L215 645Q242 673 275 688T357 704Q420 704 455 679T490 610Q490 579 470 555T403 522V520Q470
505 470 441Q470 391 429 357T311 323Q251 323 218 344T171 396L239 445Q248 425 264 412T310 399Q331 399 347 408T366 435Q367 440 367 443T368 449Q368 479 319 479H279L292 556H327Z" />
<glyph unicode="&#xb4;" glyph-name="acute" d="M323 570L237 616L352 806L466 746L323 570Z" />
<glyph unicode="&#xb5;" glyph-name="mu" d="M-9 -200L111 516H257L206 212Q203 192 203 175Q203 101 267 101Q288 101 309 112T347 144Q361 161 370 182T384 228L432 516H578L492 0H346L366 116H360Q338 57 304 23T219 -12Q199 -12 182 -4T153 30H147L153 -101L137
-200H-9Z" />
<glyph unicode="&#xb6;" glyph-name="paragraph" d="M257 246Q217 246 183 259T124 297T84 357T69 438Q69 495 91 543T149 625T233 679T332 699H635L494 -148H378L500 585H429L307 -148H191L257 246Z" />
<glyph unicode="&#xb7;" glyph-name="middot" d="M295 207Q245 207 224 226T203 274Q203 289 209 325Q214 357 241 381T324 405Q374 405 395 386T416 338Q416 323 410 287Q405 255 378 231T295 207Z" />
<glyph unicode="&#xb8;" glyph-name="cedilla" d="M285 -212Q240 -212 211 -199T167 -166L218 -113Q226 -122 241 -131T282 -141Q301 -141 315 -134T329 -112Q329 -101 316 -91T261 -76L238 -74L278 30H345L314 -55L317 -59Q338 -52 358 -52Q385 -52 405 -66T425
-114Q425 -137 414 -155T385 -186T341 -205T285 -212Z" />
<glyph unicode="&#xb9;" glyph-name="onesuperior" d="M204 329L217 405H298L332 608L253 570L223 641L343 698H444L395 405H467L454 329H204Z" />
<glyph unicode="&#xba;" glyph-name="ordmasculine" d="M320 333Q243 333 203 374T162 486Q162 537 176 578T218 648T283 694T370 710Q447 710 487 669T528 557Q528 506 514 465T472 395T407 349T320 333ZM330 409Q363 409 385 432T414 491L424 551Q425 556 425
561T426 572Q426 602 409 618T360 634Q327 634 305 611T276 552L266 492Q265 487 265 482T264 471Q264 441 281 425T330 409Z" />
<glyph unicode="&#xbb;" glyph-name="guillemotright" d="M31 135L183 276L77 414L136 501L306 333L284 203L70 43L31 135ZM274 135L426 276L320 414L379 501L549 333L527 203L313 43L274 135Z" />
<glyph unicode="&#xbc;" glyph-name="onequarter" d="M65 432H151L183 624L100 585L78 645L189 698H283L239 432H314L303 363H54L65 432ZM568 698H674L451 398H345L568 698ZM181 300H287L64 0H-42L181 300ZM429 63H276L288 137L452 335H558L523 124H567L557 63H513L503
0H419L429 63ZM439 124L460 250H455L351 124H439Z" />
<glyph unicode="&#xbd;" glyph-name="onehalf" d="M65 432H151L183 624L100 585L78 645L189 698H283L239 432H314L303 363H54L65 432ZM568 698H674L451 398H345L568 698ZM181 300H287L64 0H-42L181 300ZM291 75L411 155Q452 182 467 199T484 230Q485 235 485 237T485
242Q485 256 473 264T445 273Q423 273 407 259T380 224L312 254Q329 290 362 315T454 341Q514 341 545 314T576 248Q576 222 564 202T533 164T492 133T449 106L386 67H552L541 0H279L291 75Z" />
<glyph unicode="&#xbe;" glyph-name="threequarters" d="M174 357Q120 357 90 376T43 426L105 462Q112 444 129 434T175 423Q201 423 213 431T228 454Q229 459 229 463T230 471Q230 486 215 494T176 503H149L160 566H191Q220 566 233 574T248 597Q249 602 249
605T250 611Q250 623 239 630T208 638Q185 638 165 627T127 597L83 647Q112 674 143 689T219 704Q277 704 310 681T344 619Q344 587 321 565T259 537L258 533Q293 530 308 511T324 464Q324 417 284 387T174 357ZM568 698H674L451 398H345L568 698ZM181 300H287L64
0H-42L181 300ZM429 63H276L288 137L452 335H558L523 124H567L557 63H513L503 0H419L429 63ZM439 124L460 250H455L351 124H439Z" />
<glyph unicode="&#xbf;" glyph-name="questiondown" d="M244 -194Q143 -194 86 -144T28 -8Q28 38 44 75T89 141T156 187T238 211L250 282H396L371 130Q286 126 241 103T187 26Q185 17 185 9T185 -2Q185 -36 208 -53T266 -70Q304 -70 331 -47T374 14L488 -39Q475
-71 454 -99T402 -148T333 -181T244 -194ZM334 342Q287 342 267 360T246 405Q246 411 247 420T252 453Q257 485 282 506T357 528Q404 528 424 510T445 465Q445 459 444 450T439 417Q434 385 409 364T334 342Z" />
<glyph unicode="&#xc0;" glyph-name="Agrave" d="M400 0L383 169H187L118 0H-37L270 698H476L552 0H400ZM356 553H347L237 289H377L356 553ZM247 917L371 976L448 780L361 741L247 917Z" />
<glyph unicode="&#xc1;" glyph-name="Aacute" d="M400 0L383 169H187L118 0H-37L270 698H476L552 0H400ZM356 553H347L237 289H377L356 553ZM391 740L305 786L420 976L534 916L391 740Z" />
<glyph unicode="&#xc2;" glyph-name="Acircumflex" d="M400 0L383 169H187L118 0H-37L270 698H476L552 0H400ZM356 553H347L237 289H377L356 553ZM471 955L579 797L503 740L397 855L263 740L193 797L347 955H471Z" />
<glyph unicode="&#xc3;" glyph-name="Atilde" d="M400 0L383 169H187L118 0H-37L270 698H476L552 0H400ZM356 553H347L237 289H377L356 553ZM457 762Q434 762 418 768T384 783Q364 792 347 798T309 805Q292 805 278 799T246 780L206 847Q228 874 259 892T330 911Q353
911 369 905T403 890Q423 881 440 875T478 868Q495 868 509 874T541 893L581 826Q559 799 528 781T457 762Z" />
<glyph unicode="&#xc4;" glyph-name="Adieresis" d="M400 0L383 169H187L118 0H-37L270 698H476L552 0H400ZM356 553H347L237 289H377L356 553ZM276 762Q235 762 219 777T202 816Q202 821 203 828T207 852Q212 878 230 894T292 911Q333 911 349 896T366 857Q366
852 365 845T361 821Q356 795 338 779T276 762ZM494 762Q453 762 437 777T420 816Q420 821 421 828T425 852Q430 878 448 894T510 911Q551 911 567 896T584 857Q584 852 583 845T579 821Q574 795 556 779T494 762Z" />
<glyph unicode="&#xc5;" glyph-name="Aring" d="M400 0L383 169H187L118 0H-37L270 698H476L552 0H400ZM356 553H347L237 289H377L356 553ZM377 720Q350 720 326 729T285 755T257 795T247 844Q247 879 260 908T296 959T349 992T415 1004Q442 1004 466 995T507
969T535 929T545 880Q545 845 532 816T496 765T442 732T377 720ZM385 794Q411 794 425 808T444 845Q447 863 448 872T450 890Q450 930 407 930Q381 930 367 916T348 879Q345 861 344 852T342 834Q342 794 385 794Z" />
<glyph unicode="&#xc6;" glyph-name="AE" d="M308 169H204L141 0H-3L273 698H688L670 588H514L484 408H629L611 298H466L434 110H589L571 0H280L308 169ZM357 595L243 279H327L380 595H357Z" />
<glyph unicode="&#xc7;" glyph-name="Ccedilla" d="M367 590Q305 590 272 541T225 408L207 299Q204 281 202 263T199 221Q199 168 222 138T300 108Q324 108 344 117T380 143T409 180T432 227L559 189Q521 99 465 48T323 -11L307 -55L310 -59Q331 -52 352 -52Q380
-52 399 -67T418 -110Q418 -161 377 -186T275 -212Q233 -212 204 -199T160 -166L211 -113Q219 -122 234 -131T272 -141Q294 -141 308 -134T322 -112Q322 -99 308 -90T254 -76L231 -74L255 -11Q150 0 100 69T50 254Q50 356 73 440T138 584T239 677T373 710Q431 710
473 695T544 653T586 588T604 505L461 476Q459 501 455 522T440 558T412 581T367 590Z" />
<glyph unicode="&#xc8;" glyph-name="Egrave" d="M38 0L155 698H601L581 576H281L254 414H540L520 292H233L205 122H504L484 0H38ZM250 917L374 976L451 780L364 741L250 917Z" />
<glyph unicode="&#xc9;" glyph-name="Eacute" d="M38 0L155 698H601L581 576H281L254 414H540L520 292H233L205 122H504L484 0H38ZM394 740L308 786L423 976L537 916L394 740Z" />
<glyph unicode="&#xca;" glyph-name="Ecircumflex" d="M38 0L155 698H601L581 576H281L254 414H540L520 292H233L205 122H504L484 0H38ZM474 955L582 797L506 740L400 855L266 740L196 797L350 955H474Z" />
<glyph unicode="&#xcb;" glyph-name="Edieresis" d="M38 0L155 698H601L581 576H281L254 414H540L520 292H233L205 122H504L484 0H38ZM279 762Q238 762 222 777T205 816Q205 821 206 828T210 852Q215 878 233 894T295 911Q336 911 352 896T369 857Q369 852 368
845T364 821Q359 795 341 779T279 762ZM497 762Q456 762 440 777T423 816Q423 821 424 828T428 852Q433 878 451 894T513 911Q554 911 570 896T587 857Q587 852 586 845T582 821Q577 795 559 779T497 762Z" />
<glyph unicode="&#xcc;" glyph-name="Igrave" d="M32 0L50 110H201L281 588H130L148 698H598L580 588H429L349 110H500L482 0H32ZM251 917L375 976L452 780L365 741L251 917Z" />
<glyph unicode="&#xcd;" glyph-name="Iacute" d="M32 0L50 110H201L281 588H130L148 698H598L580 588H429L349 110H500L482 0H32ZM395 740L309 786L424 976L538 916L395 740Z" />
<glyph unicode="&#xce;" glyph-name="Icircumflex" d="M32 0L50 110H201L281 588H130L148 698H598L580 588H429L349 110H500L482 0H32ZM475 955L583 797L507 740L401 855L267 740L197 797L351 955H475Z" />
<glyph unicode="&#xcf;" glyph-name="Idieresis" d="M32 0L50 110H201L281 588H130L148 698H598L580 588H429L349 110H500L482 0H32ZM280 762Q239 762 223 777T206 816Q206 821 207 828T211 852Q216 878 234 894T296 911Q337 911 353 896T370 857Q370 852 369
845T365 821Q360 795 342 779T280 762ZM498 762Q457 762 441 777T424 816Q424 821 425 828T429 852Q434 878 452 894T514 911Q555 911 571 896T588 857Q588 852 587 845T583 821Q578 795 560 779T498 762Z" />
<glyph unicode="&#xd0;" glyph-name="Eth" d="M77 312H20L39 424H97L142 698H347Q465 698 526 632T588 441Q588 338 566 256T502 117T396 30T252 0H25L77 312ZM255 117Q322 117 360 155T412 275L433 401Q436 419 437 437T439 469Q439 581 334 581H269L242 419H352L335
317H225L192 117H255Z" />
<glyph unicode="&#xd1;" glyph-name="Ntilde" d="M237 468H227L149 0H20L136 698H314L395 230H405L483 698H612L496 0H318L237 468ZM461 762Q438 762 422 768T388 783Q368 792 351 798T313 805Q296 805 282 799T250 780L210 847Q232 874 263 892T334 911Q357 911
373 905T407 890Q427 881 444 875T482 868Q499 868 513 874T545 893L585 826Q563 799 532 781T461 762Z" />
<glyph unicode="&#xd2;" glyph-name="Ograve" d="M279 -12Q216 -12 170 6T94 58T50 141T36 251Q36 340 53 423T109 569T206 671T349 710Q412 710 458 692T534 640T578 557T592 447Q592 358 575 275T519 129T422 27T279 -12ZM279 108Q342 108 371 155T415 288L435
408Q441 444 441 480Q441 532 419 561T349 590Q286 590 257 543T213 410L193 290Q187 254 187 218Q187 166 209 137T279 108ZM235 917L359 976L436 780L349 741L235 917Z" />
<glyph unicode="&#xd3;" glyph-name="Oacute" d="M279 -12Q216 -12 170 6T94 58T50 141T36 251Q36 340 53 423T109 569T206 671T349 710Q412 710 458 692T534 640T578 557T592 447Q592 358 575 275T519 129T422 27T279 -12ZM279 108Q342 108 371 155T415 288L435
408Q441 444 441 480Q441 532 419 561T349 590Q286 590 257 543T213 410L193 290Q187 254 187 218Q187 166 209 137T279 108ZM379 740L293 786L408 976L522 916L379 740Z" />
<glyph unicode="&#xd4;" glyph-name="Ocircumflex" d="M279 -12Q216 -12 170 6T94 58T50 141T36 251Q36 340 53 423T109 569T206 671T349 710Q412 710 458 692T534 640T578 557T592 447Q592 358 575 275T519 129T422 27T279 -12ZM279 108Q342 108 371 155T415
288L435 408Q441 444 441 480Q441 532 419 561T349 590Q286 590 257 543T213 410L193 290Q187 254 187 218Q187 166 209 137T279 108ZM459 955L567 797L491 740L385 855L251 740L181 797L335 955H459Z" />
<glyph unicode="&#xd5;" glyph-name="Otilde" d="M279 -12Q216 -12 170 6T94 58T50 141T36 251Q36 340 53 423T109 569T206 671T349 710Q412 710 458 692T534 640T578 557T592 447Q592 358 575 275T519 129T422 27T279 -12ZM279 108Q342 108 371 155T415 288L435
408Q441 444 441 480Q441 532 419 561T349 590Q286 590 257 543T213 410L193 290Q187 254 187 218Q187 166 209 137T279 108ZM445 762Q422 762 406 768T372 783Q352 792 335 798T297 805Q280 805 266 799T234 780L194 847Q216 874 247 892T318 911Q341 911 357
905T391 890Q411 881 428 875T466 868Q483 868 497 874T529 893L569 826Q547 799 516 781T445 762Z" />
<glyph unicode="&#xd6;" glyph-name="Odieresis" d="M279 -12Q216 -12 170 6T94 58T50 141T36 251Q36 340 53 423T109 569T206 671T349 710Q412 710 458 692T534 640T578 557T592 447Q592 358 575 275T519 129T422 27T279 -12ZM279 108Q342 108 371 155T415 288L435
408Q441 444 441 480Q441 532 419 561T349 590Q286 590 257 543T213 410L193 290Q187 254 187 218Q187 166 209 137T279 108ZM264 762Q223 762 207 777T190 816Q190 821 191 828T195 852Q200 878 218 894T280 911Q321 911 337 896T354 857Q354 852 353 845T349
821Q344 795 326 779T264 762ZM482 762Q441 762 425 777T408 816Q408 821 409 828T413 852Q418 878 436 894T498 911Q539 911 555 896T572 857Q572 852 571 845T567 821Q562 795 544 779T482 762Z" />
<glyph unicode="&#xd7;" glyph-name="multiply" d="M298 220L129 76L53 164L225 310L106 453L201 534L320 390L489 534L564 447L393 301L512 157L417 76L298 220Z" />
<glyph unicode="&#xd8;" glyph-name="Oslash" d="M279 -12Q188 -12 132 26L61 -67L-27 -10L63 107Q49 136 43 172T36 251Q36 340 53 423T109 569T206 671T349 710Q440 710 496 672L567 765L655 708L565 591Q579 562 585 526T592 447Q592 358 575 275T519 129T422
27T279 -12ZM191 302Q188 285 187 275T185 255V254L421 562Q395 591 349 591Q286 591 255 544T209 410L191 302ZM279 107Q342 107 373 154T419 288L437 396Q440 413 441 423T443 443V444L207 136Q233 107 279 107Z" />
<glyph unicode="&#xd9;" glyph-name="Ugrave" d="M275 698L202 260Q197 233 196 215T194 186Q194 148 212 128T277 108Q310 108 331 118T364 148T384 194T397 255L471 698H618L547 272Q535 202 519 149T472 60T393 6T269 -12Q207 -12 165 1T97 39T60 98T49 176Q49
202 52 230T60 291L128 698H275ZM248 917L372 976L449 780L362 741L248 917Z" />
<glyph unicode="&#xda;" glyph-name="Uacute" d="M275 698L202 260Q197 233 196 215T194 186Q194 148 212 128T277 108Q310 108 331 118T364 148T384 194T397 255L471 698H618L547 272Q535 202 519 149T472 60T393 6T269 -12Q207 -12 165 1T97 39T60 98T49 176Q49
202 52 230T60 291L128 698H275ZM392 740L306 786L421 976L535 916L392 740Z" />
<glyph unicode="&#xdb;" glyph-name="Ucircumflex" d="M275 698L202 260Q197 233 196 215T194 186Q194 148 212 128T277 108Q310 108 331 118T364 148T384 194T397 255L471 698H618L547 272Q535 202 519 149T472 60T393 6T269 -12Q207 -12 165 1T97 39T60 98T49
176Q49 202 52 230T60 291L128 698H275ZM472 955L580 797L504 740L398 855L264 740L194 797L348 955H472Z" />
<glyph unicode="&#xdc;" glyph-name="Udieresis" d="M275 698L202 260Q197 233 196 215T194 186Q194 148 212 128T277 108Q310 108 331 118T364 148T384 194T397 255L471 698H618L547 272Q535 202 519 149T472 60T393 6T269 -12Q207 -12 165 1T97 39T60 98T49
176Q49 202 52 230T60 291L128 698H275ZM277 762Q236 762 220 777T203 816Q203 821 204 828T208 852Q213 878 231 894T293 911Q334 911 350 896T367 857Q367 852 366 845T362 821Q357 795 339 779T277 762ZM495 762Q454 762 438 777T421 816Q421 821 422 828T426
852Q431 878 449 894T511 911Q552 911 568 896T585 857Q585 852 584 845T580 821Q575 795 557 779T495 762Z" />
<glyph unicode="&#xdd;" glyph-name="Yacute" d="M184 0L225 246L78 698H236L285 534L316 397H325L403 534L503 698H668L373 249L332 0H184ZM388 740L302 786L417 976L531 916L388 740Z" />
<glyph unicode="&#xde;" glyph-name="Thorn" d="M33 0L150 698H298L278 576H381Q427 576 462 563T522 524T558 465T571 391Q571 331 554 284T504 203T425 152T322 134H203L181 0H33ZM223 254H301Q352 254 377 273T410 337L415 367Q416 372 416 379T417 394Q417
428 399 442T335 457H257L223 254Z" />
<glyph unicode="&#xdf;" glyph-name="germandbls" d="M17 0L113 595Q124 658 167 699T289 740H429L410 628H263L244 516H574L556 411L386 208Q453 194 490 153T528 41Q528 -18 507 -63T447 -138T354 -184T233 -200H163L182 -88H239Q302 -88 335 -67T376 5Q380
28 380 34T381 46Q381 84 353 101T267 118H243L262 230L407 404H226L159 0H17Z" />
<glyph unicode="&#xe0;" glyph-name="agrave" d="M181 -12Q140 -12 113 2T69 43T45 108T38 193Q38 268 54 329T100 435T173 503T271 528Q330 528 358 500T398 420H405L421 516H567L499 107H552L534 0H459Q402 0 374 28T353 110L355 123H350Q335 93 320 69T285
26T240 -2T181 -12ZM247 101Q273 101 294 114T332 149Q343 163 357 189T376 247L390 330Q397 371 381 393T317 415Q262 415 236 384T200 293L190 233Q188 224 187 213T186 187Q186 151 199 126T247 101ZM205 747L329 806L406 610L319 571L205 747Z" />
<glyph unicode="&#xe1;" glyph-name="aacute" d="M181 -12Q140 -12 113 2T69 43T45 108T38 193Q38 268 54 329T100 435T173 503T271 528Q330 528 358 500T398 420H405L421 516H567L499 107H552L534 0H459Q402 0 374 28T353 110L355 123H350Q335 93 320 69T285
26T240 -2T181 -12ZM247 101Q273 101 294 114T332 149Q343 163 357 189T376 247L390 330Q397 371 381 393T317 415Q262 415 236 384T200 293L190 233Q188 224 187 213T186 187Q186 151 199 126T247 101ZM349 570L263 616L378 806L492 746L349 570Z" />
<glyph unicode="&#xe2;" glyph-name="acircumflex" d="M181 -12Q140 -12 113 2T69 43T45 108T38 193Q38 268 54 329T100 435T173 503T271 528Q330 528 358 500T398 420H405L421 516H567L499 107H552L534 0H459Q402 0 374 28T353 110L355 123H350Q335 93 320 69T285
26T240 -2T181 -12ZM247 101Q273 101 294 114T332 149Q343 163 357 189T376 247L390 330Q397 371 381 393T317 415Q262 415 236 384T200 293L190 233Q188 224 187 213T186 187Q186 151 199 126T247 101ZM429 785L537 627L461 570L355 685L221 570L151 627L305 785H429Z"
/>
<glyph unicode="&#xe3;" glyph-name="atilde" d="M181 -12Q140 -12 113 2T69 43T45 108T38 193Q38 268 54 329T100 435T173 503T271 528Q330 528 358 500T398 420H405L421 516H567L499 107H552L534 0H459Q402 0 374 28T353 110L355 123H350Q335 93 320 69T285
26T240 -2T181 -12ZM247 101Q273 101 294 114T332 149Q343 163 357 189T376 247L390 330Q397 371 381 393T317 415Q262 415 236 384T200 293L190 233Q188 224 187 213T186 187Q186 151 199 126T247 101ZM415 592Q392 592 376 598T342 613Q322 622 305 628T267 635Q250
635 236 629T204 610L164 677Q186 704 217 722T288 741Q311 741 327 735T361 720Q381 711 398 705T436 698Q453 698 467 704T499 723L539 656Q517 629 486 611T415 592Z" />
<glyph unicode="&#xe4;" glyph-name="adieresis" d="M181 -12Q140 -12 113 2T69 43T45 108T38 193Q38 268 54 329T100 435T173 503T271 528Q330 528 358 500T398 420H405L421 516H567L499 107H552L534 0H459Q402 0 374 28T353 110L355 123H350Q335 93 320 69T285
26T240 -2T181 -12ZM247 101Q273 101 294 114T332 149Q343 163 357 189T376 247L390 330Q397 371 381 393T317 415Q262 415 236 384T200 293L190 233Q188 224 187 213T186 187Q186 151 199 126T247 101ZM234 592Q193 592 177 607T160 646Q160 651 161 659T165 681Q170
708 188 724T250 741Q291 741 307 726T324 687Q324 682 323 674T319 652Q314 625 296 609T234 592ZM452 592Q411 592 395 607T378 646Q378 651 379 659T383 681Q388 708 406 724T468 741Q509 741 525 726T542 687Q542 682 541 674T537 652Q532 625 514 609T452
592Z" />
<glyph unicode="&#xe5;" glyph-name="aring" d="M181 -12Q140 -12 113 2T69 43T45 108T38 193Q38 268 54 329T100 435T173 503T271 528Q330 528 358 500T398 420H405L421 516H567L499 107H552L534 0H459Q402 0 374 28T353 110L355 123H350Q335 93 320 69T285 26T240
-2T181 -12ZM247 101Q273 101 294 114T332 149Q343 163 357 189T376 247L390 330Q397 371 381 393T317 415Q262 415 236 384T200 293L190 233Q188 224 187 213T186 187Q186 151 199 126T247 101ZM335 550Q308 550 284 559T243 585T215 625T205 674Q205 709 218
738T254 789T307 822T373 834Q400 834 424 825T465 799T493 759T503 710Q503 675 490 646T454 595T400 562T335 550ZM343 624Q369 624 383 638T402 675Q405 693 406 702T408 720Q408 760 365 760Q339 760 325 746T306 709Q303 691 302 682T300 664Q300 624 343
624Z" />
<glyph unicode="&#xe6;" glyph-name="ae" d="M110 -12Q58 -12 25 20T-8 121Q-8 206 47 255T203 305H243L250 347Q253 365 253 378Q253 407 240 422T203 437Q176 437 157 419T124 365L44 411Q73 476 112 502T208 528Q252 528 285 511T324 449H327Q347 484 382 506T466
528Q529 528 565 491T601 394Q601 367 591 338T554 285T476 244T347 226L345 215Q343 201 342 189T341 167Q341 128 355 106T397 83Q424 83 440 104T470 157L561 118Q533 52 492 20T388 -12Q361 -12 337 -6T293 15T262 51T245 105H241Q227 46 194 17T110 -12ZM146
77Q205 77 222 179L230 228H201Q161 228 136 211T104 157Q102 143 102 135T101 125Q101 99 113 88T146 77ZM450 439Q418 439 395 408T361 311L360 303Q398 304 424 312T466 331T489 358T496 390Q496 414 484 426T450 439Z" />
<glyph unicode="&#xe7;" glyph-name="ccedilla" d="M343 528Q432 528 479 492T543 397L424 341Q413 373 394 392T331 411Q287 411 258 383T220 301L210 241Q208 232 207 219T206 194Q206 154 226 130T297 105Q313 105 327 108T357 124T394 157T442 215L533 156Q510
119 486 90T435 40T377 6T306 -11L290 -55L293 -59Q314 -52 335 -52Q363 -52 382 -67T401 -110Q401 -161 360 -186T258 -212Q216 -212 187 -199T143 -166L194 -113Q202 -122 217 -131T255 -141Q277 -141 291 -134T305 -112Q305 -99 291 -90T237 -76L214 -74L239
-10Q150 -1 104 55T57 206Q57 272 76 330T131 433T220 502T343 528Z" />
<glyph unicode="&#xe8;" glyph-name="egrave" d="M281 -12Q166 -12 111 46T56 208Q56 280 78 339T139 440T235 505T360 528Q399 528 433 519T494 493T535 449T550 386Q550 355 537 324T487 268T381 225T202 203Q201 197 201 194T201 186Q201 144 224 122T300 100Q321
100 338 104T372 118T405 145T442 188L533 129Q513 100 490 75T436 30T368 -1T281 -12ZM345 425Q297 425 263 397T215 301L212 287Q281 291 320 300T379 321T404 347T409 373Q409 425 345 425ZM222 747L346 806L423 610L336 571L222 747Z" />
<glyph unicode="&#xe9;" glyph-name="eacute" d="M281 -12Q166 -12 111 46T56 208Q56 280 78 339T139 440T235 505T360 528Q399 528 433 519T494 493T535 449T550 386Q550 355 537 324T487 268T381 225T202 203Q201 197 201 194T201 186Q201 144 224 122T300 100Q321
100 338 104T372 118T405 145T442 188L533 129Q513 100 490 75T436 30T368 -1T281 -12ZM345 425Q297 425 263 397T215 301L212 287Q281 291 320 300T379 321T404 347T409 373Q409 425 345 425ZM366 570L280 616L395 806L509 746L366 570Z" />
<glyph unicode="&#xea;" glyph-name="ecircumflex" d="M281 -12Q166 -12 111 46T56 208Q56 280 78 339T139 440T235 505T360 528Q399 528 433 519T494 493T535 449T550 386Q550 355 537 324T487 268T381 225T202 203Q201 197 201 194T201 186Q201 144 224 122T300
100Q321 100 338 104T372 118T405 145T442 188L533 129Q513 100 490 75T436 30T368 -1T281 -12ZM345 425Q297 425 263 397T215 301L212 287Q281 291 320 300T379 321T404 347T409 373Q409 425 345 425ZM446 785L554 627L478 570L372 685L238 570L168 627L322 785H446Z"
/>
<glyph unicode="&#xeb;" glyph-name="edieresis" d="M281 -12Q166 -12 111 46T56 208Q56 280 78 339T139 440T235 505T360 528Q399 528 433 519T494 493T535 449T550 386Q550 355 537 324T487 268T381 225T202 203Q201 197 201 194T201 186Q201 144 224 122T300
100Q321 100 338 104T372 118T405 145T442 188L533 129Q513 100 490 75T436 30T368 -1T281 -12ZM345 425Q297 425 263 397T215 301L212 287Q281 291 320 300T379 321T404 347T409 373Q409 425 345 425ZM251 592Q210 592 194 607T177 646Q177 651 178 659T182 681Q187
708 205 724T267 741Q308 741 324 726T341 687Q341 682 340 674T336 652Q331 625 313 609T251 592ZM469 592Q428 592 412 607T395 646Q395 651 396 659T400 681Q405 708 423 724T485 741Q526 741 542 726T559 687Q559 682 558 674T554 652Q549 625 531 609T469
592Z" />
<glyph unicode="&#xec;" glyph-name="igrave" d="M298 -12Q236 -12 205 20T174 108Q174 125 176 141T184 188L224 402H68L87 516H391L314 106L331 101L471 244L551 173L490 103Q439 46 395 17T298 -12ZM197 747L321 806L398 610L311 571L197 747Z" />
<glyph unicode="&#xed;" glyph-name="iacute" d="M298 -12Q236 -12 205 20T174 108Q174 125 176 141T184 188L224 402H68L87 516H391L314 106L331 101L471 244L551 173L490 103Q439 46 395 17T298 -12ZM341 570L255 616L370 806L484 746L341 570Z" />
<glyph unicode="&#xee;" glyph-name="icircumflex" d="M298 -12Q236 -12 205 20T174 108Q174 125 176 141T184 188L224 402H68L87 516H391L314 106L331 101L471 244L551 173L490 103Q439 46 395 17T298 -12ZM421 785L529 627L453 570L347 685L213 570L143 627L297
785H421Z" />
<glyph unicode="&#xef;" glyph-name="idieresis" d="M298 -12Q236 -12 205 20T174 108Q174 125 176 141T184 188L224 402H68L87 516H391L314 106L331 101L471 244L551 173L490 103Q439 46 395 17T298 -12ZM226 592Q185 592 169 607T152 646Q152 651 153 659T157
681Q162 708 180 724T242 741Q283 741 299 726T316 687Q316 682 315 674T311 652Q306 625 288 609T226 592ZM444 592Q403 592 387 607T370 646Q370 651 371 659T375 681Q380 708 398 724T460 741Q501 741 517 726T534 687Q534 682 533 674T529 652Q524 625 506
609T444 592Z" />
<glyph unicode="&#xf0;" glyph-name="eth" d="M468 648Q513 592 540 519T568 353Q568 259 545 190T481 76T382 10T255 -12Q147 -12 90 46T32 204Q32 268 51 322T103 416T181 478T280 500Q337 500 371 475T423 404L431 408Q425 454 403 498T347 583L245 528L204
588L295 636Q264 665 228 691T150 740H373Q384 731 395 722T418 702L513 753L552 693L468 648ZM271 97Q322 97 355 128T399 218L408 272Q411 290 411 303Q411 346 387 367T319 389Q268 389 235 358T191 268L182 214Q179 196 179 183Q179 140 203 119T271 97Z" />
<glyph unicode="&#xf1;" glyph-name="ntilde" d="M25 0L111 516H257L237 393H242Q271 456 309 492T410 528Q448 528 474 516T518 484T543 436T551 379Q551 357 549 334T540 275L494 0H348L397 293Q399 307 401 321T404 355Q404 365 401 376T391 396T373 410T344
416Q318 416 299 404T263 369Q252 354 237 328T216 269L171 0H25ZM421 592Q398 592 382 598T348 613Q328 622 311 628T273 635Q256 635 242 629T210 610L170 677Q192 704 223 722T294 741Q317 741 333 735T367 720Q387 711 404 705T442 698Q459 698 473 704T505
723L545 656Q523 629 492 611T421 592Z" />
<glyph unicode="&#xf2;" glyph-name="ograve" d="M265 -12Q159 -12 101 47T43 210Q43 284 64 343T124 443T216 506T335 528Q441 528 499 469T557 306Q557 232 536 173T476 73T384 10T265 -12ZM276 97Q324 97 354 126T394 209L407 287Q409 296 410 307T412 328Q412
374 389 396T324 419Q276 419 246 390T206 307L193 229Q191 220 190 209T188 188Q188 142 211 120T276 97ZM222 747L346 806L423 610L336 571L222 747Z" />
<glyph unicode="&#xf3;" glyph-name="oacute" d="M265 -12Q159 -12 101 47T43 210Q43 284 64 343T124 443T216 506T335 528Q441 528 499 469T557 306Q557 232 536 173T476 73T384 10T265 -12ZM276 97Q324 97 354 126T394 209L407 287Q409 296 410 307T412 328Q412
374 389 396T324 419Q276 419 246 390T206 307L193 229Q191 220 190 209T188 188Q188 142 211 120T276 97ZM366 570L280 616L395 806L509 746L366 570Z" />
<glyph unicode="&#xf4;" glyph-name="ocircumflex" d="M265 -12Q159 -12 101 47T43 210Q43 284 64 343T124 443T216 506T335 528Q441 528 499 469T557 306Q557 232 536 173T476 73T384 10T265 -12ZM276 97Q324 97 354 126T394 209L407 287Q409 296 410 307T412
328Q412 374 389 396T324 419Q276 419 246 390T206 307L193 229Q191 220 190 209T188 188Q188 142 211 120T276 97ZM446 785L554 627L478 570L372 685L238 570L168 627L322 785H446Z" />
<glyph unicode="&#xf5;" glyph-name="otilde" d="M265 -12Q159 -12 101 47T43 210Q43 284 64 343T124 443T216 506T335 528Q441 528 499 469T557 306Q557 232 536 173T476 73T384 10T265 -12ZM276 97Q324 97 354 126T394 209L407 287Q409 296 410 307T412 328Q412
374 389 396T324 419Q276 419 246 390T206 307L193 229Q191 220 190 209T188 188Q188 142 211 120T276 97ZM432 592Q409 592 393 598T359 613Q339 622 322 628T284 635Q267 635 253 629T221 610L181 677Q203 704 234 722T305 741Q328 741 344 735T378 720Q398 711
415 705T453 698Q470 698 484 704T516 723L556 656Q534 629 503 611T432 592Z" />
<glyph unicode="&#xf6;" glyph-name="odieresis" d="M265 -12Q159 -12 101 47T43 210Q43 284 64 343T124 443T216 506T335 528Q441 528 499 469T557 306Q557 232 536 173T476 73T384 10T265 -12ZM276 97Q324 97 354 126T394 209L407 287Q409 296 410 307T412 328Q412
374 389 396T324 419Q276 419 246 390T206 307L193 229Q191 220 190 209T188 188Q188 142 211 120T276 97ZM251 592Q210 592 194 607T177 646Q177 651 178 659T182 681Q187 708 205 724T267 741Q308 741 324 726T341 687Q341 682 340 674T336 652Q331 625 313 609T251
592ZM469 592Q428 592 412 607T395 646Q395 651 396 659T400 681Q405 708 423 724T485 741Q526 741 542 726T559 687Q559 682 558 674T554 652Q549 625 531 609T469 592Z" />
<glyph unicode="&#xf7;" glyph-name="divide" d="M61 247L81 363H557L537 247H61ZM266 30Q224 30 206 45T188 84Q188 90 189 100T193 125Q198 152 220 171T287 190Q329 190 347 175T365 136Q365 130 364 120T360 95Q355 68 333 49T266 30ZM330 420Q288 420 270
435T252 474Q252 480 253 490T257 515Q262 542 284 561T351 580Q393 580 411 565T429 526Q429 520 428 510T424 485Q419 458 397 439T330 420Z" />
<glyph unicode="&#xf8;" glyph-name="oslash" d="M-18 3L69 92Q43 142 43 210Q43 284 64 343T124 443T216 506T335 528Q415 528 469 492L550 574L618 513L531 424Q557 374 557 306Q557 232 536 173T476 73T384 10T265 -12Q185 -12 131 24L50 -58L-18 3ZM324 419Q276
419 246 390T206 307L193 229Q192 224 191 215T189 204L381 403Q359 419 324 419ZM276 97Q325 97 355 126T394 209L407 287Q408 292 409 301T411 312L219 113Q241 97 276 97Z" />
<glyph unicode="&#xf9;" glyph-name="ugrave" d="M362 123H357Q328 60 290 24T189 -12Q151 -12 125 0T81 32T56 80T48 137Q48 159 50 182T59 241L105 516H251L202 224Q200 210 198 195T195 161Q195 151 198 140T208 120T226 106T255 100Q281 100 300 112T336 147Q347
162 362 188T383 247L428 516H574L488 0H342L362 123ZM217 747L341 806L418 610L331 571L217 747Z" />
<glyph unicode="&#xfa;" glyph-name="uacute" d="M362 123H357Q328 60 290 24T189 -12Q151 -12 125 0T81 32T56 80T48 137Q48 159 50 182T59 241L105 516H251L202 224Q200 210 198 195T195 161Q195 151 198 140T208 120T226 106T255 100Q281 100 300 112T336 147Q347
162 362 188T383 247L428 516H574L488 0H342L362 123ZM361 570L275 616L390 806L504 746L361 570Z" />
<glyph unicode="&#xfb;" glyph-name="ucircumflex" d="M362 123H357Q328 60 290 24T189 -12Q151 -12 125 0T81 32T56 80T48 137Q48 159 50 182T59 241L105 516H251L202 224Q200 210 198 195T195 161Q195 151 198 140T208 120T226 106T255 100Q281 100 300 112T336
147Q347 162 362 188T383 247L428 516H574L488 0H342L362 123ZM441 785L549 627L473 570L367 685L233 570L163 627L317 785H441Z" />
<glyph unicode="&#xfc;" glyph-name="udieresis" d="M362 123H357Q328 60 290 24T189 -12Q151 -12 125 0T81 32T56 80T48 137Q48 159 50 182T59 241L105 516H251L202 224Q200 210 198 195T195 161Q195 151 198 140T208 120T226 106T255 100Q281 100 300 112T336
147Q347 162 362 188T383 247L428 516H574L488 0H342L362 123ZM246 592Q205 592 189 607T172 646Q172 651 173 659T177 681Q182 708 200 724T262 741Q303 741 319 726T336 687Q336 682 335 674T331 652Q326 625 308 609T246 592ZM464 592Q423 592 407 607T390 646Q390
651 391 659T395 681Q400 708 418 724T480 741Q521 741 537 726T554 687Q554 682 553 674T549 652Q544 625 526 609T464 592Z" />
<glyph unicode="&#xfd;" glyph-name="yacute" d="M217 -212Q145 -212 95 -197T6 -136L93 -46Q117 -75 147 -87T213 -99Q241 -99 263 -93T302 -69T331 -23T351 54L365 140H360Q331 77 293 41T192 5Q154 5 128 17T84 49T59 97T51 154Q51 176 53 199T62 258L105 516H251L205
241Q203 227 201 212T198 178Q198 168 201 157T211 137T229 123T258 117Q284 117 303 129T339 164Q350 179 365 205T386 264L428 516H574L494 36Q473 -90 403 -151T217 -212ZM372 570L286 616L401 806L515 746L372 570Z" />
<glyph unicode="&#xfe;" glyph-name="thorn" d="M144 740H290L233 393H238Q253 423 269 447T306 490T352 518T411 528Q452 528 480 514T527 474T553 410T562 328Q562 251 545 189T497 82T423 13T325 -12Q264 -12 233 16T190 96H183L133 -200H-13L144 740ZM278
101Q332 101 361 132T400 223L410 283Q412 292 413 303T414 328Q413 365 399 390T346 415Q319 415 298 402T259 366Q247 352 232 327T212 269L198 186Q191 145 210 123T278 101Z" />
<glyph unicode="&#xff;" glyph-name="ydieresis" d="M217 -212Q145 -212 95 -197T6 -136L93 -46Q117 -75 147 -87T213 -99Q241 -99 263 -93T302 -69T331 -23T351 54L365 140H360Q331 77 293 41T192 5Q154 5 128 17T84 49T59 97T51 154Q51 176 53 199T62 258L105
516H251L205 241Q203 227 201 212T198 178Q198 168 201 157T211 137T229 123T258 117Q284 117 303 129T339 164Q350 179 365 205T386 264L428 516H574L494 36Q473 -90 403 -151T217 -212ZM257 592Q216 592 200 607T183 646Q183 651 184 659T188 681Q193 708 211
724T273 741Q314 741 330 726T347 687Q347 682 346 674T342 652Q337 625 319 609T257 592ZM475 592Q434 592 418 607T401 646Q401 651 402 659T406 681Q411 708 429 724T491 741Q532 741 548 726T565 687Q565 682 564 674T560 652Q555 625 537 609T475 592Z" />
<glyph unicode="&#x2013;" glyph-name="endash" d="M62 245L82 364H557L537 245H62Z" />
<glyph unicode="&#x2014;" glyph-name="emdash" d="M2 245L22 364H616L596 245H2Z" />
<glyph unicode="&#x2018;" glyph-name="quoteleft" d="M368 740H475L365 415H177L368 740Z" />
<glyph unicode="&#x2019;" glyph-name="quoteright" d="M326 740H514L324 415H216L326 740Z" />
<glyph unicode="&#x201a;" glyph-name="quotesinglbase" d="M230 173H418L229 -151H120L230 173Z" />
<glyph unicode="&#x201c;" glyph-name="quotedblleft" d="M509 740H616L506 415H318L509 740ZM509 740H616L506 415H318L509 740Z" />
<glyph unicode="&#x201d;" glyph-name="quotedblright" d="M455 740H643L453 415H345L455 740ZM454 740H642L452 415H344L454 740Z" />
<glyph unicode="&#x201e;" glyph-name="quotedblbase" d="M97 173H285L96 -151H-13L97 173ZM352 173H540L351 -151H242L352 173Z" />
<glyph unicode="&#x2022;" glyph-name="bullet" d="M291 157Q213 157 182 187T151 263Q151 270 151 282T157 321Q167 380 206 415T326 451Q404 451 435 421T466 345Q466 338 466 326T460 287Q450 228 411 193T291 157Z" />
<glyph unicode="&#x2039;" glyph-name="guilsinglleft" d="M333 43L163 211L185 341L399 501L438 409L286 268L392 130L333 43Z" />
<glyph unicode="&#x203a;" glyph-name="guilsinglright" d="M161 135L313 276L207 414L266 501L436 333L414 203L200 43L161 135Z" />
</font>
</defs>
</svg>
