<?xml version="1.0" standalone="no"?>
<!DOCTYPE svg PUBLIC "-//W3C//DTD SVG 1.1//EN" "http://www.w3.org/Graphics/SVG/1.1/DTD/svg11.dtd">
<svg xmlns="http://www.w3.org/2000/svg">
<defs >
<font id="IBMPlexMono" horiz-adv-x="600" ><font-face
    font-family="IBM Plex Mono ExtraLight"
    units-per-em="1000"
    panose-1="2 11 3 9 5 2 3 0 2 3"
    ascent="1025"
    descent="-275"
    alphabetic="0" />
<glyph unicode=" " glyph-name="space" />
<glyph unicode="!" glyph-name="exclam" d="M292 190L281 434V698H319V434L308 190H292ZM300 -6Q277 -6 267 3T257 29V39Q257 55 267 64T300 74Q323 74 333 65T343 39V29Q343 13 333 4T300 -6Z" />
<glyph unicode="&quot;" glyph-name="quotedbl" d="M468 484V740H504V484H468ZM353 484V740H389V484H353Z" />
<glyph unicode="#" glyph-name="numbersign" d="M174 234H21V264H180L210 434H56V464H215L256 698H290L167 0H133L174 234ZM434 698H468L427 464H580V434H421L391 264H545V234H386L345 0H311L434 698Z" />
<glyph unicode="$" glyph-name="dollar" d="M292 -12Q248 -11 214 -2T152 22T102 59T62 104L90 126Q108 103 127 84T171 52T224 30T292 21V342L259 347Q206 356 172 374T117 416T89 470T80 531Q80 618 137 663T292 710V811H322V710Q397 706 445 679T524 609L496
588Q467 629 426 651T322 677V373L352 368Q406 359 441 340T496 297T525 242T533 180Q533 89 477 41T322 -12V-113H292V-12ZM116 531Q116 494 127 468T159 425T208 397T269 381L292 377V677Q209 675 163 639T116 531ZM497 179Q497 219 485 246T452 291T403 319T341
334L322 337V21Q405 24 451 64T497 179Z" />
<glyph unicode="%" glyph-name="percent" d="M172 371Q143 371 117 381T72 411T42 464T31 541Q31 585 42 617T72 669T117 700T172 710Q201 710 227 700T272 670T302 617T313 541Q313 496 302 464T272 412T227 381T172 371ZM172 397Q193 397 212 404T247 427T271
467T280 524V557Q280 590 271 614T247 653T213 676T172 684Q151 684 132 677T97 654T73 614T64 557V524Q64 491 73 467T97 428T131 405T172 397ZM541 698H574L400 398H367L541 698ZM200 300H233L59 0H26L200 300ZM428 -12Q399 -12 373 -2T328 28T298 81T287 157Q287
202 298 234T328 286T373 317T428 327Q457 327 483 317T528 287T558 234T569 157Q569 113 558 81T528 29T483 -2T428 -12ZM428 14Q449 14 468 21T503 44T527 84T536 141V174Q536 207 527 231T503 270T469 293T428 301Q407 301 388 294T353 271T329 231T320 174V141Q320
108 329 84T353 45T387 22T428 14Z" />
<glyph unicode="&amp;" glyph-name="ampersand" d="M226 -12Q181 -12 146 2T87 41T51 100T38 176Q38 205 44 234T66 290T108 341T175 386Q146 420 126 460T106 549Q106 585 118 614T151 665T201 698T266 710Q327 710 366 680T422 611L392 596Q375 631 344 655T265
679Q208 679 175 645T142 553V541Q142 504 160 469T210 396L410 160H413Q423 193 427 241T437 363H548V332H468Q463 262 456 217T435 134L549 0H507L415 107H412Q388 53 341 21T226 -12ZM232 20Q289 20 331 48T397 125L193 364Q124 328 100 282T75 187V166Q75 135
85 109T116 63T166 32T232 20Z" />
<glyph unicode="&apos;" glyph-name="quotesingle" d="M282 484V740H318V484H282Z" />
<glyph unicode="(" glyph-name="parenleft" d="M230 311Q230 387 246 454T289 578T354 681T433 760H472Q428 726 390 681T324 581T280 464T264 334V288Q264 220 280 158T324 42T390 -58T472 -138H433Q391 -105 354 -59T290 44T246 168T230 311Z" />
<glyph unicode=")" glyph-name="parenright" d="M370 311Q370 235 354 168T311 44T246 -59T167 -138H128Q172 -104 210 -59T276 41T320 158T336 288V334Q336 401 320 463T276 580T210 680T128 760H167Q209 727 246 681T310 578T354 454T370 311Z" />
<glyph unicode="*" glyph-name="asterisk" d="M150 51L123 70L273 275L47 348L56 378L284 306V549H317V306L544 378L554 348L327 275L477 70L451 51L300 258L150 51Z" />
<glyph unicode="+" glyph-name="plus" d="M283 62V290H62V321H283V549H317V321H538V290H317V62H283Z" />
<glyph unicode="," glyph-name="comma" d="M277 92H340L253 -165H224L277 92Z" />
<glyph unicode="-" glyph-name="hyphen" d="M165 287V322H435V287H165Z" />
<glyph unicode="." glyph-name="period" d="M300 -6Q277 -6 267 3T257 29V39Q257 55 267 64T300 74Q323 74 333 65T343 39V29Q343 13 333 4T300 -6Z" />
<glyph unicode="/" glyph-name="slash" d="M101 -138L467 760H499L133 -138H101Z" />
<glyph unicode="0" glyph-name="zero" d="M300 -12Q186 -12 127 75T67 349Q67 536 126 623T300 710Q414 710 473 623T533 349Q533 162 474 75T300 -12ZM300 21Q397 21 445 94T493 311V387Q493 530 445 603T300 677Q203 677 155 604T107 387V311Q107 168 155 95T300
21ZM300 316Q281 316 274 324T266 343V355Q266 366 273 374T300 382Q319 382 326 374T334 355V343Q334 332 327 324T300 316Z" />
<glyph unicode="1" glyph-name="one" d="M95 0V33H310V671H306L100 494L78 519L287 698H346V33H551V0H95Z" />
<glyph unicode="2" glyph-name="two" d="M525 0H83V37L344 294Q395 344 423 394T452 500V526Q452 592 412 634T293 677Q218 677 177 641T115 543L82 553Q91 586 108 615T152 665T213 698T294 710Q391 710 441 658T491 514Q491 444 459 386T366 270L123 33H525V0Z" />
<glyph unicode="3" glyph-name="three" d="M278 382Q315 382 345 392T398 421T431 465T443 521V541Q443 572 432 597T400 640T350 667T287 677Q221 677 182 651T120 581L91 598Q114 646 162 678T288 710Q331 710 367 698T428 664T468 609T482 536Q482 463 443
422T343 369V365Q411 356 454 311T497 188Q497 142 482 105T439 42T371 2T282 -12Q204 -12 152 16T65 98L93 118Q125 69 169 45T282 21Q361 21 409 63T457 175V198Q457 267 411 308T281 350H188V382H278Z" />
<glyph unicode="4" glyph-name="four" d="M404 0V155H44V188L390 698H439V185H553V155H439V0H404ZM78 185H404V661H401L78 185Z" />
<glyph unicode="5" glyph-name="five" d="M486 665H165L142 347H146Q175 385 213 401T308 418Q403 418 457 363T512 207Q512 157 497 117T454 48T386 4T297 -12Q220 -12 168 16T81 98L110 118Q142 69 186 45T297 21Q382 21 427 68T473 193V216Q473 293 430 339T302
386Q272 386 249 382T208 369T174 348T144 318L110 323L135 698H486V665Z" />
<glyph unicode="6" glyph-name="six" d="M300 -12Q243 -12 202 6T135 57T95 135T82 233Q82 316 103 386T161 515T247 618T350 698H400Q340 659 294 618T213 531T156 432T122 317L125 316Q151 367 197 394T306 421Q354 421 392 407T459 364T502 297T517 208Q517
158 502 118T458 49T390 4T300 -12ZM299 20Q341 20 374 33T430 68T466 122T478 192V218Q478 255 466 286T431 340T375 376T299 389Q257 389 224 376T167 341T132 287T120 218V194Q120 156 132 124T168 69T224 33T299 20Z" />
<glyph unicode="7" glyph-name="seven" d="M184 0L479 666H109V508H74V698H517V665L223 0H184Z" />
<glyph unicode="8" glyph-name="eight" d="M300 -12Q246 -12 203 2T130 41T84 103T68 182Q68 256 108 303T219 364V369Q160 383 126 426T91 535Q91 616 147 663T300 710Q397 710 453 663T509 535Q509 469 475 426T381 369V364Q451 350 491 303T532 182Q532 139
516 103T470 42T397 2T300 -12ZM300 20Q389 20 441 62T493 173V198Q493 267 441 309T300 351Q211 351 159 309T107 198V173Q107 104 159 62T300 20ZM300 382Q378 382 424 419T470 519V541Q470 604 424 641T300 678Q222 678 176 641T130 541V519Q130 456 176 419T300
382Z" />
<glyph unicode="9" glyph-name="nine" d="M521 465Q521 382 500 312T441 183T355 80T252 0H202Q262 39 308 80T389 167T446 266T481 381L477 382Q451 331 406 304T297 277Q249 277 210 291T143 334T100 401T85 490Q85 539 100 580T144 649T212 694T302 710Q359
710 400 692T468 641T508 563T521 465ZM303 309Q345 309 378 322T435 357T470 411T482 480V504Q482 542 470 574T434 629T378 665T303 678Q261 678 228 665T172 630T136 575T124 506V480Q124 443 136 412T171 358T228 322T303 309Z" />
<glyph unicode=":" glyph-name="colon" d="M300 -6Q277 -6 267 3T257 29V39Q257 55 267 64T300 74Q323 74 333 65T343 39V29Q343 13 333 4T300 -6ZM300 442Q277 442 267 451T257 477V487Q257 503 267 512T300 522Q323 522 333 513T343 487V477Q343 461 333 452T300 442Z" />
<glyph unicode=";" glyph-name="semicolon" d="M277 92H340L253 -165H224L277 92ZM300 442Q277 442 267 451T257 477V487Q257 503 267 512T300 522Q323 522 333 513T343 487V477Q343 461 333 452T300 442Z" />
<glyph unicode="&lt;" glyph-name="less" d="M85 289V321L515 577V540L120 307V304L515 70V33L85 289Z" />
<glyph unicode="=" glyph-name="equal" d="M62 382V413H538V382H62ZM62 199V230H538V199H62Z" />
<glyph unicode="&gt;" glyph-name="greater" d="M85 70L480 303V306L85 540V577L515 321V289L85 33V70Z" />
<glyph unicode="?" glyph-name="question" d="M261 185V354Q357 356 409 399T462 515V538Q462 602 421 640T304 678Q231 678 189 643T128 546L95 556Q115 627 167 668T305 710Q396 710 448 661T500 529Q500 439 445 388T297 327V185H261ZM280 -6Q257 -6 247 3T236
29V39Q236 55 246 64T280 74Q302 74 312 65T323 39V29Q323 13 313 4T280 -6Z" />
<glyph unicode="@" glyph-name="at" d="M467 -107H324Q251 -107 205 -80T133 0T96 126T86 295Q86 407 98 485T136 614T203 687T301 710Q358 710 396 690T457 636T490 557T500 463V94H468V153H464Q451 124 427 105T359 85Q294 85 258 134T221 293Q221 403 257 452T359
501Q402 501 426 482T464 434H468V463Q468 509 460 549T432 618T380 663T302 680Q254 680 220 660T163 597T131 488T120 327V262Q120 187 128 125T158 17T221 -53T324 -78H467V-107ZM367 113Q414 113 441 141T468 220V366Q468 416 441 444T367 473Q316 473 286
437T255 313V274Q255 230 263 199T285 149T320 122T367 113Z" />
<glyph unicode="A" glyph-name="A" d="M515 0L441 226H159L85 0H47L276 698H325L553 0H515ZM302 658H297L168 258H432L302 658Z" />
<glyph unicode="B" glyph-name="B" d="M96 698H321Q402 698 447 653T492 520Q492 453 466 415T392 361V359Q455 346 488 303T522 187Q522 145 510 111T476 52T420 14T345 0H96V698ZM339 33Q375 33 402 43T447 72T474 114T483 165V207Q483 234 474 258T447 300T402
329T339 340H132V33H339ZM319 371Q353 371 378 381T419 408T444 448T453 498V539Q453 565 445 588T420 628T378 655T319 665H132V371H319Z" />
<glyph unicode="C" glyph-name="C" d="M325 -12Q204 -12 141 74T77 349Q77 536 140 623T325 710Q402 710 451 670T523 566L491 553Q471 610 430 643T325 677Q222 677 170 604T117 387V311Q117 168 169 95T325 21Q389 21 430 54T491 145L523 132Q500 69 451 29T325 -12Z" />
<glyph unicode="D" glyph-name="D" d="M105 698H290Q416 698 474 610T532 349Q532 176 474 88T290 0H105V698ZM290 33Q395 33 443 107T492 312V386Q492 517 444 591T290 665H141V33H290Z" />
<glyph unicode="E" glyph-name="E" d="M104 0V698H515V665H140V371H502V338H140V33H515V0H104Z" />
<glyph unicode="F" glyph-name="F" d="M104 0V698H521V665H140V371H492V338H140V0H104Z" />
<glyph unicode="G" glyph-name="G" d="M480 101H476Q466 77 453 57T419 21T372 -3T305 -12Q192 -12 131 74T70 348Q70 537 132 623T311 710Q387 710 436 670T508 566L476 553Q456 610 416 643T312 677Q212 677 161 604T110 387V312Q110 169 160 95T310 20Q350
20 381 33T435 70T468 126T480 198V291H309V322H515V0H480V101Z" />
<glyph unicode="H" glyph-name="H" d="M470 338H130V0H94V698H130V370H470V698H506V0H470V338Z" />
<glyph unicode="I" glyph-name="I" d="M90 0V30H282V668H90V698H510V668H318V30H510V0H90Z" />
<glyph unicode="J" glyph-name="J" d="M466 698V187Q466 92 414 40T276 -12Q202 -12 154 24T91 125L126 133Q138 82 174 52T277 21Q349 21 389 64T430 192V665H154V698H466Z" />
<glyph unicode="K" glyph-name="K" d="M265 376L139 235V0H103V698H139V284H141L268 428L507 698H551L291 403L555 0H512L265 376Z" />
<glyph unicode="L" glyph-name="L" d="M140 0V698H176V33H530V0H140Z" />
<glyph unicode="M" glyph-name="M" d="M485 644H481L300 237L119 644H115V0H81V698H131L299 318H303L470 698H519V0H485V644Z" />
<glyph unicode="N" glyph-name="N" d="M132 649H128V0H94V698H146L468 49H472V698H506V0H454L132 649Z" />
<glyph unicode="O" glyph-name="O" d="M300 -12Q186 -12 127 75T67 349Q67 536 126 623T300 710Q414 710 473 623T533 349Q533 162 474 75T300 -12ZM300 21Q397 21 445 94T493 311V387Q493 530 445 603T300 677Q203 677 155 604T107 387V311Q107 168 155 95T300 21Z" />
<glyph unicode="P" glyph-name="P" d="M104 0V698H350Q439 698 484 647T530 507Q530 419 485 367T350 315H140V0H104ZM140 348H350Q386 348 412 359T456 388T482 432T491 485V529Q491 556 483 581T457 624T413 654T350 665H140V348Z" />
<glyph unicode="Q" glyph-name="Q" d="M479 -143H332Q306 -143 294 -130T282 -93V-11Q177 -4 122 82T67 349Q67 536 126 623T300 710Q414 710 473 623T533 349Q533 169 478 83T318 -11V-111H479V-143ZM300 21Q397 21 445 94T493 311V387Q493 530 445 603T300 677Q203
677 155 604T107 387V311Q107 168 155 95T300 21Z" />
<glyph unicode="R" glyph-name="R" d="M140 0H104V698H350Q439 698 484 647T530 507Q530 421 486 370T357 317H328L528 0H486L288 316H140V0ZM350 348Q386 348 412 359T456 388T482 432T491 485V529Q491 556 483 581T457 624T413 654T350 665H140V348H350Z" />
<glyph unicode="S" glyph-name="S" d="M303 -12Q256 -12 220 -4T154 20T103 57T61 104L89 126Q126 77 174 49T303 20Q394 20 444 61T494 180Q494 219 482 246T449 291T400 319T338 334L258 347Q205 356 171 374T116 416T88 469T79 530Q79 621 139 665T300 710Q385
710 437 683T521 611L494 588Q463 632 417 655T298 678Q212 678 164 642T116 531Q116 494 127 468T159 425T208 397T270 381L349 368Q403 359 438 341T494 297T523 242T531 181Q531 86 470 37T303 -12Z" />
<glyph unicode="T" glyph-name="T" d="M318 665V0H282V665H37V698H563V665H318Z" />
<glyph unicode="U" glyph-name="U" d="M130 698V274Q130 203 137 155T163 77T215 34T300 21Q352 21 385 34T437 76T463 154T470 274V698H506V279Q506 198 497 143T464 53T401 3T300 -12Q239 -12 200 3T137 52T104 142T94 279V698H130Z" />
<glyph unicode="V" glyph-name="V" d="M275 0L50 698H90L299 39H302L512 698H550L325 0H275Z" />
<glyph unicode="W" glyph-name="W" d="M117 0L53 698H86L147 37H152L279 492H322L449 37H454L515 698H547L483 0H425L302 445H298L175 0H117Z" />
<glyph unicode="X" glyph-name="X" d="M557 0H514L302 326H299L85 0H44L279 354L53 698H97L300 386H303L507 698H548L323 357L557 0Z" />
<glyph unicode="Y" glyph-name="Y" d="M282 0V289L25 698H67L299 327H302L534 698H575L318 289V0H282Z" />
<glyph unicode="Z" glyph-name="Z" d="M552 0H48V35L490 665H70V698H530V663L88 33H552V0Z" />
<glyph unicode="[" glyph-name="bracketleft" d="M256 -138V760H503V732H287V-110H503V-138H256Z" />
<glyph unicode="\" glyph-name="backslash" d="M467 -138L101 760H133L499 -138H467Z" />
<glyph unicode="]" glyph-name="bracketright" d="M344 760V-138H97V-110H313V732H97V760H344Z" />
<glyph unicode="^" glyph-name="asciicircum" d="M508 314L301 665H298L91 314L63 329L281 698H319L537 329L508 314Z" />
<glyph unicode="_" glyph-name="underscore" d="M60 -148V-116H540V-148H60Z" />
<glyph unicode="`" glyph-name="grave" d="M198 748L230 765L335 607L311 594L198 748Z" />
<glyph unicode="a" glyph-name="a" d="M464 0Q441 0 431 11T420 42V79H416Q398 41 358 15T248 -12Q165 -12 120 26T75 134Q75 166 85 193T119 239T182 269T278 280H419V354Q419 427 381 462T275 497Q221 497 180 475T118 404L92 421Q113 469 158 498T276 528Q360
528 407 484T454 358V31H536V0H464ZM251 18Q285 18 315 26T369 51T405 92T419 148V252H279Q190 252 152 224T113 149V119Q113 70 151 44T251 18Z" />
<glyph unicode="b" glyph-name="b" d="M118 740H153V437H156Q174 473 214 500T317 528Q415 528 470 460T525 258Q525 124 470 56T317 -12Q254 -12 214 15T156 79H153V0H118V740ZM309 19Q395 19 441 75T487 229V287Q487 384 441 440T309 497Q278 497 250 488T201
462T166 421T153 368V148Q153 119 166 95T200 54T250 28T309 19Z" />
<glyph unicode="c" glyph-name="c" d="M321 -12Q218 -12 161 57T104 258Q104 390 161 459T321 528Q390 528 435 497T499 414L469 402Q452 448 414 472T321 497Q234 497 188 441T142 287V229Q142 132 188 76T321 19Q380 19 419 46T479 119L506 103Q496 79 479 59T439
22T387 -3T321 -12Z" />
<glyph unicode="d" glyph-name="d" d="M447 79H444Q426 43 386 16T283 -12Q185 -12 130 56T75 258Q75 392 130 460T283 528Q346 528 386 501T444 437H447V740H482V0H447V79ZM291 19Q322 19 350 28T399 54T434 95T447 148V368Q447 397 434 421T400 462T350 488T291
497Q205 497 159 441T113 287V229Q113 132 159 76T291 19Z" />
<glyph unicode="e" glyph-name="e" d="M307 -12Q203 -12 145 57T86 258Q86 390 144 459T302 528Q354 528 394 510T461 457T502 375T516 269V255H124V229Q124 132 171 76T307 19Q369 19 412 48T478 135L506 120Q483 60 433 24T307 -12ZM302 498Q217 498 171 441T124
287V283H479V288Q479 385 433 441T302 498Z" />
<glyph unicode="f" glyph-name="f" d="M91 31H280V485H81V516H280V690Q280 740 329 740H536V709H314V516H536V485H314V31H513V0H91V31Z" />
<glyph unicode="g" glyph-name="g" d="M547 -62Q547 -140 484 -176T303 -212Q187 -212 136 -177T85 -82Q85 -37 110 -9T182 34V39Q130 56 130 107Q130 144 156 165T217 196V199Q173 219 149 258T124 355Q124 394 136 426T172 480T228 515T303 528Q367 528 412
497V530Q412 567 449 567H556V536H436V478Q459 455 471 424T483 355Q483 316 470 284T433 229T376 194T303 181Q276 181 249 187Q209 177 186 159T162 112Q162 91 180 76T248 61H378Q467 61 507 28T547 -62ZM513 -64Q513 -21 483 3T376 28H216Q173 16 147 -9T121
-78Q121 -126 161 -154T274 -182H330Q413 -182 463 -154T513 -64ZM303 210Q372 210 408 246T445 337V373Q445 427 409 463T303 499Q234 499 198 463T162 373V337Q162 282 198 246T303 210Z" />
<glyph unicode="h" glyph-name="h" d="M120 740H155V440H158Q165 457 177 473T209 501T254 520T314 528Q399 528 444 479T489 335V0H454V329Q454 417 416 457T306 497Q277 497 250 489T201 465T168 425T155 369V0H120V740Z" />
<glyph unicode="i" glyph-name="i" d="M332 677Q312 677 304 685T295 707V716Q295 729 303 737T332 746Q352 746 360 738T369 716V707Q369 694 361 686T332 677ZM114 31H315V485H114V516H350V31H538V0H114V31Z" />
<glyph unicode="j" glyph-name="j" d="M109 -169H393V485H95V516H428V-150Q428 -200 379 -200H109V-169ZM411 677Q391 677 383 685T374 707V716Q374 729 382 737T411 746Q431 746 439 738T448 716V707Q448 694 440 686T411 677Z" />
<glyph unicode="k" glyph-name="k" d="M131 740H166V232H169L281 331L492 516H537L309 314L564 0H521L282 292L166 191V0H131V740Z" />
<glyph unicode="l" glyph-name="l" d="M88 31H283V709H88V740H318V31H512V0H88V31Z" />
<glyph unicode="m" glyph-name="m" d="M69 0V516H102V455H105Q117 487 141 507T210 528Q253 528 278 507T311 446H313Q325 481 351 504T425 528Q481 528 506 493T532 390V0H499V385Q499 445 479 471T416 498Q375 498 346 470T317 383V0H284V385Q284 445 264 471T201
498Q161 498 132 470T102 383V0H69Z" />
<glyph unicode="n" glyph-name="n" d="M120 0V516H155V440H158Q165 457 177 473T209 501T254 520T314 528Q399 528 444 479T489 335V0H454V329Q454 417 416 457T306 497Q277 497 250 489T201 465T168 425T155 369V0H120Z" />
<glyph unicode="o" glyph-name="o" d="M300 -12Q198 -12 141 57T84 258Q84 390 141 459T300 528Q402 528 459 459T516 258Q516 126 459 57T300 -12ZM300 19Q385 19 431 75T478 231V285Q478 385 432 441T300 497Q215 497 169 441T122 285V231Q122 131 168 75T300 19Z" />
<glyph unicode="p" glyph-name="p" d="M118 516H153V437H156Q174 473 214 500T317 528Q415 528 470 460T525 258Q525 124 470 56T317 -12Q254 -12 214 15T156 79H153V-200H118V516ZM309 19Q395 19 441 75T487 229V287Q487 384 441 440T309 497Q278 497 250 488T201
462T166 421T153 368V148Q153 119 166 95T200 54T250 28T309 19Z" />
<glyph unicode="q" glyph-name="q" d="M447 79H444Q426 43 386 16T283 -12Q185 -12 130 56T75 258Q75 392 130 460T283 528Q346 528 386 501T444 437H447V516H482V-200H447V79ZM291 19Q322 19 350 28T399 54T434 95T447 148V368Q447 397 434 421T400 462T350 488T291
497Q205 497 159 441T113 287V229Q113 132 159 76T291 19Z" />
<glyph unicode="r" glyph-name="r" d="M79 31H251V485H79V516H286V409H289Q298 431 310 450T342 484T389 507T452 516H557V483H443Q410 483 382 473T332 442T299 392T286 322V31H506V0H79V31Z" />
<glyph unicode="s" glyph-name="s" d="M315 -12Q240 -12 184 13T85 90L110 111Q149 63 198 41T315 18Q391 18 437 47T484 139Q484 166 475 184T449 213T408 231T355 242L275 253Q242 258 212 265T160 288T124 326T110 386Q110 424 125 451T165 495T225 520T299
528Q336 528 366 522T421 504T465 478T500 447L476 423Q464 437 448 450T411 474T362 491T298 498Q228 498 187 472T145 388Q145 361 154 344T180 315T221 297T274 286L355 274Q388 269 417 262T469 240T505 201T519 141Q519 102 504 73T461 26T397 -2T315 -12Z"
/>
<glyph unicode="t" glyph-name="t" d="M280 0Q231 0 231 50V485H37V516H198Q232 516 232 549V698H266V516H523V485H266V31H523V0H280Z" />
<glyph unicode="u" glyph-name="u" d="M445 76H442Q428 42 391 15T286 -12Q201 -12 156 37T111 181V516H146V187Q146 99 184 59T294 19Q323 19 350 27T399 51T432 91T445 147V516H480V0H445V76Z" />
<glyph unicode="v" glyph-name="v" d="M278 0L86 516H122L299 34H302L479 516H514L322 0H278Z" />
<glyph unicode="w" glyph-name="w" d="M36 516H68L154 31H158L278 516H323L443 31H447L533 516H564L471 0H421L303 481H299L179 0H129L36 516Z" />
<glyph unicode="x" glyph-name="x" d="M82 0L279 260L86 516H128L300 287H302L474 516H514L321 261L518 0H475L300 234H298L123 0H82Z" />
<glyph unicode="y" glyph-name="y" d="M488 516H524L242 -165Q234 -183 222 -191T187 -200H91V-169H205L282 17L76 516H113L299 62H302L488 516Z" />
<glyph unicode="z" glyph-name="z" d="M98 0V34L454 485H108V516H492V482L136 31H502V0H98Z" />
<glyph unicode="{" glyph-name="braceleft" d="M300 -138Q258 -138 258 -96V0Q258 29 263 50T276 86T292 113T307 132Q330 160 337 176T344 209Q344 254 303 275T184 297H113V325H184Q262 325 303 346T344 413Q344 430 337 446T307 490Q301 498 293 509T277 535T264
572T258 622V718Q258 760 300 760H487V732H290V623Q290 596 294 577T305 545T318 522T332 505Q355 476 365 456T376 412Q376 367 343 342T259 312V310Q310 305 343 280T376 210Q376 187 366 167T332 117Q326 109 319 100T305 78T295 45T290 -1V-110H487V-138H300Z"
/>
<glyph unicode="|" glyph-name="bar" d="M284 -138V760H316V-138H284Z" />
<glyph unicode="}" glyph-name="braceright" d="M300 760Q342 760 342 718V622Q342 593 337 572T324 536T308 509T293 490Q270 462 263 446T256 413Q256 368 297 347T416 325H487V297H416Q338 297 297 276T256 209Q256 192 263 176T293 132Q299 124 307 113T323
87T336 50T342 0V-96Q342 -138 300 -138H113V-110H310V-1Q310 26 306 45T295 77T282 100T268 117Q245 146 235 166T224 210Q224 255 257 280T341 310V312Q290 317 257 342T224 412Q224 435 234 455T268 505Q274 512 281 521T295 544T305 577T310 623V732H113V760H300Z"
/>
<glyph unicode="~" glyph-name="asciitilde" d="M412 212Q381 212 354 231T291 290Q261 324 237 344T187 365Q151 365 125 329T85 219L57 225Q72 312 106 354T188 396Q219 396 246 377T309 317Q339 284 363 264T413 243Q449 243 475 278T515 389L543 382Q528 295
494 254T412 212Z" />
<glyph unicode="&#xa0;" glyph-name="uni00A0" />
<glyph unicode="&#xa1;" glyph-name="exclamdown" d="M281 -181V83L292 327H308L319 83V-181H281ZM300 443Q277 443 267 452T257 478V488Q257 504 267 513T300 523Q323 523 333 514T343 488V478Q343 462 333 453T300 443Z" />
<glyph unicode="&#xa2;" glyph-name="cent" d="M297 -114V-11Q205 -3 155 65T104 258Q104 383 154 451T297 527V630H327V528Q394 526 437 495T499 414L469 402Q452 447 416 471T326 497V19Q383 21 421 47T479 119L506 103Q486 56 441 23T327 -12V-114H297ZM142
229Q142 139 182 84T297 21V495Q222 487 182 432T142 287V229Z" />
<glyph unicode="&#xa3;" glyph-name="sterling" d="M79 0V44Q121 72 146 118T171 224Q171 246 168 266T159 306H63V337H149Q135 378 121 418T106 507Q106 554 122 591T166 655T235 696T324 710Q393 710 445 682T532 597L502 578Q471 630 427 653T323 677Q241 677
193 634T144 506Q144 458 158 418T187 337H404V306H196Q201 288 204 269T207 227Q207 167 183 118T116 37V34H528V0H79Z" />
<glyph unicode="&#xa4;" glyph-name="currency" d="M300 127Q236 127 193 157L107 41L79 59L167 178Q112 235 112 349Q112 463 167 520L79 639L107 657L193 541Q236 571 300 571Q363 571 407 541L493 657L521 639L433 520Q488 463 488 349Q488 235 433 178L521
59L493 41L407 157Q363 127 300 127ZM300 157Q372 157 411 202T450 327V371Q450 451 411 496T300 541Q228 541 189 496T150 371V327Q150 247 189 202T300 157Z" />
<glyph unicode="&#xa5;" glyph-name="yen" d="M87 31H282V285H87V316H263L27 698H68L299 319H302L534 698H573L337 316H513V285H318V31H513V0H87V31Z" />
<glyph unicode="&#xa6;" glyph-name="brokenbar" d="M284 401V760H316V401H284ZM284 -138V221H316V-138H284Z" />
<glyph unicode="&#xa7;" glyph-name="section" d="M466 -9Q466 -45 452 -72T414 -118T358 -145T287 -154Q236 -154 196 -139T129 -98L150 -74Q173 -95 206 -109T288 -123Q355 -123 393 -94T432 -9Q432 17 423 36T397 69T358 93T312 111L246 132Q174 155 135 190T95
290Q95 345 126 382T209 439V442Q135 487 135 565Q135 601 148 628T186 674T243 701T314 710Q366 710 405 695T472 654L451 629Q428 651 395 665T313 679Q245 679 207 650T169 565Q169 539 178 520T204 486T243 462T289 445L355 424Q428 401 467 366T506 265Q506
210 476 174T392 117V114Q466 69 466 -9ZM471 260Q471 315 438 345T339 395L274 415Q263 418 253 422T231 431Q185 410 157 378T129 296Q129 240 162 211T262 161L327 141Q338 137 348 134T370 125Q417 146 444 178T471 260Z" />
<glyph unicode="&#xa8;" glyph-name="dieresis" d="M209 642Q189 642 181 650T173 670V680Q173 692 181 700T209 708Q228 708 236 700T244 680V670Q244 658 236 650T209 642ZM391 642Q372 642 364 650T356 670V680Q356 692 364 700T391 708Q411 708 419 700T427
680V670Q427 658 419 650T391 642Z" />
<glyph unicode="&#xa9;" glyph-name="copyright" d="M300 18Q238 18 184 41T90 107T27 211T4 349Q4 425 27 486T90 591T184 657T300 680Q362 680 416 657T510 591T573 487T596 349Q596 272 573 211T510 107T416 41T300 18ZM300 44Q357 44 405 65T490 125T546 216T566
329V369Q566 430 546 482T490 572T406 632T300 654Q243 654 195 632T110 572T54 482T34 369V329Q34 268 54 216T110 126T194 66T300 44ZM302 184Q240 184 204 226T168 349Q168 429 204 471T303 514Q345 514 372 496T410 447L386 436Q375 460 355 474T303 488Q255
488 228 456T200 364V335Q200 272 228 241T303 210Q335 210 357 225T391 266L415 253Q401 224 373 204T302 184Z" />
<glyph unicode="&#xaa;" glyph-name="ordfeminine" d="M450 370H405Q377 370 377 397V419H374Q363 397 337 380T262 363Q208 363 180 388T152 456Q152 499 183 524T285 549H376V598Q376 642 352 663T282 685Q248 685 223 671T184 628L163 642Q177 672 206 691T283
710Q341 710 373 682T405 601V396H450V370ZM284 525Q230 525 207 508T183 464V451Q183 420 205 404T265 388Q287 388 307 393T342 409T367 435T376 471V525H284Z" />
<glyph unicode="&#xab;" glyph-name="guillemotleft" d="M551 71L338 251V286L551 466L563 441L376 268L563 96L551 71ZM512 71L299 251V286L512 466L524 441L337 268L524 96L512 71Z" />
<glyph unicode="&#xac;" glyph-name="logicalnot" d="M490 98V290H62V321H522V98H490Z" />
<glyph unicode="&#xad;" glyph-name="uni00AD" d="M165 287V322H435V287H165Z" />
<glyph unicode="&#xae;" glyph-name="registered" d="M300 346Q262 346 229 359T172 397T133 455T119 528Q119 567 133 600T171 658T229 696T300 710Q338 710 371 697T428 659T467 601T481 528Q481 489 467 456T429 398T371 360T300 346ZM300 367Q333 367 361
379T411 411T444 460T456 520V536Q456 568 444 596T411 644T362 677T300 689Q267 689 239 677T189 645T156 596T144 536V520Q144 488 156 460T189 412T238 379T300 367ZM265 436H244V621H315Q341 621 356 608T372 566Q372 543 359 530T326 514L378 436H353L305
512H265V436ZM312 529Q350 529 350 563V570Q350 604 312 604H265V529H312Z" />
<glyph unicode="&#xaf;" glyph-name="overscore" d="M168 691H432V661H168V691Z" />
<glyph unicode="&#xb0;" glyph-name="degree" d="M300 395Q267 395 238 407T188 440T155 490T143 553Q143 587 155 615T188 665T238 698T300 710Q333 710 362 698T412 665T445 616T457 553Q457 519 445 490T412 440T362 407T300 395ZM300 425Q328 425 351 435T390
462T416 502T425 553Q425 580 416 603T391 643T351 670T300 680Q272 680 249 671T210 644T184 603T175 553Q175 526 184 503T209 462T249 435T300 425Z" />
<glyph unicode="&#xb1;" glyph-name="plusminus" d="M283 124V349H62V380H283V606H317V380H538V349H317V124H283ZM62 0V31H538V0H62Z" />
<glyph unicode="&#xb2;" glyph-name="twosuperior" d="M430 329H171V358L307 470Q386 536 386 591V600Q386 635 364 657T298 679Q254 679 229 659T193 605L167 614Q179 651 211 677T299 704Q358 704 387 674T417 598Q417 559 394 525T324 452L202 354H430V329Z" />
<glyph unicode="&#xb3;" glyph-name="threesuperior" d="M287 533Q338 533 359 552T381 606V611Q381 643 360 661T296 679Q259 679 237 667T199 633L178 649Q195 673 223 688T296 704Q350 704 381 679T413 609Q413 573 393 552T341 523V520Q378 514 398 492T419
431Q419 381 386 352T290 323Q242 323 213 340T166 381L188 398Q205 375 227 362T290 348Q339 348 363 369T388 429V435Q388 470 366 489T293 508H242V533H287Z" />
<glyph unicode="&#xb4;" glyph-name="acute" d="M288 594L264 607L369 765L401 748L288 594Z" />
<glyph unicode="&#xb5;" glyph-name="mu" d="M116 -200V516H151V192Q151 104 189 62T298 19Q327 19 354 27T403 51T436 91T449 147V516H484V0H449V76H445Q438 59 426 43T395 15T351 -4T292 -12Q184 -12 151 80H147L151 -35V-200H116Z" />
<glyph unicode="&#xb6;" glyph-name="paragraph" d="M294 246Q242 246 199 263T126 310T79 381T62 472Q62 521 78 562T125 634T196 681T287 698H480V-149H446V668H328V-149H294V246Z" />
<glyph unicode="&#xb7;" glyph-name="middot" d="M300 264Q277 264 267 273T257 299V309Q257 325 267 334T300 344Q323 344 333 335T343 309V299Q343 283 333 274T300 264Z" />
<glyph unicode="&#xb8;" glyph-name="cedilla" d="M310 -203Q279 -203 257 -193T225 -169L244 -149Q255 -162 271 -169T310 -177Q336 -177 351 -165T367 -130Q367 -112 354 -100T305 -85L270 -82L290 7H316L298 -70L300 -72Q315 -69 332 -69Q361 -69 380 -85T399
-129Q399 -161 375 -182T310 -203Z" />
<glyph unicode="&#xb9;" glyph-name="onesuperior" d="M188 329V354H312V672L180 604L168 625L308 698H342V354H455V329H188Z" />
<glyph unicode="&#xba;" glyph-name="ordmasculine" d="M300 362Q231 362 193 409T154 536Q154 615 192 662T300 710Q369 710 407 663T446 536Q446 457 408 410T300 362ZM300 387Q328 387 349 397T384 425T405 466T413 517V557Q413 583 406 606T384 646T349 674T300
685Q272 685 251 675T216 647T194 606T187 557V517Q187 490 194 467T215 426T251 398T300 387Z" />
<glyph unicode="&#xbb;" glyph-name="guillemotright" d="M77 96L264 268L77 441L89 466L302 286V251L89 71L77 96ZM294 96L481 268L294 441L306 466L519 286V251L306 71L294 96Z" />
<glyph unicode="&#xbc;" glyph-name="onequarter" d="M40 388H151V671L34 612L23 633L147 698H180V388H280V363H40V388ZM541 698H574L392 398H359L541 698ZM208 300H241L59 0H26L208 300ZM498 76H316V104L487 335H527V100H583V76H527V0H498V76ZM498 100V307H495L342
100H498Z" />
<glyph unicode="&#xbd;" glyph-name="onehalf" d="M40 388H151V671L34 612L23 633L147 698H180V388H280V363H40V388ZM541 698H574L392 398H359L541 698ZM208 300H241L59 0H26L208 300ZM335 27L459 134Q489 160 507 187T526 240V248Q526 277 508 296T447 316Q406
316 386 298T355 250L329 259Q334 274 342 288T365 315T399 334T448 341Q501 341 529 315T557 246Q557 211 536 180T475 115L368 25H570V0H335V27Z" />
<glyph unicode="&#xbe;" glyph-name="threequarters" d="M143 357Q98 357 72 373T29 412L51 429Q65 408 86 395T143 382Q185 382 207 401T230 454V460Q230 491 210 508T144 525H98V550H139Q185 550 204 567T223 613V620Q223 646 204 662T146 679Q116 679 94 668T58
637L38 654Q54 676 81 690T148 704Q197 704 225 681T253 618Q253 586 235 567T188 541V538Q223 531 241 511T260 456Q260 410 230 384T143 357ZM541 698H574L392 398H359L541 698ZM208 300H241L59 0H26L208 300ZM498 76H316V104L487 335H527V100H583V76H527V0H498V76ZM498
100V307H495L342 100H498Z" />
<glyph unicode="&#xbf;" glyph-name="questiondown" d="M293 -194Q248 -194 213 -181T152 -145T114 -88T100 -13Q100 30 115 65T156 126T220 168T303 189V331H339V162Q244 157 191 114T138 -3V-20Q138 -86 179 -124T294 -162Q363 -162 409 -126T475 -21L509 -32Q486
-107 431 -150T293 -194ZM320 442Q298 442 288 451T277 477V487Q277 503 287 512T320 522Q343 522 353 513T364 487V477Q364 461 354 452T320 442Z" />
<glyph unicode="&#xc0;" glyph-name="Agrave" d="M515 0L441 226H159L85 0H47L276 698H325L553 0H515ZM302 658H297L168 258H432L302 658ZM198 918L230 935L335 777L311 764L198 918Z" />
<glyph unicode="&#xc1;" glyph-name="Aacute" d="M515 0L441 226H159L85 0H47L276 698H325L553 0H515ZM302 658H297L168 258H432L302 658ZM288 764L264 777L369 935L401 918L288 764Z" />
<glyph unicode="&#xc2;" glyph-name="Acircumflex" d="M515 0L441 226H159L85 0H47L276 698H325L553 0H515ZM302 658H297L168 258H432L302 658ZM321 926L445 790L424 775L300 900L176 775L155 790L279 926H321Z" />
<glyph unicode="&#xc3;" glyph-name="Atilde" d="M515 0L441 226H159L85 0H47L276 698H325L553 0H515ZM302 658H297L168 258H432L302 658ZM371 802Q352 802 335 809T294 831Q271 845 256 850T227 856Q209 856 194 849T163 825L146 843Q163 863 183 874T229 886Q248
886 265 879T306 857Q329 843 344 838T373 832Q391 832 406 839T437 863L454 845Q437 825 417 814T371 802Z" />
<glyph unicode="&#xc4;" glyph-name="Adieresis" d="M515 0L441 226H159L85 0H47L276 698H325L553 0H515ZM302 658H297L168 258H432L302 658ZM209 812Q189 812 181 820T173 840V850Q173 862 181 870T209 878Q228 878 236 870T244 850V840Q244 828 236 820T209
812ZM391 812Q372 812 364 820T356 840V850Q356 862 364 870T391 878Q411 878 419 870T427 850V840Q427 828 419 820T391 812Z" />
<glyph unicode="&#xc5;" glyph-name="Aring" d="M515 0L441 226H159L85 0H47L276 698H325L553 0H515ZM302 658H297L168 258H432L302 658ZM300 764Q257 764 231 790T204 860Q204 903 230 930T300 957Q343 957 369 930T396 860Q396 817 370 791T300 764ZM300 789Q331
789 349 806T367 854V867Q367 896 349 914T300 932Q269 932 251 914T233 867V854Q233 824 251 807T300 789Z" />
<glyph unicode="&#xc6;" glyph-name="AE" d="M323 226H142L73 0H34L253 698H552V666H358V370H538V338H358V32H552V0H323V226ZM279 669L151 257H323V669H279Z" />
<glyph unicode="&#xc7;" glyph-name="Ccedilla" d="M325 677Q222 677 169 604T116 387V311Q116 168 169 95T325 21Q389 21 430 54T491 145L523 132Q500 69 451 29T326 -12H323L310 -70L312 -72Q327 -69 344 -69Q373 -69 392 -85T411 -129Q411 -161 387 -182T322
-203Q290 -203 268 -193T237 -169L256 -149Q266 -162 283 -169T322 -177Q348 -177 363 -165T379 -130Q379 -112 366 -100T317 -85L282 -82L299 -11Q190 -2 134 84T77 349Q77 536 140 623T325 710Q402 710 451 670T523 566L491 553Q471 610 430 643T325 677Z" />
<glyph unicode="&#xc8;" glyph-name="Egrave" d="M104 0V698H515V665H140V371H502V338H140V33H515V0H104ZM206 918L238 935L343 777L319 764L206 918Z" />
<glyph unicode="&#xc9;" glyph-name="Eacute" d="M104 0V698H515V665H140V371H502V338H140V33H515V0H104ZM296 764L272 777L377 935L409 918L296 764Z" />
<glyph unicode="&#xca;" glyph-name="Ecircumflex" d="M104 0V698H515V665H140V371H502V338H140V33H515V0H104ZM329 926L453 790L432 775L308 900L184 775L163 790L287 926H329Z" />
<glyph unicode="&#xcb;" glyph-name="Edieresis" d="M104 0V698H515V665H140V371H502V338H140V33H515V0H104ZM217 812Q197 812 189 820T181 840V850Q181 862 189 870T217 878Q236 878 244 870T252 850V840Q252 828 244 820T217 812ZM399 812Q380 812 372 820T364
840V850Q364 862 372 870T399 878Q419 878 427 870T435 850V840Q435 828 427 820T399 812Z" />
<glyph unicode="&#xcc;" glyph-name="Igrave" d="M90 0V30H282V668H90V698H510V668H318V30H510V0H90ZM198 918L230 935L335 777L311 764L198 918Z" />
<glyph unicode="&#xcd;" glyph-name="Iacute" d="M90 0V30H282V668H90V698H510V668H318V30H510V0H90ZM288 764L264 777L369 935L401 918L288 764Z" />
<glyph unicode="&#xce;" glyph-name="Icircumflex" d="M90 0V30H282V668H90V698H510V668H318V30H510V0H90ZM321 926L445 790L424 775L300 900L176 775L155 790L279 926H321Z" />
<glyph unicode="&#xcf;" glyph-name="Idieresis" d="M90 0V30H282V668H90V698H510V668H318V30H510V0H90ZM209 812Q189 812 181 820T173 840V850Q173 862 181 870T209 878Q228 878 236 870T244 850V840Q244 828 236 820T209 812ZM391 812Q372 812 364 820T356 840V850Q356
862 364 870T391 878Q411 878 419 870T427 850V840Q427 828 419 820T391 812Z" />
<glyph unicode="&#xd0;" glyph-name="Eth" d="M121 354H30V384H121V698H289Q415 698 473 610T531 349Q531 176 473 88T289 0H121V354ZM289 33Q394 33 443 107T492 312V386Q492 517 443 591T289 665H157V384H327V354H157V33H289Z" />
<glyph unicode="&#xd1;" glyph-name="Ntilde" d="M132 649H128V0H94V698H146L468 49H472V698H506V0H454L132 649ZM371 802Q352 802 335 809T294 831Q271 845 256 850T227 856Q209 856 194 849T163 825L146 843Q163 863 183 874T229 886Q248 886 265 879T306 857Q329
843 344 838T373 832Q391 832 406 839T437 863L454 845Q437 825 417 814T371 802Z" />
<glyph unicode="&#xd2;" glyph-name="Ograve" d="M300 -12Q186 -12 127 75T67 349Q67 536 126 623T300 710Q414 710 473 623T533 349Q533 162 474 75T300 -12ZM300 21Q397 21 445 94T493 311V387Q493 530 445 603T300 677Q203 677 155 604T107 387V311Q107 168
155 95T300 21ZM198 918L230 935L335 777L311 764L198 918Z" />
<glyph unicode="&#xd3;" glyph-name="Oacute" d="M300 -12Q186 -12 127 75T67 349Q67 536 126 623T300 710Q414 710 473 623T533 349Q533 162 474 75T300 -12ZM300 21Q397 21 445 94T493 311V387Q493 530 445 603T300 677Q203 677 155 604T107 387V311Q107 168
155 95T300 21ZM288 764L264 777L369 935L401 918L288 764Z" />
<glyph unicode="&#xd4;" glyph-name="Ocircumflex" d="M300 -12Q186 -12 127 75T67 349Q67 536 126 623T300 710Q414 710 473 623T533 349Q533 162 474 75T300 -12ZM300 21Q397 21 445 94T493 311V387Q493 530 445 603T300 677Q203 677 155 604T107 387V311Q107
168 155 95T300 21ZM321 926L445 790L424 775L300 900L176 775L155 790L279 926H321Z" />
<glyph unicode="&#xd5;" glyph-name="Otilde" d="M300 -12Q186 -12 127 75T67 349Q67 536 126 623T300 710Q414 710 473 623T533 349Q533 162 474 75T300 -12ZM300 21Q397 21 445 94T493 311V387Q493 530 445 603T300 677Q203 677 155 604T107 387V311Q107 168
155 95T300 21ZM371 802Q352 802 335 809T294 831Q271 845 256 850T227 856Q209 856 194 849T163 825L146 843Q163 863 183 874T229 886Q248 886 265 879T306 857Q329 843 344 838T373 832Q391 832 406 839T437 863L454 845Q437 825 417 814T371 802Z" />
<glyph unicode="&#xd6;" glyph-name="Odieresis" d="M300 -12Q186 -12 127 75T67 349Q67 536 126 623T300 710Q414 710 473 623T533 349Q533 162 474 75T300 -12ZM300 21Q397 21 445 94T493 311V387Q493 530 445 603T300 677Q203 677 155 604T107 387V311Q107
168 155 95T300 21ZM209 812Q189 812 181 820T173 840V850Q173 862 181 870T209 878Q228 878 236 870T244 850V840Q244 828 236 820T209 812ZM391 812Q372 812 364 820T356 840V850Q356 862 364 870T391 878Q411 878 419 870T427 850V840Q427 828 419 820T391 812Z"
/>
<glyph unicode="&#xd7;" glyph-name="multiply" d="M300 283L123 106L101 128L278 305L101 482L123 504L300 327L477 504L499 482L322 305L499 128L477 106L300 283Z" />
<glyph unicode="&#xd8;" glyph-name="Oslash" d="M300 -12Q199 -12 143 54L98 -23L71 -8L123 81Q67 170 67 349Q67 536 126 623T300 710Q401 710 457 644L502 721L529 706L477 617Q533 528 533 349Q533 162 474 75T300 -12ZM107 311Q107 185 145 115L438 612Q390
677 300 677Q203 677 155 604T107 387V311ZM300 21Q397 21 445 94T493 311V387Q493 513 455 583L162 86Q210 21 300 21Z" />
<glyph unicode="&#xd9;" glyph-name="Ugrave" d="M130 698V274Q130 203 137 155T163 77T215 34T300 21Q352 21 385 34T437 76T463 154T470 274V698H506V279Q506 198 497 143T464 53T401 3T300 -12Q239 -12 200 3T137 52T104 142T94 279V698H130ZM198 918L230 935L335
777L311 764L198 918Z" />
<glyph unicode="&#xda;" glyph-name="Uacute" d="M130 698V274Q130 203 137 155T163 77T215 34T300 21Q352 21 385 34T437 76T463 154T470 274V698H506V279Q506 198 497 143T464 53T401 3T300 -12Q239 -12 200 3T137 52T104 142T94 279V698H130ZM288 764L264 777L369
935L401 918L288 764Z" />
<glyph unicode="&#xdb;" glyph-name="Ucircumflex" d="M130 698V274Q130 203 137 155T163 77T215 34T300 21Q352 21 385 34T437 76T463 154T470 274V698H506V279Q506 198 497 143T464 53T401 3T300 -12Q239 -12 200 3T137 52T104 142T94 279V698H130ZM321 926L445
790L424 775L300 900L176 775L155 790L279 926H321Z" />
<glyph unicode="&#xdc;" glyph-name="Udieresis" d="M130 698V274Q130 203 137 155T163 77T215 34T300 21Q352 21 385 34T437 76T463 154T470 274V698H506V279Q506 198 497 143T464 53T401 3T300 -12Q239 -12 200 3T137 52T104 142T94 279V698H130ZM209 812Q189
812 181 820T173 840V850Q173 862 181 870T209 878Q228 878 236 870T244 850V840Q244 828 236 820T209 812ZM391 812Q372 812 364 820T356 840V850Q356 862 364 870T391 878Q411 878 419 870T427 850V840Q427 828 419 820T391 812Z" />
<glyph unicode="&#xdd;" glyph-name="Yacute" d="M282 0V289L25 698H67L299 327H302L534 698H575L318 289V0H282ZM288 764L264 777L369 935L401 918L288 764Z" />
<glyph unicode="&#xde;" glyph-name="Thorn" d="M104 0V698H140V545H350Q439 545 484 494T530 355Q530 268 484 215T350 162H140V0H104ZM140 195H350Q386 195 412 206T456 236T482 280T491 333V377Q491 404 483 428T457 471T413 501T350 512H140V195Z" />
<glyph unicode="&#xdf;" glyph-name="germandbls" d="M131 0V690Q131 740 180 740H378V709H166V516H528V482L314 209Q438 207 502 161T567 10Q567 -95 501 -147T308 -200H244V-169H308Q529 -169 529 -3V26Q529 68 514 97T469 144T398 171T303 180H278V212L493
485H166V0H131Z" />
<glyph unicode="&#xe0;" glyph-name="agrave" d="M464 0Q441 0 431 11T420 42V79H416Q398 41 358 15T248 -12Q165 -12 120 26T75 134Q75 166 85 193T119 239T182 269T278 280H419V354Q419 427 381 462T275 497Q221 497 180 475T118 404L92 421Q113 469 158 498T276
528Q360 528 407 484T454 358V31H536V0H464ZM251 18Q285 18 315 26T369 51T405 92T419 148V252H279Q190 252 152 224T113 149V119Q113 70 151 44T251 18ZM432 748L464 765L569 607L545 594L432 748Z" />
<glyph unicode="&#xe1;" glyph-name="aacute" d="M464 0Q441 0 431 11T420 42V79H416Q398 41 358 15T248 -12Q165 -12 120 26T75 134Q75 166 85 193T119 239T182 269T278 280H419V354Q419 427 381 462T275 497Q221 497 180 475T118 404L92 421Q113 469 158 498T276
528Q360 528 407 484T454 358V31H536V0H464ZM251 18Q285 18 315 26T369 51T405 92T419 148V252H279Q190 252 152 224T113 149V119Q113 70 151 44T251 18ZM522 594L498 607L603 765L635 748L522 594Z" />
<glyph unicode="&#xe2;" glyph-name="acircumflex" d="M464 0Q441 0 431 11T420 42V79H416Q398 41 358 15T248 -12Q165 -12 120 26T75 134Q75 166 85 193T119 239T182 269T278 280H419V354Q419 427 381 462T275 497Q221 497 180 475T118 404L92 421Q113 469 158
498T276 528Q360 528 407 484T454 358V31H536V0H464ZM251 18Q285 18 315 26T369 51T405 92T419 148V252H279Q190 252 152 224T113 149V119Q113 70 151 44T251 18ZM555 756L679 620L658 605L534 730L410 605L389 620L513 756H555Z" />
<glyph unicode="&#xe3;" glyph-name="atilde" d="M464 0Q441 0 431 11T420 42V79H416Q398 41 358 15T248 -12Q165 -12 120 26T75 134Q75 166 85 193T119 239T182 269T278 280H419V354Q419 427 381 462T275 497Q221 497 180 475T118 404L92 421Q113 469 158 498T276
528Q360 528 407 484T454 358V31H536V0H464ZM251 18Q285 18 315 26T369 51T405 92T419 148V252H279Q190 252 152 224T113 149V119Q113 70 151 44T251 18ZM605 632Q586 632 569 639T528 661Q505 675 490 680T461 686Q443 686 428 679T397 655L380 673Q397 693 417
704T463 716Q482 716 499 709T540 687Q563 673 578 668T607 662Q625 662 640 669T671 693L688 675Q671 655 651 644T605 632Z" />
<glyph unicode="&#xe4;" glyph-name="adieresis" d="M464 0Q441 0 431 11T420 42V79H416Q398 41 358 15T248 -12Q165 -12 120 26T75 134Q75 166 85 193T119 239T182 269T278 280H419V354Q419 427 381 462T275 497Q221 497 180 475T118 404L92 421Q113 469 158
498T276 528Q360 528 407 484T454 358V31H536V0H464ZM251 18Q285 18 315 26T369 51T405 92T419 148V252H279Q190 252 152 224T113 149V119Q113 70 151 44T251 18ZM443 642Q423 642 415 650T407 670V680Q407 692 415 700T443 708Q462 708 470 700T478 680V670Q478
658 470 650T443 642ZM625 642Q606 642 598 650T590 670V680Q590 692 598 700T625 708Q645 708 653 700T661 680V670Q661 658 653 650T625 642Z" />
<glyph unicode="&#xe5;" glyph-name="aring" d="M464 0Q441 0 431 11T420 42V79H416Q398 41 358 15T248 -12Q165 -12 120 26T75 134Q75 166 85 193T119 239T182 269T278 280H419V354Q419 427 381 462T275 497Q221 497 180 475T118 404L92 421Q113 469 158 498T276
528Q360 528 407 484T454 358V31H536V0H464ZM251 18Q285 18 315 26T369 51T405 92T419 148V252H279Q190 252 152 224T113 149V119Q113 70 151 44T251 18ZM534 594Q491 594 465 620T438 690Q438 733 464 760T534 787Q577 787 603 760T630 690Q630 647 604 621T534
594ZM534 619Q565 619 583 636T601 684V697Q601 726 583 744T534 762Q503 762 485 744T467 697V684Q467 654 485 637T534 619Z" />
<glyph unicode="&#xe6;" glyph-name="ae" d="M153 -12Q93 -12 57 27T21 136Q21 212 67 246T201 280H278V359Q278 436 249 467T174 499Q150 499 131 492T98 472T73 445T55 413L30 427Q38 446 51 464T82 497T123 519T175 528Q223 528 256 503T301 420H304Q323 478
355 503T433 528Q499 528 538 476T577 308V253H310V234Q310 175 319 134T344 67T381 30T428 18Q470 18 498 46T542 127L570 116Q562 90 550 67T520 27T479 -1T426 -12Q379 -12 344 19T293 116H290Q280 56 245 22T153 -12ZM157 17Q214 17 246 58T278 162V253H204Q129
253 92 228T55 144V127Q55 78 82 48T157 17ZM432 500Q375 500 343 454T310 305V280H545V317Q545 369 537 404T513 460T478 491T432 500Z" />
<glyph unicode="&#xe7;" glyph-name="ccedilla" d="M321 528Q390 528 435 497T499 414L469 402Q452 448 414 472T321 497Q234 497 188 441T142 287V229Q142 132 188 76T321 19Q380 19 419 46T479 119L506 103Q486 55 440 22T324 -12L311 -70L313 -72Q328 -69 345
-69Q374 -69 393 -85T412 -129Q412 -161 388 -182T323 -203Q292 -203 270 -193T238 -169L257 -149Q268 -162 284 -169T323 -177Q349 -177 364 -165T380 -130Q380 -112 367 -100T318 -85L283 -82L299 -11Q206 -4 155 64T104 258Q104 390 161 459T321 528Z" />
<glyph unicode="&#xe8;" glyph-name="egrave" d="M307 -12Q203 -12 145 57T86 258Q86 390 144 459T302 528Q354 528 394 510T461 457T502 375T516 269V255H124V229Q124 132 171 76T307 19Q369 19 412 48T478 135L506 120Q483 60 433 24T307 -12ZM302 498Q217 498
171 441T124 287V283H479V288Q479 385 433 441T302 498ZM200 748L232 765L337 607L313 594L200 748Z" />
<glyph unicode="&#xe9;" glyph-name="eacute" d="M307 -12Q203 -12 145 57T86 258Q86 390 144 459T302 528Q354 528 394 510T461 457T502 375T516 269V255H124V229Q124 132 171 76T307 19Q369 19 412 48T478 135L506 120Q483 60 433 24T307 -12ZM302 498Q217 498
171 441T124 287V283H479V288Q479 385 433 441T302 498ZM290 594L266 607L371 765L403 748L290 594Z" />
<glyph unicode="&#xea;" glyph-name="ecircumflex" d="M307 -12Q203 -12 145 57T86 258Q86 390 144 459T302 528Q354 528 394 510T461 457T502 375T516 269V255H124V229Q124 132 171 76T307 19Q369 19 412 48T478 135L506 120Q483 60 433 24T307 -12ZM302 498Q217
498 171 441T124 287V283H479V288Q479 385 433 441T302 498ZM323 756L447 620L426 605L302 730L178 605L157 620L281 756H323Z" />
<glyph unicode="&#xeb;" glyph-name="edieresis" d="M307 -12Q203 -12 145 57T86 258Q86 390 144 459T302 528Q354 528 394 510T461 457T502 375T516 269V255H124V229Q124 132 171 76T307 19Q369 19 412 48T478 135L506 120Q483 60 433 24T307 -12ZM302 498Q217
498 171 441T124 287V283H479V288Q479 385 433 441T302 498ZM211 642Q191 642 183 650T175 670V680Q175 692 183 700T211 708Q230 708 238 700T246 680V670Q246 658 238 650T211 642ZM393 642Q374 642 366 650T358 670V680Q358 692 366 700T393 708Q413 708 421
700T429 680V670Q429 658 421 650T393 642Z" />
<glyph unicode="&#xec;" glyph-name="igrave" d="M114 31H315V485H114V516H350V31H538V0H114V31ZM230 748L262 765L367 607L343 594L230 748Z" />
<glyph unicode="&#xed;" glyph-name="iacute" d="M114 31H315V485H114V516H350V31H538V0H114V31ZM320 594L296 607L401 765L433 748L320 594Z" />
<glyph unicode="&#xee;" glyph-name="icircumflex" d="M114 31H315V485H114V516H350V31H538V0H114V31ZM353 756L477 620L456 605L332 730L208 605L187 620L311 756H353Z" />
<glyph unicode="&#xef;" glyph-name="idieresis" d="M114 31H315V485H114V516H350V31H538V0H114V31ZM241 642Q221 642 213 650T205 670V680Q205 692 213 700T241 708Q260 708 268 700T276 680V670Q276 658 268 650T241 642ZM423 642Q404 642 396 650T388 670V680Q388
692 396 700T423 708Q443 708 451 700T459 680V670Q459 658 451 650T423 642Z" />
<glyph unicode="&#xf0;" glyph-name="eth" d="M440 731L335 655Q370 623 402 583T460 493T501 382T516 252Q516 188 501 139T457 57T389 6T301 -12Q252 -12 212 5T144 56T100 138T84 248Q84 309 99 357T142 438T209 489T295 507Q349 507 389 484T457 419L460 421Q428
495 392 546T310 638L207 564L190 585L290 655Q261 679 231 699T166 740H223Q244 727 267 711T315 674L423 752L440 731ZM300 19Q339 19 371 33T428 73T465 136T478 222V273Q478 321 465 358T428 422T372 462T300 476Q261 476 229 462T172 422T135 359T122 273V222Q122
174 135 137T172 73T228 33T300 19Z" />
<glyph unicode="&#xf1;" glyph-name="ntilde" d="M120 0V516H155V440H158Q165 457 177 473T209 501T254 520T314 528Q399 528 444 479T489 335V0H454V329Q454 417 416 457T306 497Q277 497 250 489T201 465T168 425T155 369V0H120ZM376 632Q357 632 340 639T299
661Q276 675 261 680T232 686Q214 686 199 679T168 655L151 673Q168 693 188 704T234 716Q253 716 270 709T311 687Q334 673 349 668T378 662Q396 662 411 669T442 693L459 675Q442 655 422 644T376 632Z" />
<glyph unicode="&#xf2;" glyph-name="ograve" d="M300 -12Q198 -12 141 57T84 258Q84 390 141 459T300 528Q402 528 459 459T516 258Q516 126 459 57T300 -12ZM300 19Q385 19 431 75T478 231V285Q478 385 432 441T300 497Q215 497 169 441T122 285V231Q122 131
168 75T300 19ZM198 748L230 765L335 607L311 594L198 748Z" />
<glyph unicode="&#xf3;" glyph-name="oacute" d="M300 -12Q198 -12 141 57T84 258Q84 390 141 459T300 528Q402 528 459 459T516 258Q516 126 459 57T300 -12ZM300 19Q385 19 431 75T478 231V285Q478 385 432 441T300 497Q215 497 169 441T122 285V231Q122 131
168 75T300 19ZM288 594L264 607L369 765L401 748L288 594Z" />
<glyph unicode="&#xf4;" glyph-name="ocircumflex" d="M300 -12Q198 -12 141 57T84 258Q84 390 141 459T300 528Q402 528 459 459T516 258Q516 126 459 57T300 -12ZM300 19Q385 19 431 75T478 231V285Q478 385 432 441T300 497Q215 497 169 441T122 285V231Q122
131 168 75T300 19ZM321 756L445 620L424 605L300 730L176 605L155 620L279 756H321Z" />
<glyph unicode="&#xf5;" glyph-name="otilde" d="M300 -12Q198 -12 141 57T84 258Q84 390 141 459T300 528Q402 528 459 459T516 258Q516 126 459 57T300 -12ZM300 19Q385 19 431 75T478 231V285Q478 385 432 441T300 497Q215 497 169 441T122 285V231Q122 131
168 75T300 19ZM371 632Q352 632 335 639T294 661Q271 675 256 680T227 686Q209 686 194 679T163 655L146 673Q163 693 183 704T229 716Q248 716 265 709T306 687Q329 673 344 668T373 662Q391 662 406 669T437 693L454 675Q437 655 417 644T371 632Z" />
<glyph unicode="&#xf6;" glyph-name="odieresis" d="M300 -12Q198 -12 141 57T84 258Q84 390 141 459T300 528Q402 528 459 459T516 258Q516 126 459 57T300 -12ZM300 19Q385 19 431 75T478 231V285Q478 385 432 441T300 497Q215 497 169 441T122 285V231Q122
131 168 75T300 19ZM209 642Q189 642 181 650T173 670V680Q173 692 181 700T209 708Q228 708 236 700T244 680V670Q244 658 236 650T209 642ZM391 642Q372 642 364 650T356 670V680Q356 692 364 700T391 708Q411 708 419 700T427 680V670Q427 658 419 650T391 642Z"
/>
<glyph unicode="&#xf7;" glyph-name="divide" d="M62 290V321H538V290H62ZM300 74Q279 74 269 83T259 106V117Q259 149 300 149Q341 149 341 117V106Q341 92 331 83T300 74ZM300 461Q279 461 269 470T259 493V505Q259 519 269 528T300 537Q321 537 331 528T341
505V493Q341 479 331 470T300 461Z" />
<glyph unicode="&#xf8;" glyph-name="oslash" d="M62 -13L131 72Q84 140 84 258Q84 390 141 459T300 528Q396 528 452 466L516 545L538 529L469 444Q516 376 516 258Q516 126 459 57T300 -12Q204 -12 148 50L84 -29L62 -13ZM300 497Q215 497 169 441T122 285V231Q122
152 153 98L431 441Q408 468 375 482T300 497ZM300 19Q385 19 431 75T478 231V285Q478 364 447 418L169 75Q216 19 300 19Z" />
<glyph unicode="&#xf9;" glyph-name="ugrave" d="M445 76H442Q428 42 391 15T286 -12Q201 -12 156 37T111 181V516H146V187Q146 99 184 59T294 19Q323 19 350 27T399 51T432 91T445 147V516H480V0H445V76ZM451 748L483 765L588 607L564 594L451 748Z" />
<glyph unicode="&#xfa;" glyph-name="uacute" d="M445 76H442Q428 42 391 15T286 -12Q201 -12 156 37T111 181V516H146V187Q146 99 184 59T294 19Q323 19 350 27T399 51T432 91T445 147V516H480V0H445V76ZM541 594L517 607L622 765L654 748L541 594Z" />
<glyph unicode="&#xfb;" glyph-name="ucircumflex" d="M445 76H442Q428 42 391 15T286 -12Q201 -12 156 37T111 181V516H146V187Q146 99 184 59T294 19Q323 19 350 27T399 51T432 91T445 147V516H480V0H445V76ZM574 756L698 620L677 605L553 730L429 605L408 620L532
756H574Z" />
<glyph unicode="&#xfc;" glyph-name="udieresis" d="M445 76H442Q428 42 391 15T286 -12Q201 -12 156 37T111 181V516H146V187Q146 99 184 59T294 19Q323 19 350 27T399 51T432 91T445 147V516H480V0H445V76ZM462 642Q442 642 434 650T426 670V680Q426 692 434
700T462 708Q481 708 489 700T497 680V670Q497 658 489 650T462 642ZM644 642Q625 642 617 650T609 670V680Q609 692 617 700T644 708Q664 708 672 700T680 680V670Q680 658 672 650T644 642Z" />
<glyph unicode="&#xfd;" glyph-name="yacute" d="M488 516H524L242 -165Q234 -183 222 -191T187 -200H91V-169H205L282 17L76 516H113L299 62H302L488 516ZM543 594L519 607L624 765L656 748L543 594Z" />
<glyph unicode="&#xfe;" glyph-name="thorn" d="M118 740H153V437H156Q165 455 179 471T214 500T260 520T319 528Q365 528 403 512T468 463T510 379T525 258Q525 188 510 137T468 53T403 4T319 -12Q286 -12 260 -5T214 16T180 45T156 79H153V-200H118V740ZM310
19Q391 19 439 72T487 226V290Q487 391 439 444T310 497Q279 497 251 488T201 462T166 421T153 368V148Q153 119 166 95T200 54T250 28T310 19Z" />
<glyph unicode="&#xff;" glyph-name="ydieresis" d="M488 516H524L242 -165Q234 -183 222 -191T187 -200H91V-169H205L282 17L76 516H113L299 62H302L488 516ZM464 642Q444 642 436 650T428 670V680Q428 692 436 700T464 708Q483 708 491 700T499 680V670Q499
658 491 650T464 642ZM646 642Q627 642 619 650T611 670V680Q611 692 619 700T646 708Q666 708 674 700T682 680V670Q682 658 674 650T646 642Z" />
<glyph unicode="&#x2013;" glyph-name="endash" d="M60 289V321H540V289H60Z" />
<glyph unicode="&#x2014;" glyph-name="emdash" d="M0 289V321H600V289H0Z" />
<glyph unicode="&#x2018;" glyph-name="quoteleft" d="M318 740H347L294 484H231L318 740Z" />
<glyph unicode="&#x2019;" glyph-name="quoteright" d="M306 740H369L282 484H253L306 740Z" />
<glyph unicode="&#x201a;" glyph-name="quotesinglbase" d="M277 92H340L253 -165H224L277 92Z" />
<glyph unicode="&#x201c;" glyph-name="quotedblleft" d="M485 740H514L461 484H398L485 740ZM410 740H439L386 484H323L410 740Z" />
<glyph unicode="&#x201d;" glyph-name="quotedblright" d="M473 740H536L449 484H420L473 740ZM398 740H461L374 484H345L398 740Z" />
<glyph unicode="&#x201e;" glyph-name="quotedblbase" d="M449 92H512L425 -165H396L449 92ZM374 92H437L350 -165H321L374 92Z" />
<glyph unicode="&#x2022;" glyph-name="bullet" d="M300 210Q249 210 227 233T205 292V316Q205 351 227 374T300 398Q351 398 373 375T395 316V292Q395 257 373 234T300 210Z" />
<glyph unicode="&#x2039;" glyph-name="guilsinglleft" d="M381 71L168 251V286L381 466L393 441L206 268L393 96L381 71Z" />
<glyph unicode="&#x203a;" glyph-name="guilsinglright" d="M207 96L394 268L207 441L219 466L432 286V251L219 71L207 96Z" />
</font>
</defs>
</svg>
