<?xml version="1.0" standalone="no"?>
<!DOCTYPE svg PUBLIC "-//W3C//DTD SVG 1.1//EN" "http://www.w3.org/Graphics/SVG/1.1/DTD/svg11.dtd">
<svg xmlns="http://www.w3.org/2000/svg">
<defs >
<font id="IBMPlexMono" horiz-adv-x="600" ><font-face
    font-family="IBM Plex Mono Light"
    units-per-em="1000"
    panose-1="2 11 4 9 5 2 3 0 2 3"
    ascent="1025"
    descent="-275"
    alphabetic="0" />
<glyph unicode=" " glyph-name="space" />
<glyph unicode="!" glyph-name="exclam" d="M288 211L269 464V698H331V464L312 211H288ZM300 -7Q268 -7 255 6T242 40V54Q242 74 255 87T300 101Q332 101 345 88T358 54V40Q358 19 345 6T300 -7Z" />
<glyph unicode="&quot;" glyph-name="quotedbl" d="M449 474V740H505V474H449ZM352 474V740H408V474H352Z" />
<glyph unicode="#" glyph-name="numbersign" d="M161 225H18V273H170L197 425H54V473H205L245 698H298L175 0H122L161 225ZM425 698H478L439 473H582V425H430L403 273H546V225H395L355 0H302L425 698Z" />
<glyph unicode="$" glyph-name="dollar" d="M286 -11Q200 -7 147 25T56 107L100 143Q136 97 179 71T286 40V332L258 337Q206 346 172 364T116 407T87 462T78 526Q78 612 133 658T286 709V811H331V709Q404 705 453 678T536 603L491 570Q463 608 426 630T331 657V382L361
377Q414 368 449 350T504 306T533 250T542 186Q542 96 487 46T331 -11V-113H286V-11ZM136 526Q136 464 172 434T274 391L286 389V658Q214 653 175 621T136 526ZM484 185Q484 251 447 281T340 323L331 325V41Q404 46 444 82T484 185Z" />
<glyph unicode="%" glyph-name="percent" d="M171 364Q140 364 114 374T68 406T37 460T26 537Q26 581 37 613T67 667T113 699T171 710Q202 710 228 700T273 668T304 614T315 537Q315 493 304 461T274 407T228 375T171 364ZM171 404Q210 404 237 431T265 516V558Q265
615 238 642T171 670Q131 670 104 643T76 558V516Q76 459 103 432T171 404ZM526 698H578L411 398H359L526 698ZM189 300H241L74 0H22L189 300ZM431 -12Q400 -12 373 -2T327 30T296 84T285 161Q285 205 296 237T326 291T372 323T430 334Q461 334 487 324T532 292T563
238T574 161Q574 117 563 85T533 31T488 -1T431 -12ZM430 28Q469 28 496 55T524 140V182Q524 239 497 266T430 294Q390 294 363 267T335 182V140Q335 83 362 56T430 28Z" />
<glyph unicode="&amp;" glyph-name="ampersand" d="M222 -12Q177 -12 142 2T82 42T45 102T32 178Q32 206 38 234T59 290T100 341T165 385Q136 420 117 459T98 545Q98 582 111 612T146 664T200 698T268 710Q300 710 326 701T372 678T407 646T429 608L381 583Q367
616 339 638T266 661Q214 661 185 631T155 549V538Q155 504 172 471T224 395L406 176H410Q418 213 421 261T429 372H554V323H477Q471 264 465 222T442 139L560 0H492L403 105H399Q379 51 334 20T222 -12ZM235 39Q286 39 323 62T382 126L192 351Q135 319 113 277T91
189V171Q91 113 130 76T235 39Z" />
<glyph unicode="&apos;" glyph-name="quotesingle" d="M272 474V740H328V474H272Z" />
<glyph unicode="(" glyph-name="parenleft" d="M218 311Q218 386 234 453T278 577T343 681T423 760H483Q439 727 401 683T334 585T289 471T272 344V278Q272 212 288 152T333 38T400 -60T483 -138H423Q381 -106 344 -60T279 44T235 169T218 311Z" />
<glyph unicode=")" glyph-name="parenright" d="M382 311Q382 236 366 169T322 45T257 -59T177 -138H117Q161 -105 199 -61T266 37T311 151T328 278V344Q328 410 312 470T267 584T200 682T117 760H177Q219 728 256 682T321 578T365 453T382 311Z" />
<glyph unicode="*" glyph-name="asterisk" d="M162 52L121 82L258 270L45 339L60 387L274 319V548H327V319L540 387L555 339L342 270L480 82L438 52L300 242L162 52Z" />
<glyph unicode="+" glyph-name="plus" d="M273 63V281H62V330H273V548H327V330H538V281H327V63H273Z" />
<glyph unicode="," glyph-name="comma" d="M267 113H363L262 -153H214L267 113Z" />
<glyph unicode="-" glyph-name="hyphen" d="M160 275V334H440V275H160Z" />
<glyph unicode="." glyph-name="period" d="M300 -7Q268 -7 255 6T242 40V54Q242 74 255 87T300 101Q332 101 345 88T358 54V40Q358 19 345 6T300 -7Z" />
<glyph unicode="/" glyph-name="slash" d="M96 -138L453 760H504L147 -138H96Z" />
<glyph unicode="0" glyph-name="zero" d="M300 -12Q179 -12 121 78T62 349Q62 529 120 619T300 710Q421 710 479 620T538 349Q538 169 480 79T300 -12ZM300 40Q390 40 432 108T474 302V396Q474 520 432 589T300 658Q210 658 168 589T126 396V302Q126 177 168 109T300
40ZM300 303Q274 303 263 314T252 341V357Q252 373 263 384T300 395Q326 395 337 384T348 357V341Q348 325 337 314T300 303Z" />
<glyph unicode="1" glyph-name="one" d="M90 0V52H298V654H293L101 483L67 521L266 698H357V52H552V0H90Z" />
<glyph unicode="2" glyph-name="two" d="M531 0H77V61L324 295Q375 343 406 392T437 497V516Q437 581 401 619T292 658Q222 658 184 624T127 531L74 550Q84 582 101 611T144 662T208 697T293 710Q343 710 381 696T446 655T486 593T500 511Q500 437 462 377T360
257L140 52H531V0Z" />
<glyph unicode="3" glyph-name="three" d="M274 392Q348 392 389 427T430 520V533Q430 593 391 625T288 658Q226 658 189 633T130 565L85 597Q97 619 115 639T158 676T215 701T289 710Q333 710 370 698T435 664T477 609T493 535Q493 500 483 472T454 424T410 391T355
370V366Q386 361 414 348T462 312T495 259T507 189Q507 144 491 107T445 43T373 3T279 -12Q237 -12 203 -4T142 20T94 57T57 102L102 136Q131 91 172 66T279 40Q356 40 400 78T444 183V199Q444 265 402 302T278 340H190V392H274Z" />
<glyph unicode="4" glyph-name="four" d="M391 0V146H39V199L364 698H448V195H557V146H448V0H391ZM93 195H391V647H388L93 195Z" />
<glyph unicode="5" glyph-name="five" d="M493 646H177L155 353L161 352Q188 389 223 407T315 426Q361 426 399 412T465 370T507 303T522 213Q522 162 507 121T462 50T390 4T296 -12Q255 -12 222 -4T162 20T114 57T77 102L123 136Q152 91 191 66T297 40Q375 40
417 84T460 200V216Q460 289 419 332T299 375Q271 375 250 371T213 358T182 338T155 311L103 319L128 698H493V646Z" />
<glyph unicode="6" glyph-name="six" d="M301 -12Q245 -12 203 6T131 58T88 139T73 244Q73 325 95 394T154 521T238 622T334 698H412Q353 658 308 618T228 534T172 438T136 326L140 325Q166 372 209 399T316 427Q363 427 401 412T468 370T511 303T526 214Q526
163 510 122T465 51T394 5T301 -12ZM300 39Q378 39 421 82T465 199V217Q465 290 422 333T300 377Q221 377 178 334T134 217V199Q134 126 177 83T300 39Z" />
<glyph unicode="7" glyph-name="seven" d="M178 0L463 646H124V502H70V698H524V645L243 0H178Z" />
<glyph unicode="8" glyph-name="eight" d="M300 -12Q243 -12 199 3T124 44T78 106T62 186Q62 259 101 303T208 363V370Q151 386 118 429T84 535Q84 615 141 662T300 710Q402 710 459 663T516 535Q516 472 483 429T392 370V363Q459 348 498 304T538 186Q538 143
523 107T477 44T402 3T300 -12ZM300 39Q381 39 428 77T476 179V202Q476 267 429 304T300 342Q218 342 171 305T124 202V179Q124 115 171 77T300 39ZM300 391Q373 391 414 424T455 516V534Q455 592 414 625T300 659Q228 659 187 626T145 534V516Q145 458 186 425T300
391Z" />
<glyph unicode="9" glyph-name="nine" d="M528 454Q528 373 506 304T446 177T363 76T267 0H189Q247 40 293 80T373 164T430 259T466 372L461 373Q435 326 392 299T285 271Q238 271 200 286T133 328T90 395T75 484Q75 535 91 576T136 647T208 693T301 710Q357 710
399 692T470 640T513 559T528 454ZM302 321Q380 321 423 364T467 481V498Q467 571 424 614T302 658Q224 658 180 615T136 498V481Q136 408 180 365T302 321Z" />
<glyph unicode=":" glyph-name="colon" d="M300 -7Q268 -7 255 6T242 40V54Q242 74 255 87T300 101Q332 101 345 88T358 54V40Q358 19 345 6T300 -7ZM300 416Q268 416 255 429T242 463V477Q242 497 255 510T300 524Q332 524 345 511T358 477V463Q358 442 345 429T300
416Z" />
<glyph unicode=";" glyph-name="semicolon" d="M267 113H363L262 -153H214L267 113ZM300 416Q268 416 255 429T242 463V477Q242 497 255 510T300 524Q332 524 345 511T358 477V463Q358 442 345 429T300 416Z" />
<glyph unicode="&lt;" glyph-name="less" d="M85 277V333L515 585V526L140 308V303L515 85V25L85 277Z" />
<glyph unicode="=" glyph-name="equal" d="M62 377V426H538V377H62ZM62 186V235H538V186H62Z" />
<glyph unicode="&gt;" glyph-name="greater" d="M85 84L460 302V307L85 525V585L515 333V277L85 25V84Z" />
<glyph unicode="?" glyph-name="question" d="M250 200V363Q341 366 392 404T443 513V532Q443 592 405 625T301 658Q235 658 196 624T140 533L86 552Q96 586 114 615T159 665T222 698T303 710Q397 710 451 660T505 525Q505 479 490 444T447 384T384 343T307 321V200H250ZM281
-7Q249 -7 236 6T222 40V54Q222 74 235 87T281 101Q312 101 325 88T339 54V40Q339 19 326 6T281 -7Z" />
<glyph unicode="@" glyph-name="at" d="M461 -110H327Q253 -110 204 -84T126 -5T86 122T74 297Q74 411 88 490T130 617T200 688T301 710Q359 710 399 691T465 638T501 559T512 463V93H461V150H457Q446 123 422 103T354 82Q291 82 255 132T218 293Q218 404 254
454T354 504Q398 504 422 484T457 436H461V463Q461 508 453 545T425 608T376 649T303 664Q256 664 223 646T169 588T138 488T128 342V246Q128 179 136 123T166 25T227 -40T327 -63H461V-110ZM371 126Q413 126 437 150T461 219V368Q461 413 437 437T371 461Q324
461 298 429T272 318V268Q272 191 298 159T371 126Z" />
<glyph unicode="A" glyph-name="A" d="M498 0L432 213H168L101 0H39L261 698H340L561 0H498ZM303 634H296L182 265H417L303 634Z" />
<glyph unicode="B" glyph-name="B" d="M92 698H323Q408 698 456 651T504 519Q504 454 476 417T400 364V362Q461 349 496 308T532 194Q532 152 519 117T482 55T425 15T350 0H92V698ZM335 52Q401 52 435 85T469 172V213Q469 267 435 300T335 333H152V52H335ZM318
383Q378 383 409 413T441 494V534Q441 585 410 615T318 646H152V383H318Z" />
<glyph unicode="C" glyph-name="C" d="M324 -12Q74 -12 74 349Q74 710 324 710Q367 710 400 698T458 666T500 619T530 562L479 539Q469 564 456 586T424 624T381 649T324 658Q230 658 184 590T138 396V302Q138 177 184 109T324 40Q356 40 380 49T423 74T455 111T479
159L530 136Q518 106 501 79T458 32T400 0T324 -12Z" />
<glyph unicode="D" glyph-name="D" d="M100 698H290Q417 698 477 610T538 349Q538 176 478 88T290 0H100V698ZM288 52Q383 52 428 118T474 304V394Q474 513 429 579T288 646H160V52H288Z" />
<glyph unicode="E" glyph-name="E" d="M97 0V698H518V646H157V380H505V328H157V52H518V0H97Z" />
<glyph unicode="F" glyph-name="F" d="M97 0V698H525V646H157V380H496V328H157V0H97Z" />
<glyph unicode="G" glyph-name="G" d="M462 97H458Q449 75 436 56T404 21T358 -3T293 -12Q179 -12 121 77T63 346Q63 531 124 620T308 710Q351 710 385 698T444 666T486 619T515 562L463 539Q444 590 409 624T310 658Q217 658 172 590T127 396V305Q127 181 169
110T305 39Q342 39 371 51T420 85T451 136T462 202V285H303V333H518V0H462V97Z" />
<glyph unicode="H" glyph-name="H" d="M453 328H147V0H87V698H147V380H453V698H513V0H453V328Z" />
<glyph unicode="I" glyph-name="I" d="M87 0V48H270V650H87V698H513V650H330V48H513V0H87Z" />
<glyph unicode="J" glyph-name="J" d="M473 698V184Q473 138 459 102T418 41T356 2T275 -12Q198 -12 148 26T83 135L140 148Q151 101 182 71T276 40Q342 40 377 79T413 194V646H149V698H473Z" />
<glyph unicode="K" glyph-name="K" d="M267 360L154 230V0H94V698H154V309H156L266 439L489 698H561L308 404L566 0H496L267 360Z" />
<glyph unicode="L" glyph-name="L" d="M130 0V698H190V52H532V0H130Z" />
<glyph unicode="M" glyph-name="M" d="M470 608H464L300 225L136 608H130V0H75V698H153L299 353H304L449 698H525V0H470V608Z" />
<glyph unicode="N" glyph-name="N" d="M147 619H142V0H87V698H172L453 79H458V698H513V0H428L147 619Z" />
<glyph unicode="O" glyph-name="O" d="M300 -12Q179 -12 121 78T62 349Q62 529 120 619T300 710Q421 710 479 620T538 349Q538 169 480 79T300 -12ZM300 40Q390 40 432 108T474 302V396Q474 520 432 589T300 658Q210 658 168 589T126 396V302Q126 177 168 109T300 40Z" />
<glyph unicode="P" glyph-name="P" d="M97 0V698H347Q440 698 488 646T536 502Q536 411 488 359T347 306H157V0H97ZM157 358H346Q409 358 441 392T473 478V526Q473 578 441 612T346 646H157V358Z" />
<glyph unicode="Q" glyph-name="Q" d="M485 -153H353Q311 -153 291 -131T271 -70V-10Q62 11 62 349Q62 529 120 619T300 710Q421 710 479 620T538 349Q538 11 329 -10V-104H485V-153ZM300 40Q390 40 432 108T474 302V396Q474 520 432 589T300 658Q210 658 168
589T126 396V302Q126 177 168 109T300 40Z" />
<glyph unicode="R" glyph-name="R" d="M157 0H97V698H347Q440 698 488 646T536 502Q536 417 493 366T364 310H349L538 0H471L287 307H157V0ZM346 358Q409 358 441 392T473 478V526Q473 578 441 612T346 646H157V358H346Z" />
<glyph unicode="S" glyph-name="S" d="M300 -12Q253 -12 216 -3T149 21T96 59T53 107L97 143Q136 93 183 67T302 40Q386 40 431 77T476 186Q476 251 439 282T332 324L254 337Q202 346 168 364T112 406T83 461T74 523Q74 617 135 663T301 710Q386 710 440 683T528
607L486 570Q456 612 413 635T299 658Q221 658 178 625T134 525Q134 464 170 433T277 390L354 377Q407 368 442 350T498 306T527 251T536 188Q536 92 474 40T300 -12Z" />
<glyph unicode="T" glyph-name="T" d="M330 646V0H270V646H31V698H569V646H330Z" />
<glyph unicode="U" glyph-name="U" d="M147 698V277Q147 216 152 172T173 98T219 54T300 40Q351 40 381 54T427 97T448 171T453 277V698H513V289Q513 209 505 153T473 59T408 5T300 -12Q234 -12 193 5T128 59T96 152T87 289V698H147Z" />
<glyph unicode="V" glyph-name="V" d="M259 0L43 698H107L299 62H303L496 698H557L341 0H259Z" />
<glyph unicode="W" glyph-name="W" d="M104 0L44 698H98L150 62H157L267 504H335L445 62H451L504 698H556L496 0H407L303 431H297L193 0H104Z" />
<glyph unicode="X" glyph-name="X" d="M566 0H497L303 310H300L101 0H35L267 355L46 698H115L301 404H304L492 698H558L337 357L566 0Z" />
<glyph unicode="Y" glyph-name="Y" d="M270 0V282L21 698H90L298 342H302L512 698H579L330 282V0H270Z" />
<glyph unicode="Z" glyph-name="Z" d="M552 0H48V54L467 646H67V698H533V644L113 52H552V0Z" />
<glyph unicode="[" glyph-name="bracketleft" d="M241 -138V760H504V715H290V-93H504V-138H241Z" />
<glyph unicode="\" glyph-name="backslash" d="M453 -138L96 760H147L504 -138H453Z" />
<glyph unicode="]" glyph-name="bracketright" d="M359 760V-138H96V-93H310V715H96V760H359Z" />
<glyph unicode="^" glyph-name="asciicircum" d="M499 301L300 647H297L99 301L54 323L268 698H332L546 323L499 301Z" />
<glyph unicode="_" glyph-name="underscore" d="M60 -158V-106H540V-158H60Z" />
<glyph unicode="`" glyph-name="grave" d="M193 746L245 772L340 608L302 590L193 746Z" />
<glyph unicode="a" glyph-name="a" d="M479 0Q444 0 429 17T412 63V81H407Q390 40 351 14T245 -12Q164 -12 118 27T71 139Q71 173 82 200T119 247T185 276T283 287H409V350Q409 415 374 447T275 479Q169 479 127 394L88 422Q108 467 155 497T278 528Q366 528 416
483T466 356V50H543V0H479ZM254 36Q287 36 315 44T364 66T397 102T409 149V244H283Q202 244 167 220T131 153V127Q131 82 164 59T254 36Z" />
<glyph unicode="b" glyph-name="b" d="M107 740H164V434H167Q189 476 228 502T327 528Q424 528 478 459T532 258Q532 127 478 58T327 -12Q268 -12 229 14T167 82H164V0H107V740ZM308 39Q386 39 428 88T471 222V294Q471 379 429 428T308 477Q279 477 253 469T207
446T176 409T164 360V156Q164 129 175 107T207 70T253 47T308 39Z" />
<glyph unicode="c" glyph-name="c" d="M320 -12Q212 -12 153 59T94 258Q94 386 153 457T319 528Q391 528 437 496T503 412L457 389Q441 432 406 455T319 478Q240 478 198 428T155 294V222Q155 139 197 89T320 38Q375 38 412 63T469 133L511 106Q489 55 442 22T320 -12Z" />
<glyph unicode="d" glyph-name="d" d="M436 82H433Q411 40 372 14T273 -12Q176 -12 122 57T68 258Q68 389 122 458T273 528Q332 528 371 502T433 434H436V740H493V0H436V82ZM292 39Q321 39 347 47T393 70T424 107T436 156V360Q436 387 425 409T393 446T347 469T292
477Q214 477 172 428T129 294V222Q129 137 171 88T292 39Z" />
<glyph unicode="e" glyph-name="e" d="M308 -12Q200 -12 139 58T77 257Q77 321 93 371T138 456T210 509T303 528Q355 528 396 510T465 457T509 376T524 272V247H137V222Q137 139 182 89T308 38Q365 38 405 64T468 141L511 114Q488 57 436 23T308 -12ZM303 480Q265
480 235 467T183 429T149 371T137 296V290H463V298Q463 382 421 431T303 480Z" />
<glyph unicode="f" glyph-name="f" d="M87 49H269V467H77V516H269V657Q269 695 288 717T350 740H540V691H326V516H540V467H326V49H517V0H87V49Z" />
<glyph unicode="g" glyph-name="g" d="M554 -61Q554 -139 490 -175T302 -212Q182 -212 129 -178T76 -83Q76 -39 100 -14T167 25V33Q118 52 118 103Q118 141 144 161T208 192V196Q162 216 137 256T111 352Q111 391 124 423T162 479T222 515T300 528Q362 528 406
502V523Q406 547 417 561T455 576H556V526H438V479Q463 456 476 424T490 352Q490 313 477 281T438 226T378 190T300 177Q286 177 274 178T248 182Q216 174 192 158T168 115Q168 70 252 70H375Q469 70 511 35T554 -61ZM500 -63Q500 -26 473 -5T375 17H206Q171 6
152 -15T132 -72Q132 -113 165 -139T267 -166H334Q411 -166 455 -141T500 -63ZM300 222Q365 222 397 254T430 336V369Q430 420 398 451T300 483Q236 483 204 452T171 369V336Q171 286 204 254T300 222Z" />
<glyph unicode="h" glyph-name="h" d="M109 740H166V436H170Q185 472 220 500T321 528Q405 528 451 478T498 333V0H441V323Q441 403 407 440T306 477Q279 477 254 470T210 449T178 414T166 363V0H109V740Z" />
<glyph unicode="i" glyph-name="i" d="M332 654Q305 654 294 665T282 694V707Q282 724 293 735T332 747Q359 747 370 736T382 707V694Q382 677 371 666T332 654ZM110 49H304V467H110V516H361V49H542V0H110V49Z" />
<glyph unicode="j" glyph-name="j" d="M106 -151H373V467H94V516H430V-117Q430 -155 411 -177T349 -200H106V-151ZM402 654Q375 654 364 665T352 694V707Q352 724 363 735T402 747Q429 747 440 736T451 707V694Q451 677 440 666T402 654Z" />
<glyph unicode="k" glyph-name="k" d="M118 740H175V252H179L280 344L472 516H543L322 314L569 0H498L278 280L175 189V0H118V740Z" />
<glyph unicode="l" glyph-name="l" d="M84 49H272V691H84V740H329V49H516V0H84V49Z" />
<glyph unicode="m" glyph-name="m" d="M62 0V516H115V456H118Q130 486 153 507T220 528Q264 528 288 507T318 447H320Q334 482 360 505T432 528Q492 528 515 489T539 374V0H486V365Q486 428 469 454T413 480Q377 480 352 456T327 381V0H274V365Q274 428 257 454T201
480Q165 480 140 456T115 381V0H62Z" />
<glyph unicode="n" glyph-name="n" d="M109 0V516H166V436H170Q185 472 220 500T321 528Q405 528 451 478T498 333V0H441V323Q441 403 407 440T306 477Q279 477 254 470T210 449T178 414T166 363V0H109Z" />
<glyph unicode="o" glyph-name="o" d="M300 -12Q194 -12 135 59T75 258Q75 386 134 457T300 528Q406 528 465 457T525 258Q525 130 466 59T300 -12ZM300 38Q376 38 420 86T464 226V290Q464 382 420 430T300 478Q224 478 180 430T136 290V226Q136 134 180 86T300 38Z" />
<glyph unicode="p" glyph-name="p" d="M107 516H164V434H167Q189 476 228 502T327 528Q424 528 478 459T532 258Q532 127 478 58T327 -12Q268 -12 229 14T167 82H164V-200H107V516ZM308 39Q386 39 428 88T471 222V294Q471 379 429 428T308 477Q279 477 253 469T207
446T176 409T164 360V156Q164 129 175 107T207 70T253 47T308 39Z" />
<glyph unicode="q" glyph-name="q" d="M436 82H433Q411 40 372 14T273 -12Q176 -12 122 57T68 258Q68 389 122 458T273 528Q332 528 371 502T433 434H436V516H493V-200H436V82ZM292 39Q321 39 347 47T393 70T424 107T436 156V360Q436 387 425 409T393 446T347
469T292 477Q214 477 172 428T129 294V222Q129 137 171 88T292 39Z" />
<glyph unicode="r" glyph-name="r" d="M78 49H240V467H78V516H297V398H301Q318 452 359 484T469 516H558V460H452Q382 460 340 419T297 307V49H507V0H78V49Z" />
<glyph unicode="s" glyph-name="s" d="M311 -12Q233 -12 176 14T76 89L115 123Q153 79 200 58T312 36Q380 36 422 62T465 142Q465 166 457 181T433 207T398 222T354 231L274 242Q244 246 214 253T159 276T119 316T103 380Q103 418 118 446T160 492T223 519T302
528Q374 528 423 505T507 446L469 410Q458 422 444 434T409 457T361 473T299 480Q233 480 197 456T160 384Q160 360 168 345T192 319T227 304T270 295L351 283Q381 278 411 271T466 248T506 209T521 145Q521 106 506 77T463 28T396 -2T311 -12Z" />
<glyph unicode="t" glyph-name="t" d="M302 0Q260 0 241 22T221 83V467H38V516H183Q205 516 214 525T223 556V698H278V516H524V467H278V49H524V0H302Z" />
<glyph unicode="u" glyph-name="u" d="M434 80H430Q415 44 380 16T279 -12Q195 -12 149 38T102 183V516H159V193Q159 113 193 76T294 39Q321 39 346 46T390 67T422 102T434 153V516H491V0H434V80Z" />
<glyph unicode="v" glyph-name="v" d="M264 0L75 516H133L299 50H303L468 516H525L336 0H264Z" />
<glyph unicode="w" glyph-name="w" d="M33 516H84L157 50H164L268 516H334L438 50H445L517 516H567L481 0H404L304 457H298L196 0H119L33 516Z" />
<glyph unicode="x" glyph-name="x" d="M72 0L266 261L76 516H145L301 304H304L459 516H524L333 262L529 0H460L299 219H296L138 0H72Z" />
<glyph unicode="y" glyph-name="y" d="M478 516H535L266 -140Q253 -171 234 -185T173 -200H87V-151H204L272 14L65 516H124L299 83H303L478 516Z" />
<glyph unicode="z" glyph-name="z" d="M92 0V55L436 467H102V516H498V461L154 49H508V0H92Z" />
<glyph unicode="{" glyph-name="braceleft" d="M309 -138Q278 -138 263 -121T247 -77V3Q247 31 252 52T265 88T282 115T299 137Q319 161 326 176T333 208Q333 250 295 269T183 289H109V333H183Q256 333 294 352T333 414Q333 431 326 446T299 485Q291 495 282 506T266
533T253 570T247 619V699Q247 726 262 743T309 760H491V715H297V622Q297 598 300 581T310 552T323 529T338 510Q358 484 370 462T383 413Q383 370 352 344T270 313V309Q321 304 352 278T383 209Q383 182 371 160T338 112Q331 103 324 93T310 71T301 41T297 0V-93H491V-138H309Z"
/>
<glyph unicode="|" glyph-name="bar" d="M275 -138V760H325V-138H275Z" />
<glyph unicode="}" glyph-name="braceright" d="M291 760Q322 760 337 743T353 699V619Q353 591 348 570T335 534T318 507T301 485Q281 461 274 446T267 414Q267 372 305 353T417 333H491V289H417Q344 289 306 270T267 208Q267 191 274 176T301 137Q308 127 317
116T334 89T347 52T353 3V-77Q353 -104 338 -121T291 -138H109V-93H303V0Q303 24 300 41T290 70T277 93T262 112Q242 138 230 160T217 209Q217 252 248 278T330 309V313Q279 318 248 344T217 413Q217 440 229 462T262 510Q269 519 276 529T290 551T299 581T303
622V715H109V760H291Z" />
<glyph unicode="~" glyph-name="asciitilde" d="M407 205Q374 205 347 224T290 279Q264 309 241 332T192 356Q158 356 135 318T99 213L54 223Q68 306 103 355T193 404Q226 404 253 385T310 330Q336 300 359 277T408 253Q442 253 465 291T501 396L546 386Q532 303
497 254T407 205Z" />
<glyph unicode="&#xa0;" glyph-name="uni00A0" />
<glyph unicode="&#xa1;" glyph-name="exclamdown" d="M269 -182V52L288 305H312L331 52V-182H269ZM300 415Q268 415 255 428T242 462V476Q242 497 255 510T300 523Q332 523 345 510T358 476V462Q358 442 345 429T300 415Z" />
<glyph unicode="&#xa2;" glyph-name="cent" d="M288 -114V-10Q195 1 145 70T94 258Q94 376 145 445T288 526V630H334V527Q400 524 442 492T503 412L457 389Q442 429 411 452T333 478V38Q383 41 416 66T469 133L511 106Q491 58 447 25T334 -11V-114H288ZM155 222Q155
147 189 99T289 40V476Q224 466 190 418T155 294V222Z" />
<glyph unicode="&#xa3;" glyph-name="sterling" d="M77 0V74Q119 97 141 136T163 230Q163 248 161 264T154 296H58V346H140Q127 383 115 420T102 503Q102 550 118 588T163 653T235 695T328 710Q402 710 454 680T541 596L495 565Q465 611 424 634T325 658Q251 658
207 620T163 500Q163 455 175 419T200 346H410V296H214Q217 282 219 268T221 237Q221 176 195 131T134 60V57H533V0H77Z" />
<glyph unicode="&#xa4;" glyph-name="currency" d="M300 123Q242 123 199 148L122 31L78 58L159 180Q104 238 104 349Q104 460 159 518L78 640L122 667L199 550Q242 575 300 575Q358 575 401 550L478 667L522 640L441 518Q496 460 496 349Q496 238 441 180L522
58L478 31L401 148Q358 123 300 123ZM300 171Q363 171 399 210T435 322V376Q435 449 399 488T300 527Q237 527 201 488T165 376V322Q165 249 201 210T300 171Z" />
<glyph unicode="&#xa5;" glyph-name="yen" d="M81 50H271V270H81V320H240L24 698H91L299 321H303L511 698H576L360 320H519V270H329V50H519V0H81V50Z" />
<glyph unicode="&#xa6;" glyph-name="brokenbar" d="M275 401V760H325V401H275ZM275 -138V221H325V-138H275Z" />
<glyph unicode="&#xa7;" glyph-name="section" d="M476 -3Q476 -39 462 -67T423 -115T363 -145T286 -155Q238 -155 196 -141T123 -99L156 -59Q180 -79 212 -92T287 -105Q350 -105 385 -79T420 -4Q420 41 389 65T307 105L242 125Q164 148 126 185T88 281Q88 333
118 370T201 427V431Q126 477 126 559Q126 595 140 623T179 670T239 700T316 710Q416 710 480 654L446 614Q422 635 391 647T315 660Q252 660 217 634T182 559Q182 514 213 490T295 450L361 431Q439 408 476 370T514 274Q514 222 485 186T401 128V124Q439 101 457
69T476 -3ZM458 261Q458 311 427 338T332 385L268 404Q257 406 248 409T229 417Q191 396 168 366T144 294Q144 244 175 216T271 170L335 152Q345 149 354 146T373 138Q412 159 435 189T458 261Z" />
<glyph unicode="&#xa8;" glyph-name="dieresis" d="M208 630Q183 630 173 640T162 667V679Q162 695 172 705T208 716Q233 716 243 706T254 679V667Q254 651 244 641T208 630ZM392 630Q367 630 357 640T346 667V679Q346 695 356 705T392 716Q417 716 427 706T438
679V667Q438 651 428 641T392 630Z" />
<glyph unicode="&#xa9;" glyph-name="copyright" d="M300 18Q238 18 184 41T89 107T25 211T2 349Q2 425 25 486T88 591T183 657T300 680Q362 680 416 657T511 591T575 487T598 349Q598 272 575 211T512 107T417 41T300 18ZM300 58Q354 58 400 78T480 135T533 219T552
324V374Q552 430 533 478T481 563T401 619T300 640Q246 640 200 620T120 563T67 479T48 374V324Q48 268 67 220T119 135T199 79T300 58ZM303 178Q236 178 198 223T160 349Q160 430 198 475T304 520Q349 520 377 500T420 447L382 427Q371 451 352 465T304 479Q260
479 236 451T211 371V328Q211 276 235 248T304 219Q336 219 356 234T389 274L425 252Q410 220 380 199T303 178Z" />
<glyph unicode="&#xaa;" glyph-name="ordfeminine" d="M456 364H417Q393 364 383 374T371 403V415H368Q357 392 330 374T256 356Q202 356 174 382T145 452Q145 550 287 550H369V589Q369 631 347 651T283 672Q213 672 188 617L157 641Q171 669 202 689T285 710Q346
710 380 680T415 592V404H456V364ZM285 516Q237 516 215 502T192 461V450Q192 421 211 408T264 394Q306 394 337 413T369 468V516H285Z" />
<glyph unicode="&#xab;" glyph-name="guillemotleft" d="M543 64L334 241V298L543 475L562 434L394 269L562 104L543 64ZM510 64L301 241V298L510 475L529 434L361 269L529 104L510 64Z" />
<glyph unicode="&#xac;" glyph-name="logicalnot" d="M472 88V281H62V330H522V88H472Z" />
<glyph unicode="&#xad;" glyph-name="uni00AD" d="M160 275V334H440V275H160Z" />
<glyph unicode="&#xae;" glyph-name="registered" d="M300 346Q262 346 229 360T171 398T132 455T118 528Q118 567 132 600T170 658T228 696T300 710Q338 710 371 696T429 658T468 601T482 528Q482 489 468 456T430 398T372 360T300 346ZM300 377Q331 377 357
387T403 417T434 462T446 519V537Q446 568 435 594T404 639T358 668T300 679Q269 679 243 669T197 639T166 594T154 537V519Q154 488 165 462T196 417T242 388T300 377ZM267 436H237V621H315Q342 621 357 607T373 565Q373 544 362 531T332 513L380 436H346L302
509H267V436ZM309 532Q341 532 341 561V568Q341 597 309 597H267V532H309Z" />
<glyph unicode="&#xaf;" glyph-name="overscore" d="M164 698H436V649H164V698Z" />
<glyph unicode="&#xb0;" glyph-name="degree" d="M300 382Q265 382 236 394T184 429T149 481T136 546Q136 581 148 611T183 663T235 697T300 710Q334 710 364 698T416 663T451 611T464 546Q464 511 452 481T417 429T364 395T300 382ZM300 428Q325 428 346 437T382
462T405 499T413 546Q413 571 405 592T382 630T346 655T300 664Q274 664 254 655T218 630T195 593T187 546Q187 521 195 500T218 462T253 437T300 428Z" />
<glyph unicode="&#xb1;" glyph-name="plusminus" d="M273 137V350H62V399H273V612H327V399H538V350H327V137H273ZM62 0V49H538V0H62Z" />
<glyph unicode="&#xb2;" glyph-name="twosuperior" d="M434 329H168V372L302 480Q337 509 354 535T372 590V598Q372 628 353 647T296 666Q256 666 235 648T204 600L164 614Q176 650 208 677T298 704Q358 704 389 674T421 597Q421 555 397 522T327 453L217 366H434V329Z" />
<glyph unicode="&#xb3;" glyph-name="threesuperior" d="M284 539Q329 539 349 556T369 602V607Q369 635 350 651T294 667Q261 667 240 655T204 621L172 646Q189 670 218 687T295 704Q351 704 384 679T418 609Q418 573 397 552T343 524V521Q379 515 402 493T425
431Q425 382 389 353T289 323Q238 323 208 341T159 385L193 410Q209 388 230 374T289 360Q332 360 354 379T376 431V437Q376 502 290 502H242V539H284Z" />
<glyph unicode="&#xb4;" glyph-name="acute" d="M297 590L260 608L355 772L407 746L297 590Z" />
<glyph unicode="&#xb5;" glyph-name="mu" d="M107 -200V516H164V195Q164 116 198 78T297 39Q324 39 349 46T393 67T424 102T436 153V516H493V0H436V80H432Q416 43 382 16T285 -12Q193 -12 163 60H159L164 -39V-200H107Z" />
<glyph unicode="&#xb6;" glyph-name="paragraph" d="M282 246Q233 246 191 263T119 310T71 381T54 472Q54 521 71 562T118 634T190 681T279 698H492V-149H439V651H335V-149H282V246Z" />
<glyph unicode="&#xb7;" glyph-name="middot" d="M300 250Q268 250 255 263T242 297V311Q242 331 255 344T300 358Q332 358 345 345T358 311V297Q358 277 345 264T300 250Z" />
<glyph unicode="&#xb8;" glyph-name="cedilla" d="M311 -205Q275 -205 252 -194T219 -168L247 -137Q257 -149 273 -157T311 -165Q334 -165 348 -156T362 -126Q362 -110 349 -99T297 -83L265 -80L285 13H322L305 -66L308 -68Q326 -63 343 -63Q372 -63 391 -79T411
-127Q411 -164 382 -184T311 -205Z" />
<glyph unicode="&#xb9;" glyph-name="onesuperior" d="M182 329V366H299V658L179 597L161 629L294 698H345V366H451V329H182Z" />
<glyph unicode="&#xba;" glyph-name="ordmasculine" d="M300 356Q227 356 187 403T147 534Q147 615 187 662T300 710Q372 710 412 663T453 534Q453 451 413 404T300 356ZM300 395Q351 395 376 428T402 509V558Q402 605 376 638T300 671Q250 671 224 638T198 558V509Q198
461 223 428T300 395Z" />
<glyph unicode="&#xbb;" glyph-name="guillemotright" d="M72 104L240 269L72 434L91 475L300 298V241L91 64L72 104ZM295 104L463 269L295 434L314 475L523 298V241L314 64L295 104Z" />
<glyph unicode="&#xbc;" glyph-name="onequarter" d="M40 400H143V657L40 605L22 637L138 698H188V400H280V363H40V400ZM526 698H578L407 398H355L526 698ZM193 300H245L74 0H22L193 300ZM488 70H315V113L472 335H533V106H584V70H533V0H488V70ZM488 106V295H485L351
106H488Z" />
<glyph unicode="&#xbd;" glyph-name="onehalf" d="M40 400H143V657L40 605L22 637L138 698H188V400H280V363H40V400ZM526 698H578L407 398H355L526 698ZM193 300H245L74 0H22L193 300ZM332 42L451 141Q480 165 495 189T511 239V245Q511 269 495 286T445 303Q411
303 394 287T365 242L326 258Q331 274 340 289T365 315T400 334T448 341Q502 341 530 314T559 245Q559 207 536 176T474 112L381 37H572V0H332V42Z" />
<glyph unicode="&#xbe;" glyph-name="threequarters" d="M143 357Q95 357 67 375T23 420L57 445Q71 423 90 409T143 395Q179 395 198 411T218 456V462Q218 518 140 518H100V556H137Q176 556 193 570T211 608V614Q211 637 194 651T145 666Q92 666 65 625L33 650Q50
674 77 689T147 704Q198 704 228 681T258 617Q258 585 239 566T190 540V537Q224 531 244 511T264 456Q264 411 232 384T143 357ZM526 698H578L407 398H355L526 698ZM193 300H245L74 0H22L193 300ZM488 70H315V113L472 335H533V106H584V70H533V0H488V70ZM488 106V295H485L351
106H488Z" />
<glyph unicode="&#xbf;" glyph-name="questiondown" d="M296 -194Q203 -194 149 -144T95 -9Q95 36 110 71T153 132T216 173T293 195V316H350V153Q259 149 208 111T157 1V-15Q157 -75 194 -108T298 -142Q363 -142 404 -107T462 -13L516 -32Q505 -67 487 -97T441
-148T377 -182T296 -194ZM319 415Q288 415 275 428T261 462V476Q261 497 274 510T319 523Q351 523 364 510T378 476V462Q378 442 365 429T319 415Z" />
<glyph unicode="&#xc0;" glyph-name="Agrave" d="M498 0L432 213H168L101 0H39L261 698H340L561 0H498ZM303 634H296L182 265H417L303 634ZM193 916L245 942L340 778L302 760L193 916Z" />
<glyph unicode="&#xc1;" glyph-name="Aacute" d="M498 0L432 213H168L101 0H39L261 698H340L561 0H498ZM303 634H296L182 265H417L303 634ZM297 760L260 778L355 942L407 916L297 760Z" />
<glyph unicode="&#xc2;" glyph-name="Acircumflex" d="M498 0L432 213H168L101 0H39L261 698H340L561 0H498ZM303 634H296L182 265H417L303 634ZM335 930L453 791L420 768L299 889L179 768L147 791L265 930H335Z" />
<glyph unicode="&#xc3;" glyph-name="Atilde" d="M498 0L432 213H168L101 0H39L261 698H340L561 0H498ZM303 634H296L182 265H417L303 634ZM372 792Q349 792 331 800T293 820Q270 833 255 838T225 844Q208 844 194 837T164 815L139 844Q155 864 177 878T228 892Q251
892 269 884T307 864Q330 851 345 846T375 840Q392 840 406 847T436 869L461 840Q445 820 423 806T372 792Z" />
<glyph unicode="&#xc4;" glyph-name="Adieresis" d="M498 0L432 213H168L101 0H39L261 698H340L561 0H498ZM303 634H296L182 265H417L303 634ZM208 800Q183 800 173 810T162 837V849Q162 865 172 875T208 886Q233 886 243 876T254 849V837Q254 821 244 811T208
800ZM392 800Q367 800 357 810T346 837V849Q346 865 356 875T392 886Q417 886 427 876T438 849V837Q438 821 428 811T392 800Z" />
<glyph unicode="&#xc5;" glyph-name="Aring" d="M498 0L432 213H168L101 0H39L261 698H340L561 0H498ZM303 634H296L182 265H417L303 634ZM300 755Q254 755 224 784T194 861Q194 907 224 936T300 966Q346 966 376 937T406 861Q406 814 376 785T300 755ZM300 792Q329
792 346 808T363 852V869Q363 898 346 913T300 929Q271 929 254 914T237 869V852Q237 824 254 808T300 792Z" />
<glyph unicode="&#xc6;" glyph-name="AE" d="M317 214H151L88 0H27L240 698H556V648H375V379H543V329H375V50H556V0H317V214ZM280 654L164 263H317V654H280Z" />
<glyph unicode="&#xc7;" glyph-name="Ccedilla" d="M324 658Q230 658 184 590T138 396V302Q138 177 184 109T324 40Q356 40 380 49T423 74T455 111T479 159L530 136Q518 106 501 80T459 33T403 1T328 -12H326L315 -66L318 -68Q336 -63 353 -63Q382 -63 401 -79T421
-127Q421 -164 392 -184T321 -205Q285 -205 262 -194T229 -168L257 -137Q267 -149 283 -157T321 -165Q343 -165 357 -156T372 -126Q372 -110 359 -99T307 -83L275 -80L290 -10Q74 14 74 349Q74 710 324 710Q367 710 400 698T458 666T500 619T530 562L479 539Q469
564 456 586T424 624T381 649T324 658Z" />
<glyph unicode="&#xc8;" glyph-name="Egrave" d="M97 0V698H518V646H157V380H505V328H157V52H518V0H97ZM200 916L252 942L347 778L309 760L200 916Z" />
<glyph unicode="&#xc9;" glyph-name="Eacute" d="M97 0V698H518V646H157V380H505V328H157V52H518V0H97ZM304 760L267 778L362 942L414 916L304 760Z" />
<glyph unicode="&#xca;" glyph-name="Ecircumflex" d="M97 0V698H518V646H157V380H505V328H157V52H518V0H97ZM342 930L460 791L427 768L306 889L186 768L154 791L272 930H342Z" />
<glyph unicode="&#xcb;" glyph-name="Edieresis" d="M97 0V698H518V646H157V380H505V328H157V52H518V0H97ZM215 800Q190 800 180 810T169 837V849Q169 865 179 875T215 886Q240 886 250 876T261 849V837Q261 821 251 811T215 800ZM399 800Q374 800 364 810T353
837V849Q353 865 363 875T399 886Q424 886 434 876T445 849V837Q445 821 435 811T399 800Z" />
<glyph unicode="&#xcc;" glyph-name="Igrave" d="M87 0V48H270V650H87V698H513V650H330V48H513V0H87ZM193 916L245 942L340 778L302 760L193 916Z" />
<glyph unicode="&#xcd;" glyph-name="Iacute" d="M87 0V48H270V650H87V698H513V650H330V48H513V0H87ZM297 760L260 778L355 942L407 916L297 760Z" />
<glyph unicode="&#xce;" glyph-name="Icircumflex" d="M87 0V48H270V650H87V698H513V650H330V48H513V0H87ZM335 930L453 791L420 768L299 889L179 768L147 791L265 930H335Z" />
<glyph unicode="&#xcf;" glyph-name="Idieresis" d="M87 0V48H270V650H87V698H513V650H330V48H513V0H87ZM208 800Q183 800 173 810T162 837V849Q162 865 172 875T208 886Q233 886 243 876T254 849V837Q254 821 244 811T208 800ZM392 800Q367 800 357 810T346 837V849Q346
865 356 875T392 886Q417 886 427 876T438 849V837Q438 821 428 811T392 800Z" />
<glyph unicode="&#xd0;" glyph-name="Eth" d="M112 344H26V391H112V698H290Q417 698 477 611T537 349Q537 175 477 88T290 0H112V344ZM288 52Q382 52 428 118T474 304V394Q474 513 428 579T288 646H172V391H327V344H172V52H288Z" />
<glyph unicode="&#xd1;" glyph-name="Ntilde" d="M147 619H142V0H87V698H172L453 79H458V698H513V0H428L147 619ZM372 792Q349 792 331 800T293 820Q270 833 255 838T225 844Q208 844 194 837T164 815L139 844Q155 864 177 878T228 892Q251 892 269 884T307 864Q330
851 345 846T375 840Q392 840 406 847T436 869L461 840Q445 820 423 806T372 792Z" />
<glyph unicode="&#xd2;" glyph-name="Ograve" d="M300 -12Q179 -12 121 78T62 349Q62 529 120 619T300 710Q421 710 479 620T538 349Q538 169 480 79T300 -12ZM300 40Q390 40 432 108T474 302V396Q474 520 432 589T300 658Q210 658 168 589T126 396V302Q126 177
168 109T300 40ZM193 916L245 942L340 778L302 760L193 916Z" />
<glyph unicode="&#xd3;" glyph-name="Oacute" d="M300 -12Q179 -12 121 78T62 349Q62 529 120 619T300 710Q421 710 479 620T538 349Q538 169 480 79T300 -12ZM300 40Q390 40 432 108T474 302V396Q474 520 432 589T300 658Q210 658 168 589T126 396V302Q126 177
168 109T300 40ZM297 760L260 778L355 942L407 916L297 760Z" />
<glyph unicode="&#xd4;" glyph-name="Ocircumflex" d="M300 -12Q179 -12 121 78T62 349Q62 529 120 619T300 710Q421 710 479 620T538 349Q538 169 480 79T300 -12ZM300 40Q390 40 432 108T474 302V396Q474 520 432 589T300 658Q210 658 168 589T126 396V302Q126
177 168 109T300 40ZM335 930L453 791L420 768L299 889L179 768L147 791L265 930H335Z" />
<glyph unicode="&#xd5;" glyph-name="Otilde" d="M300 -12Q179 -12 121 78T62 349Q62 529 120 619T300 710Q421 710 479 620T538 349Q538 169 480 79T300 -12ZM300 40Q390 40 432 108T474 302V396Q474 520 432 589T300 658Q210 658 168 589T126 396V302Q126 177
168 109T300 40ZM372 792Q349 792 331 800T293 820Q270 833 255 838T225 844Q208 844 194 837T164 815L139 844Q155 864 177 878T228 892Q251 892 269 884T307 864Q330 851 345 846T375 840Q392 840 406 847T436 869L461 840Q445 820 423 806T372 792Z" />
<glyph unicode="&#xd6;" glyph-name="Odieresis" d="M300 -12Q179 -12 121 78T62 349Q62 529 120 619T300 710Q421 710 479 620T538 349Q538 169 480 79T300 -12ZM300 40Q390 40 432 108T474 302V396Q474 520 432 589T300 658Q210 658 168 589T126 396V302Q126
177 168 109T300 40ZM208 800Q183 800 173 810T162 837V849Q162 865 172 875T208 886Q233 886 243 876T254 849V837Q254 821 244 811T208 800ZM392 800Q367 800 357 810T346 837V849Q346 865 356 875T392 886Q417 886 427 876T438 849V837Q438 821 428 811T392
800Z" />
<glyph unicode="&#xd7;" glyph-name="multiply" d="M300 270L130 100L95 135L265 305L95 475L130 510L300 340L470 510L505 475L335 305L505 135L470 100L300 270Z" />
<glyph unicode="&#xd8;" glyph-name="Oslash" d="M300 -12Q203 -12 149 45L102 -33L59 -8L115 87Q88 132 75 197T62 349Q62 529 120 619T300 710Q397 710 451 653L498 731L541 706L485 611Q512 566 525 501T538 349Q538 169 480 79T300 -12ZM126 302Q126 202 152
144L423 602Q401 629 371 643T300 658Q210 658 168 589T126 396V302ZM300 40Q390 40 432 108T474 302V396Q474 496 448 554L177 96Q199 69 229 55T300 40Z" />
<glyph unicode="&#xd9;" glyph-name="Ugrave" d="M147 698V277Q147 216 152 172T173 98T219 54T300 40Q351 40 381 54T427 97T448 171T453 277V698H513V289Q513 209 505 153T473 59T408 5T300 -12Q234 -12 193 5T128 59T96 152T87 289V698H147ZM193 916L245 942L340
778L302 760L193 916Z" />
<glyph unicode="&#xda;" glyph-name="Uacute" d="M147 698V277Q147 216 152 172T173 98T219 54T300 40Q351 40 381 54T427 97T448 171T453 277V698H513V289Q513 209 505 153T473 59T408 5T300 -12Q234 -12 193 5T128 59T96 152T87 289V698H147ZM297 760L260 778L355
942L407 916L297 760Z" />
<glyph unicode="&#xdb;" glyph-name="Ucircumflex" d="M147 698V277Q147 216 152 172T173 98T219 54T300 40Q351 40 381 54T427 97T448 171T453 277V698H513V289Q513 209 505 153T473 59T408 5T300 -12Q234 -12 193 5T128 59T96 152T87 289V698H147ZM335 930L453
791L420 768L299 889L179 768L147 791L265 930H335Z" />
<glyph unicode="&#xdc;" glyph-name="Udieresis" d="M147 698V277Q147 216 152 172T173 98T219 54T300 40Q351 40 381 54T427 97T448 171T453 277V698H513V289Q513 209 505 153T473 59T408 5T300 -12Q234 -12 193 5T128 59T96 152T87 289V698H147ZM208 800Q183
800 173 810T162 837V849Q162 865 172 875T208 886Q233 886 243 876T254 849V837Q254 821 244 811T208 800ZM392 800Q367 800 357 810T346 837V849Q346 865 356 875T392 886Q417 886 427 876T438 849V837Q438 821 428 811T392 800Z" />
<glyph unicode="&#xdd;" glyph-name="Yacute" d="M270 0V282L21 698H90L298 342H302L512 698H579L330 282V0H270ZM297 760L260 778L355 942L407 916L297 760Z" />
<glyph unicode="&#xde;" glyph-name="Thorn" d="M97 0V698H157V549H347Q440 549 488 497T536 354Q536 265 488 213T347 160H157V0H97ZM157 212H347Q410 212 442 245T474 330V378Q474 430 442 463T347 497H157V212Z" />
<glyph unicode="&#xdf;" glyph-name="germandbls" d="M117 0V657Q117 695 136 717T198 740H366V691H174V516H527V460L332 210Q446 206 507 159T569 12Q569 -93 501 -146T309 -200H244V-151H309Q508 -151 508 0V27Q508 102 455 134T297 166H277V216L473 467H174V0H117Z" />
<glyph unicode="&#xe0;" glyph-name="agrave" d="M479 0Q444 0 429 17T412 63V81H407Q390 40 351 14T245 -12Q164 -12 118 27T71 139Q71 173 82 200T119 247T185 276T283 287H409V350Q409 415 374 447T275 479Q169 479 127 394L88 422Q108 467 155 497T278 528Q366
528 416 483T466 356V50H543V0H479ZM254 36Q287 36 315 44T364 66T397 102T409 149V244H283Q202 244 167 220T131 153V127Q131 82 164 59T254 36ZM430 746L482 772L577 608L539 590L430 746Z" />
<glyph unicode="&#xe1;" glyph-name="aacute" d="M479 0Q444 0 429 17T412 63V81H407Q390 40 351 14T245 -12Q164 -12 118 27T71 139Q71 173 82 200T119 247T185 276T283 287H409V350Q409 415 374 447T275 479Q169 479 127 394L88 422Q108 467 155 497T278 528Q366
528 416 483T466 356V50H543V0H479ZM254 36Q287 36 315 44T364 66T397 102T409 149V244H283Q202 244 167 220T131 153V127Q131 82 164 59T254 36ZM534 590L497 608L592 772L644 746L534 590Z" />
<glyph unicode="&#xe2;" glyph-name="acircumflex" d="M479 0Q444 0 429 17T412 63V81H407Q390 40 351 14T245 -12Q164 -12 118 27T71 139Q71 173 82 200T119 247T185 276T283 287H409V350Q409 415 374 447T275 479Q169 479 127 394L88 422Q108 467 155 497T278
528Q366 528 416 483T466 356V50H543V0H479ZM254 36Q287 36 315 44T364 66T397 102T409 149V244H283Q202 244 167 220T131 153V127Q131 82 164 59T254 36ZM572 760L690 621L657 598L536 719L416 598L384 621L502 760H572Z" />
<glyph unicode="&#xe3;" glyph-name="atilde" d="M479 0Q444 0 429 17T412 63V81H407Q390 40 351 14T245 -12Q164 -12 118 27T71 139Q71 173 82 200T119 247T185 276T283 287H409V350Q409 415 374 447T275 479Q169 479 127 394L88 422Q108 467 155 497T278 528Q366
528 416 483T466 356V50H543V0H479ZM254 36Q287 36 315 44T364 66T397 102T409 149V244H283Q202 244 167 220T131 153V127Q131 82 164 59T254 36ZM609 622Q586 622 568 630T530 650Q507 663 492 668T462 674Q445 674 431 667T401 645L376 674Q392 694 414 708T465
722Q488 722 506 714T544 694Q567 681 582 676T612 670Q629 670 643 677T673 699L698 670Q682 650 660 636T609 622Z" />
<glyph unicode="&#xe4;" glyph-name="adieresis" d="M479 0Q444 0 429 17T412 63V81H407Q390 40 351 14T245 -12Q164 -12 118 27T71 139Q71 173 82 200T119 247T185 276T283 287H409V350Q409 415 374 447T275 479Q169 479 127 394L88 422Q108 467 155 497T278
528Q366 528 416 483T466 356V50H543V0H479ZM254 36Q287 36 315 44T364 66T397 102T409 149V244H283Q202 244 167 220T131 153V127Q131 82 164 59T254 36ZM445 630Q420 630 410 640T399 667V679Q399 695 409 705T445 716Q470 716 480 706T491 679V667Q491 651 481
641T445 630ZM629 630Q604 630 594 640T583 667V679Q583 695 593 705T629 716Q654 716 664 706T675 679V667Q675 651 665 641T629 630Z" />
<glyph unicode="&#xe5;" glyph-name="aring" d="M479 0Q444 0 429 17T412 63V81H407Q390 40 351 14T245 -12Q164 -12 118 27T71 139Q71 173 82 200T119 247T185 276T283 287H409V350Q409 415 374 447T275 479Q169 479 127 394L88 422Q108 467 155 497T278 528Q366
528 416 483T466 356V50H543V0H479ZM254 36Q287 36 315 44T364 66T397 102T409 149V244H283Q202 244 167 220T131 153V127Q131 82 164 59T254 36ZM537 585Q491 585 461 614T431 691Q431 737 461 766T537 796Q583 796 613 767T643 691Q643 644 613 615T537 585ZM537
622Q566 622 583 638T600 682V699Q600 728 583 743T537 759Q508 759 491 744T474 699V682Q474 654 491 638T537 622Z" />
<glyph unicode="&#xe6;" glyph-name="ae" d="M147 -12Q89 -12 52 26T15 137Q15 215 61 251T195 287H265V354Q265 426 240 455T172 484Q150 484 134 478T104 460T82 433T65 401L26 425Q34 445 47 463T79 496T121 519T174 528Q220 528 252 506T299 435H302Q322 486
354 507T429 528Q501 528 540 472T579 300V246H317V224Q317 129 346 82T424 34Q464 34 489 62T529 134L572 115Q564 91 552 68T520 27T477 -1T422 -12Q373 -12 337 18T283 109H280Q268 49 233 19T147 -12ZM156 33Q183 33 203 42T237 69T258 109T265 158V246H201Q136
246 103 224T69 148V132Q69 87 90 60T156 33ZM426 485Q375 485 346 445T317 317V287H531V323Q531 411 503 448T426 485Z" />
<glyph unicode="&#xe7;" glyph-name="ccedilla" d="M319 528Q391 528 437 496T503 412L457 389Q441 432 406 455T319 478Q240 478 198 428T155 294V222Q155 139 197 89T320 38Q375 38 412 63T469 133L511 106Q489 56 443 23T325 -12L313 -66L316 -68Q334 -63 351
-63Q380 -63 399 -79T419 -127Q419 -164 390 -184T319 -205Q284 -205 261 -194T227 -168L256 -137Q265 -149 281 -157T319 -165Q342 -165 356 -156T370 -126Q370 -110 357 -99T305 -83L273 -80L288 -10Q196 1 145 70T94 258Q94 386 153 457T319 528Z" />
<glyph unicode="&#xe8;" glyph-name="egrave" d="M308 -12Q200 -12 139 58T77 257Q77 321 93 371T138 456T210 509T303 528Q355 528 396 510T465 457T509 376T524 272V247H137V222Q137 139 182 89T308 38Q365 38 405 64T468 141L511 114Q488 57 436 23T308 -12ZM303
480Q265 480 235 467T183 429T149 371T137 296V290H463V298Q463 382 421 431T303 480ZM195 746L247 772L342 608L304 590L195 746Z" />
<glyph unicode="&#xe9;" glyph-name="eacute" d="M308 -12Q200 -12 139 58T77 257Q77 321 93 371T138 456T210 509T303 528Q355 528 396 510T465 457T509 376T524 272V247H137V222Q137 139 182 89T308 38Q365 38 405 64T468 141L511 114Q488 57 436 23T308 -12ZM303
480Q265 480 235 467T183 429T149 371T137 296V290H463V298Q463 382 421 431T303 480ZM299 590L262 608L357 772L409 746L299 590Z" />
<glyph unicode="&#xea;" glyph-name="ecircumflex" d="M308 -12Q200 -12 139 58T77 257Q77 321 93 371T138 456T210 509T303 528Q355 528 396 510T465 457T509 376T524 272V247H137V222Q137 139 182 89T308 38Q365 38 405 64T468 141L511 114Q488 57 436 23T308
-12ZM303 480Q265 480 235 467T183 429T149 371T137 296V290H463V298Q463 382 421 431T303 480ZM337 760L455 621L422 598L301 719L181 598L149 621L267 760H337Z" />
<glyph unicode="&#xeb;" glyph-name="edieresis" d="M308 -12Q200 -12 139 58T77 257Q77 321 93 371T138 456T210 509T303 528Q355 528 396 510T465 457T509 376T524 272V247H137V222Q137 139 182 89T308 38Q365 38 405 64T468 141L511 114Q488 57 436 23T308
-12ZM303 480Q265 480 235 467T183 429T149 371T137 296V290H463V298Q463 382 421 431T303 480ZM210 630Q185 630 175 640T164 667V679Q164 695 174 705T210 716Q235 716 245 706T256 679V667Q256 651 246 641T210 630ZM394 630Q369 630 359 640T348 667V679Q348
695 358 705T394 716Q419 716 429 706T440 679V667Q440 651 430 641T394 630Z" />
<glyph unicode="&#xec;" glyph-name="igrave" d="M110 49H304V467H110V516H361V49H542V0H110V49ZM225 746L277 772L372 608L334 590L225 746Z" />
<glyph unicode="&#xed;" glyph-name="iacute" d="M110 49H304V467H110V516H361V49H542V0H110V49ZM329 590L292 608L387 772L439 746L329 590Z" />
<glyph unicode="&#xee;" glyph-name="icircumflex" d="M110 49H304V467H110V516H361V49H542V0H110V49ZM367 760L485 621L452 598L331 719L211 598L179 621L297 760H367Z" />
<glyph unicode="&#xef;" glyph-name="idieresis" d="M110 49H304V467H110V516H361V49H542V0H110V49ZM240 630Q215 630 205 640T194 667V679Q194 695 204 705T240 716Q265 716 275 706T286 679V667Q286 651 276 641T240 630ZM424 630Q399 630 389 640T378 667V679Q378
695 388 705T424 716Q449 716 459 706T470 679V667Q470 651 460 641T424 630Z" />
<glyph unicode="&#xf0;" glyph-name="eth" d="M449 720L353 651Q386 620 417 580T472 492T510 385T525 259Q525 192 509 142T464 57T394 6T302 -12Q249 -12 207 6T136 57T91 139T75 247Q75 307 90 355T134 436T202 488T288 506Q345 506 385 480T451 414L455 416Q426
484 391 533T313 623L211 551L184 584L280 651Q249 676 216 698T147 740H238Q257 728 278 714T321 681L422 753L449 720ZM300 38Q373 38 418 83T464 217V277Q464 365 419 410T300 456Q227 456 182 411T136 277V217Q136 129 181 84T300 38Z" />
<glyph unicode="&#xf1;" glyph-name="ntilde" d="M109 0V516H166V436H170Q185 472 220 500T321 528Q405 528 451 478T498 333V0H441V323Q441 403 407 440T306 477Q279 477 254 470T210 449T178 414T166 363V0H109ZM376 622Q353 622 335 630T297 650Q274 663 259
668T229 674Q212 674 198 667T168 645L143 674Q159 694 181 708T232 722Q255 722 273 714T311 694Q334 681 349 676T379 670Q396 670 410 677T440 699L465 670Q449 650 427 636T376 622Z" />
<glyph unicode="&#xf2;" glyph-name="ograve" d="M300 -12Q194 -12 135 59T75 258Q75 386 134 457T300 528Q406 528 465 457T525 258Q525 130 466 59T300 -12ZM300 38Q376 38 420 86T464 226V290Q464 382 420 430T300 478Q224 478 180 430T136 290V226Q136 134
180 86T300 38ZM193 746L245 772L340 608L302 590L193 746Z" />
<glyph unicode="&#xf3;" glyph-name="oacute" d="M300 -12Q194 -12 135 59T75 258Q75 386 134 457T300 528Q406 528 465 457T525 258Q525 130 466 59T300 -12ZM300 38Q376 38 420 86T464 226V290Q464 382 420 430T300 478Q224 478 180 430T136 290V226Q136 134
180 86T300 38ZM297 590L260 608L355 772L407 746L297 590Z" />
<glyph unicode="&#xf4;" glyph-name="ocircumflex" d="M300 -12Q194 -12 135 59T75 258Q75 386 134 457T300 528Q406 528 465 457T525 258Q525 130 466 59T300 -12ZM300 38Q376 38 420 86T464 226V290Q464 382 420 430T300 478Q224 478 180 430T136 290V226Q136
134 180 86T300 38ZM335 760L453 621L420 598L299 719L179 598L147 621L265 760H335Z" />
<glyph unicode="&#xf5;" glyph-name="otilde" d="M300 -12Q194 -12 135 59T75 258Q75 386 134 457T300 528Q406 528 465 457T525 258Q525 130 466 59T300 -12ZM300 38Q376 38 420 86T464 226V290Q464 382 420 430T300 478Q224 478 180 430T136 290V226Q136 134
180 86T300 38ZM372 622Q349 622 331 630T293 650Q270 663 255 668T225 674Q208 674 194 667T164 645L139 674Q155 694 177 708T228 722Q251 722 269 714T307 694Q330 681 345 676T375 670Q392 670 406 677T436 699L461 670Q445 650 423 636T372 622Z" />
<glyph unicode="&#xf6;" glyph-name="odieresis" d="M300 -12Q194 -12 135 59T75 258Q75 386 134 457T300 528Q406 528 465 457T525 258Q525 130 466 59T300 -12ZM300 38Q376 38 420 86T464 226V290Q464 382 420 430T300 478Q224 478 180 430T136 290V226Q136
134 180 86T300 38ZM208 630Q183 630 173 640T162 667V679Q162 695 172 705T208 716Q233 716 243 706T254 679V667Q254 651 244 641T208 630ZM392 630Q367 630 357 640T346 667V679Q346 695 356 705T392 716Q417 716 427 706T438 679V667Q438 651 428 641T392 630Z"
/>
<glyph unicode="&#xf7;" glyph-name="divide" d="M62 281V330H538V281H62ZM300 63Q272 63 261 74T249 103V119Q249 136 260 147T300 159Q328 159 339 148T351 119V103Q351 86 340 75T300 63ZM300 451Q272 451 261 462T249 491V507Q249 524 260 535T300 547Q328
547 339 536T351 507V491Q351 474 340 463T300 451Z" />
<glyph unicode="&#xf8;" glyph-name="oslash" d="M55 -10L124 74Q101 109 88 155T75 258Q75 386 134 457T300 528Q346 528 383 514T448 472L512 551L545 526L476 442Q499 407 512 361T525 258Q525 130 466 59T300 -12Q254 -12 217 2T152 44L88 -35L55 -10ZM300
478Q224 478 180 430T136 290V226Q136 161 159 118L416 433Q374 478 300 478ZM300 38Q376 38 420 86T464 226V290Q464 355 441 398L184 83Q226 38 300 38Z" />
<glyph unicode="&#xf9;" glyph-name="ugrave" d="M434 80H430Q415 44 380 16T279 -12Q195 -12 149 38T102 183V516H159V193Q159 113 193 76T294 39Q321 39 346 46T390 67T422 102T434 153V516H491V0H434V80ZM447 746L499 772L594 608L556 590L447 746Z" />
<glyph unicode="&#xfa;" glyph-name="uacute" d="M434 80H430Q415 44 380 16T279 -12Q195 -12 149 38T102 183V516H159V193Q159 113 193 76T294 39Q321 39 346 46T390 67T422 102T434 153V516H491V0H434V80ZM551 590L514 608L609 772L661 746L551 590Z" />
<glyph unicode="&#xfb;" glyph-name="ucircumflex" d="M434 80H430Q415 44 380 16T279 -12Q195 -12 149 38T102 183V516H159V193Q159 113 193 76T294 39Q321 39 346 46T390 67T422 102T434 153V516H491V0H434V80ZM589 760L707 621L674 598L553 719L433 598L401
621L519 760H589Z" />
<glyph unicode="&#xfc;" glyph-name="udieresis" d="M434 80H430Q415 44 380 16T279 -12Q195 -12 149 38T102 183V516H159V193Q159 113 193 76T294 39Q321 39 346 46T390 67T422 102T434 153V516H491V0H434V80ZM462 630Q437 630 427 640T416 667V679Q416 695 426
705T462 716Q487 716 497 706T508 679V667Q508 651 498 641T462 630ZM646 630Q621 630 611 640T600 667V679Q600 695 610 705T646 716Q671 716 681 706T692 679V667Q692 651 682 641T646 630Z" />
<glyph unicode="&#xfd;" glyph-name="yacute" d="M478 516H535L266 -140Q253 -171 234 -185T173 -200H87V-151H204L272 14L65 516H124L299 83H303L478 516ZM297 590L260 608L355 772L407 746L297 590Z" />
<glyph unicode="&#xfe;" glyph-name="thorn" d="M107 740H164V434H167Q189 476 228 502T328 528Q422 528 477 460T532 258Q532 124 477 56T328 -12Q268 -12 229 14T167 82H164V-200H107V740ZM309 39Q384 39 427 86T471 220V296Q471 382 428 429T309 477Q280 477
254 469T207 446T176 409T164 360V156Q164 129 175 107T207 70T253 47T309 39Z" />
<glyph unicode="&#xff;" glyph-name="ydieresis" d="M478 516H535L266 -140Q253 -171 234 -185T173 -200H87V-151H204L272 14L65 516H124L299 83H303L478 516ZM208 630Q183 630 173 640T162 667V679Q162 695 172 705T208 716Q233 716 243 706T254 679V667Q254
651 244 641T208 630ZM392 630Q367 630 357 640T346 667V679Q346 695 356 705T392 716Q417 716 427 706T438 679V667Q438 651 428 641T392 630Z" />
<glyph unicode="&#x2013;" glyph-name="endash" d="M60 278V331H540V278H60Z" />
<glyph unicode="&#x2014;" glyph-name="emdash" d="M0 278V331H600V278H0Z" />
<glyph unicode="&#x2018;" glyph-name="quoteleft" d="M314 740H362L309 474H213L314 740Z" />
<glyph unicode="&#x2019;" glyph-name="quoteright" d="M291 740H387L286 474H238L291 740Z" />
<glyph unicode="&#x201a;" glyph-name="quotesinglbase" d="M267 113H363L262 -153H214L267 113Z" />
<glyph unicode="&#x201c;" glyph-name="quotedblleft" d="M469 740H517L464 474H368L469 740ZM423 740H471L418 474H322L423 740Z" />
<glyph unicode="&#x201d;" glyph-name="quotedblright" d="M446 740H542L441 474H393L446 740ZM400 740H496L395 474H347L400 740Z" />
<glyph unicode="&#x201e;" glyph-name="quotedblbase" d="M434 113H530L429 -153H381L434 113ZM387 113H483L382 -153H334L387 113Z" />
<glyph unicode="&#x2022;" glyph-name="bullet" d="M300 198Q241 198 217 225T192 291V317Q192 356 216 383T300 410Q359 410 383 383T408 317V291Q408 252 384 225T300 198Z" />
<glyph unicode="&#x2039;" glyph-name="guilsinglleft" d="M378 64L169 241V298L378 475L397 434L229 269L397 104L378 64Z" />
<glyph unicode="&#x203a;" glyph-name="guilsinglright" d="M203 104L371 269L203 434L222 475L431 298V241L222 64L203 104Z" />
</font>
</defs>
</svg>
